<svg width="24" height="25" viewBox="0 0 24 25" fill="none" xmlns="http://www.w3.org/2000/svg">
<path d="M23.5013 18.4977L15.0233 2.91286C13.6612 0.619683 10.3407 0.616636 8.9767 2.91286L0.499073 18.4977C-0.893396 20.8409 0.792463 23.8082 3.52167 23.8082H20.478C23.2049 23.8082 24.8938 20.8433 23.5013 18.4977ZM12 20.9957C11.2248 20.9957 10.5937 20.3647 10.5937 19.5894C10.5937 18.8142 11.2248 18.1832 12 18.1832C12.7752 18.1832 13.4062 18.8142 13.4062 19.5894C13.4062 20.3647 12.7752 20.9957 12 20.9957ZM13.4062 15.3707C13.4062 16.1459 12.7752 16.7769 12 16.7769C11.2248 16.7769 10.5937 16.1459 10.5937 15.3707V8.33943C10.5937 7.56422 11.2248 6.93318 12 6.93318C12.7752 6.93318 13.4062 7.56422 13.4062 8.33943V15.3707Z" fill="#BB2124"/>
</svg>
