<svg width="51" height="63" viewBox="0 0 51 63" fill="none" xmlns="http://www.w3.org/2000/svg">
<path d="M6.75 0.250488C5.0924 0.250488 3.50268 0.908968 2.33058 2.08107C1.15848 3.25317 0.5 4.84289 0.5 6.50049V56.5005C0.5 58.1581 1.15848 59.7478 2.33058 60.9199C3.50268 62.092 5.0924 62.7505 6.75 62.7505H44.25C45.9076 62.7505 47.4973 62.092 48.6694 60.9199C49.8415 59.7478 50.5 58.1581 50.5 56.5005V19.0005L31.75 0.250488H6.75ZM6.75 6.50049H28.625V22.1255H44.25V56.5005H6.75V6.50049ZM13 31.5005V37.7505H38V31.5005H13ZM13 44.0005V50.2505H28.625V44.0005H13Z" fill="white"/>
</svg>
