<svg width="24" height="25" viewBox="0 0 24 25" fill="none" xmlns="http://www.w3.org/2000/svg">
<g clip-path="url(#clip0)">
<path d="M17.5034 0.5H6.49657C2.9143 0.5 0 3.4143 0 6.99657V18.0036C0 21.5857 2.9143 24.5 6.49657 24.5H17.5036C21.0857 24.5 24 21.5857 24 18.0036V6.99657C24 3.4143 21.0857 0.5 17.5034 0.5V0.5ZM12 19.0623C8.38145 19.0623 5.43767 16.1185 5.43767 12.5C5.43767 8.88145 8.38145 5.93767 12 5.93767C15.6185 5.93767 18.5623 8.88145 18.5623 12.5C18.5623 16.1185 15.6185 19.0623 12 19.0623ZM18.7192 7.48528C17.6499 7.48528 16.7801 6.61553 16.7801 5.54619C16.7801 4.47686 17.6499 3.60693 18.7192 3.60693C19.7885 3.60693 20.6585 4.47686 20.6585 5.54619C20.6585 6.61553 19.7885 7.48528 18.7192 7.48528Z" fill="white"/>
<path d="M12 7.34473C9.15747 7.34473 6.84467 9.65734 6.84467 12.5001C6.84467 15.3426 9.15747 17.6554 12 17.6554C14.8427 17.6554 17.1553 15.3426 17.1553 12.5001C17.1553 9.65734 14.8427 7.34473 12 7.34473Z" fill="white"/>
<path d="M18.7192 5.01416C18.4258 5.01416 18.1871 5.25293 18.1871 5.54626C18.1871 5.8396 18.4258 6.07837 18.7192 6.07837C19.0127 6.07837 19.2515 5.83978 19.2515 5.54626C19.2515 5.25275 19.0127 5.01416 18.7192 5.01416Z" fill="white"/>
</g>
<defs>
<clipPath id="clip0">
<rect width="24" height="24" fill="white" transform="translate(0 0.5)"/>
</clipPath>
</defs>
</svg>
