<svg width="10" height="10" viewBox="0 0 10 10" fill="none" xmlns="http://www.w3.org/2000/svg">
<g clip-path="url(#clip0)">
<path d="M7.20131 0.199982H2.79858C1.36567 0.199982 0.199951 1.3657 0.199951 2.79861V7.20141C0.199951 8.63424 1.36567 9.79996 2.79858 9.79996H7.20138C8.63421 9.79996 9.79993 8.63424 9.79993 7.20141V2.79861C9.79993 1.3657 8.63421 0.199982 7.20131 0.199982V0.199982ZM4.99994 7.62489C3.55253 7.62489 2.37502 6.44738 2.37502 4.99997C2.37502 3.55256 3.55253 2.37505 4.99994 2.37505C6.44735 2.37505 7.62486 3.55256 7.62486 4.99997C7.62486 6.44738 6.44735 7.62489 4.99994 7.62489V7.62489ZM7.68763 2.99409C7.2599 2.99409 6.912 2.64619 6.912 2.21846C6.912 1.79073 7.2599 1.44275 7.68763 1.44275C8.11537 1.44275 8.46334 1.79073 8.46334 2.21846C8.46334 2.64619 8.11537 2.99409 7.68763 2.99409Z" fill="black"/>
<path d="M5 2.93781C3.86299 2.93781 2.93787 3.86285 2.93787 4.99994C2.93787 6.13694 3.86299 7.06207 5 7.06207C6.13708 7.06207 7.06213 6.13694 7.06213 4.99994C7.06213 3.86285 6.13708 2.93781 5 2.93781V2.93781Z" fill="black"/>
<path d="M7.68757 2.00555C7.57024 2.00555 7.47473 2.10106 7.47473 2.2184C7.47473 2.33573 7.57024 2.43124 7.68757 2.43124C7.80498 2.43124 7.90049 2.3358 7.90049 2.2184C7.90049 2.10099 7.80498 2.00555 7.68757 2.00555Z" fill="black"/>
</g>
<defs>
<clipPath id="clip0">
<rect width="9.6" height="9.6" fill="white" transform="translate(0.199951 0.199982)"/>
</clipPath>
</defs>
</svg>
