<svg width="20" height="19" viewBox="0 0 20 19" fill="none" xmlns="http://www.w3.org/2000/svg">
<path d="M4.76007 5.96484H1.09845V18.4648H4.76007V5.96484Z" fill="white"/>
<path fill-rule="evenodd" clip-rule="evenodd" d="M2.86615 0.472168C1.72978 0.472168 0.845947 1.35601 0.845947 2.49237C0.845947 3.62873 1.72978 4.51257 2.86615 4.51257C4.00251 4.51257 4.88635 3.62873 4.88635 2.49237C4.88635 1.35601 4.00251 0.472168 2.86615 0.472168Z" fill="white"/>
<path fill-rule="evenodd" clip-rule="evenodd" d="M16.1237 5.90159C12.7146 4.95462 10.947 7.22735 10.947 7.22735L10.505 5.58594H7.09595V18.4647H11.0101V12.0253V10.8258C11.0101 9.68947 11.9571 8.7425 13.0934 8.7425C14.2298 8.7425 15.1768 9.68947 15.1768 10.8258V12.0253V18.4647H19.0909V12.0253C19.0909 12.0253 19.5328 6.9117 16.1237 5.90159Z" fill="white"/>
</svg>
