<svg width="24" height="24" viewBox="0 0 24 24" fill="none" xmlns="http://www.w3.org/2000/svg">
<path d="M12.0654 23.7612C10.8571 24.4613 10.9086 23.4304 10.9606 23.1129C10.9915 22.9237 11.1321 22.0363 11.1321 22.0363C11.1721 21.7146 11.2144 21.2169 11.0938 20.8994C10.9594 20.55 10.4273 20.368 10.0363 20.2795C4.26912 19.48 0 15.2536 0 10.2078C0 4.57945 5.38427 0 12.0003 0C18.6163 0 24 4.57945 24 10.2078C24 16.529 17.6395 20.5307 12.0654 23.7612ZM8.20672 12.5093C8.20672 12.1719 7.94437 11.8978 7.622 11.8978H5.98957V7.87441C5.98957 7.53702 5.72721 7.26289 5.40484 7.26289C5.0819 7.26289 4.82012 7.53702 4.82012 7.87441V12.5099C4.82012 12.8479 5.08247 13.122 5.40484 13.122H7.622C7.94437 13.1226 8.20672 12.8473 8.20672 12.5093ZM9.9146 7.87441C9.9146 7.53702 9.65224 7.26289 9.32987 7.26289C9.00693 7.26289 8.74515 7.53702 8.74515 7.87441V12.5099C8.74515 12.8479 9.0075 13.122 9.32987 13.122C9.65281 13.122 9.9146 12.8473 9.9146 12.5099V7.87441ZM15.2531 7.87441C15.2531 7.53702 14.9908 7.26289 14.6684 7.26289C14.3455 7.26289 14.0825 7.53702 14.0825 7.87441V10.7428L11.8088 7.5081C11.6991 7.35507 11.5236 7.26349 11.3413 7.26349C11.2784 7.26349 11.2161 7.27313 11.1555 7.29482C10.916 7.37857 10.7554 7.61173 10.7554 7.87501V12.5105C10.7554 12.8485 11.0183 13.1226 11.3413 13.1226C11.6648 13.1226 11.9271 12.8479 11.9271 12.5105V9.64329L14.1997 12.878C14.3095 13.031 14.4844 13.1226 14.6673 13.1226C14.7296 13.1226 14.7924 13.1118 14.853 13.0907C15.0931 13.0081 15.2531 12.775 15.2531 12.5105V7.87441ZM18.8415 9.58063H17.2091V8.48592H18.8415C19.165 8.48592 19.4274 8.2118 19.4274 7.87441C19.4274 7.53702 19.1644 7.26289 18.8415 7.26289H16.6244C16.3014 7.26289 16.0396 7.53702 16.0396 7.87441C16.0396 7.87441 16.0396 7.87501 16.0396 7.87622V10.1909V10.1921V12.5087C16.0396 12.8467 16.3026 13.1208 16.6244 13.1208H18.8415C19.1644 13.1208 19.4274 12.8461 19.4274 12.5087C19.4274 12.1713 19.1644 11.8972 18.8415 11.8972H17.2091V10.8025H18.8415C19.165 10.8025 19.4274 10.5283 19.4274 10.1909C19.4274 9.85295 19.1644 9.57882 18.8415 9.57882V9.58063Z" fill="white"/>
</svg>
