<svg width="24" height="24" viewBox="0 0 24 24" fill="none" xmlns="http://www.w3.org/2000/svg">
<path d="M24.46 6.02783C22.8986 6.02783 21.458 5.57338 20.3011 4.80672C18.9743 3.92787 18.021 2.63869 17.6844 1.1528C17.601 0.785676 17.5561 0.40681 17.5519 0.0185547H13.0916V10.7263L13.0862 16.5915C13.0862 18.1595 11.924 19.4891 10.3129 19.9567C9.84537 20.0923 9.3404 20.1567 8.81459 20.1313C8.14344 20.0989 7.5145 19.921 6.96786 19.6337C5.80456 19.0224 5.01585 17.9135 4.99448 16.645C4.96081 14.6624 6.78511 13.046 9.04009 13.046C9.48521 13.046 9.9127 13.1098 10.3129 13.2258V10.2991V9.24701C9.89079 9.19208 9.46116 9.16345 9.02673 9.16345C6.55854 9.16345 4.25012 10.0648 2.60003 11.6887C1.35284 12.916 0.604742 14.4817 0.489321 16.1234C0.338098 18.2802 1.23635 20.3304 2.97835 21.843C3.23431 22.0651 3.50309 22.2712 3.78416 22.4613C5.27769 23.4711 7.10358 24.0186 9.02673 24.0186C9.46116 24.0186 9.89079 23.9904 10.3129 23.9355C12.1094 23.7017 13.767 22.9791 15.0751 21.843C16.6825 20.4473 17.5706 18.5942 17.5802 16.622L17.5572 7.86347C18.324 8.38318 19.1624 8.81322 20.0623 9.14701C21.4617 9.66578 22.9456 9.92869 24.4728 9.92822V7.08274V6.02689C24.4739 6.02783 24.4611 6.02783 24.46 6.02783Z" fill="white"/>
</svg>
