<svg width="12" height="10" viewBox="0 0 12 10" fill="none" xmlns="http://www.w3.org/2000/svg">
<path fill-rule="evenodd" clip-rule="evenodd" d="M10.3942 1.8945C10.3942 1.8945 11.0507 1.38945 11.278 0.707628C11.278 0.707628 10.3942 1.11167 9.86388 1.13692C9.43458 0.606618 8.77802 0.253082 8.0457 0.253082C6.75782 0.253082 5.72247 1.28844 5.72247 2.57632C5.72247 2.82884 5.77297 3.08137 5.84873 3.30864C5.84873 3.30864 5.84873 3.30864 5.82348 3.30864C2.36389 3.08137 0.975004 0.859144 0.975004 0.859144C0.975004 0.859144 0.11642 2.60157 1.50531 3.99046C1.50531 3.99046 1.15177 4.04096 0.722479 3.78844C0.722479 3.78844 0.444702 5.27834 2.31339 6.08642C2.31339 6.08642 1.78308 6.23793 1.48005 6.18743C1.48005 6.18743 1.90935 7.57632 3.60126 7.77834C3.60126 7.77834 2.89419 8.66218 0.444702 8.83895C0.444702 8.83895 4.51035 11.4905 8.44974 7.9046C8.44974 7.9046 10.1669 6.43996 10.3942 3.51066L11.581 1.64197L10.3942 1.8945Z" fill="black"/>
</svg>
