<svg width="24" height="25" viewBox="0 0 24 25" fill="none" xmlns="http://www.w3.org/2000/svg">
<path d="M12 0.5C5.38346 0.5 0 5.88346 0 12.5C0 19.1165 5.38346 24.5 12 24.5C18.6165 24.5 24 19.1165 24 12.5C24 5.88346 18.6165 0.5 12 0.5ZM18.7068 9.34211L11.0376 16.9511C10.5865 17.4023 9.86466 17.4323 9.38346 16.9812L5.32331 13.282C4.84211 12.8308 4.81203 12.0789 5.23308 11.5977C5.68421 11.1165 6.43609 11.0865 6.91729 11.5376L10.1353 14.485L16.9925 7.62782C17.4737 7.14662 18.2256 7.14662 18.7068 7.62782C19.188 8.10902 19.188 8.8609 18.7068 9.34211Z" fill="#22BB33"/>
</svg>
