<svg width="704" height="135" viewBox="0 0 704 135" fill="none" xmlns="http://www.w3.org/2000/svg">
<path d="M0 0H84.07C80.0077 7.56324 76.7274 15.5211 74.28 23.75C65.68 23.89 57.23 24.0433 48.93 24.21C40.51 60.46 43 101.4 56.51 134.84H26.87C19.5 99.84 18.12 61.14 22.72 24.75C14.98 24.9167 7.40667 25.0967 0 25.29V0Z" fill="white"/>
<path d="M94.34 0H176.34C171.933 6.32711 168.347 13.1888 165.67 20.42C147.86 20.6 130.36 20.8 113.28 21.03C109.407 31.4519 106.906 42.3331 105.84 53.4L146.27 53.15C145.43 61.5954 145.34 70.0986 146 78.56L105.56 78.37C106.434 90.1413 108.91 101.738 112.92 112.84C129.99 113.08 147.49 113.28 165.31 113.46C168.024 121.038 171.722 128.226 176.31 134.84H94.31C71.62 95.84 71.62 39 94.34 0Z" fill="white"/>
<path d="M190.85 0H222.76C236.59 0 247 1.35 254.5 4.29C262 7.23 267.18 12.85 270.94 22.67C274.7 32.49 276 47.18 275.94 66.67C275.94 80.48 274.94 92.6 272.75 102.38C270.56 112.16 267.75 119.11 263.82 123.82C260.17 128.316 255.117 131.457 249.47 132.74C243.65 134.14 236.01 134.82 226.33 134.82H190.85C166.67 100 166.67 34.82 190.85 0ZM211.34 20C202.06 48.46 202.06 86.32 211.34 114.78H216.64C223.85 114.83 229.05 113.61 232.4 111.03C235.75 108.45 237.89 103.84 239.32 96.84C240.75 89.84 240.9 79.36 241 65.3C241.14 52.3 240.91 42.53 239.23 35.99C237.55 29.45 235.23 25.27 231.86 23.11C228.49 20.95 223.43 20 216.64 20H211.34Z" fill="white"/>
<path d="M327.18 0H411.25C413.51 7.09383 415.183 14.3617 416.25 21.73L386.42 21.66C389.47 57.29 388.55 108.66 383.68 134.84H354.05C354.39 108.73 354.46 57.26 354.24 21.63C344.507 21.63 334.777 21.63 325.05 21.63C325.6 13.42 326.31 6 327.18 0Z" fill="white"/>
<path d="M442.66 0H472.49C505.77 34.12 522.49 100.62 511.02 134.84H480.71C482.962 126.836 484.076 118.555 484.02 110.24C470.613 110.333 457.08 110.41 443.42 110.47C439.641 119.072 434.947 127.242 429.42 134.84H402.16C425.14 102.21 445.4 32.69 442.66 0ZM482.32 85.83C479.214 64.8139 472.954 44.3871 463.75 25.24C463.31 43.64 459.39 65.48 452.97 85.93L482.32 85.83Z" fill="white"/>
<path d="M522.28 0H551.92C572.81 29.48 576.73 76.12 563.67 112C578.203 111.833 592.447 111.643 606.4 111.43C603.657 119.625 599.965 127.472 595.4 134.81H522.3C547.07 99.7 547.07 35.14 522.28 0Z" fill="white"/>
<path d="M608.42 0H638.06C645.73 16.94 650.2 36.15 651.47 55.73C659.69 36.16 664.47 17.73 670.82 0H700.82C690 16.39 683.28 32.3 675.19 49.12C687.32 78.62 691.61 106.74 703.65 134.84H673C669.81 115.21 667.36 94.54 661.28 72.98C658 78.62 654.41 84.3 650.44 89.98C648.566 105.479 644.394 120.611 638.06 134.88H608.42C631.24 95.89 631.24 39 608.42 0Z" fill="white"/>
</svg>
