<svg width="24" height="25" viewBox="0 0 24 25" fill="none" xmlns="http://www.w3.org/2000/svg">
<path d="M12 0.5C5.38316 0.5 0 5.88316 0 12.5C0 19.1168 5.38316 24.5 12 24.5C18.6168 24.5 24 19.1168 24 12.5C24 5.88316 18.6168 0.5 12 0.5ZM12 19.4025C11.327 19.4025 10.7814 18.8569 10.7814 18.1839C10.7814 17.5109 11.327 16.9653 12 16.9653C12.673 16.9653 13.2186 17.5109 13.2186 18.1839C13.2186 18.8569 12.673 19.4025 12 19.4025ZM13.2186 13.1471C13.2186 13.8201 12.673 14.3657 12 14.3657C11.327 14.3657 10.7814 13.8201 10.7814 13.1471V6.72934C10.7814 6.05636 11.327 5.51076 12 5.51076C12.673 5.51076 13.2186 6.05636 13.2186 6.72934V13.1471Z" fill="#F0AD4E"/>
</svg>
