<svg width="21" height="21" viewBox="0 0 21 21" fill="none" xmlns="http://www.w3.org/2000/svg">
<path d="M10.9375 19.25C8.2775 19.25 6.125 17.0975 6.125 14.4375V5.25C6.125 3.31625 7.69125 1.75 9.625 1.75C11.5588 1.75 13.125 3.31625 13.125 5.25V12.6875C13.125 13.895 12.145 14.875 10.9375 14.875C9.73 14.875 8.75 13.895 8.75 12.6875V6.125H10.5V12.7662C10.5 13.2475 11.375 13.2475 11.375 12.7662V5.25C11.375 4.2875 10.5875 3.5 9.625 3.5C8.6625 3.5 7.875 4.2875 7.875 5.25V14.4375C7.875 16.1262 9.24875 17.5 10.9375 17.5C12.6263 17.5 14 16.1262 14 14.4375V6.125H15.75V14.4375C15.75 17.0975 13.5975 19.25 10.9375 19.25Z" fill="black" fill-opacity="0.5"/>
</svg>
