<svg width="12" height="12" viewBox="0 0 12 12" fill="none" xmlns="http://www.w3.org/2000/svg">
<path d="M6 0.4375C2.98125 0.4375 0.53125 2.8875 0.53125 5.90625C0.53125 8.925 2.98125 11.375 6 11.375C9.01875 11.375 11.4688 8.925 11.4688 5.90625C11.4688 2.8875 9.01875 0.4375 6 0.4375ZM6 10.2812C3.59375 10.2812 1.625 8.3125 1.625 5.90625C1.625 3.5 3.59375 1.53125 6 1.53125C8.40625 1.53125 10.375 3.5 10.375 5.90625C10.375 8.3125 8.40625 10.2812 6 10.2812Z" fill="#EBEBEB"/>
<path d="M4.5563 4.22187C4.75318 4.00312 4.9938 3.82812 5.27818 3.71875C5.56255 3.5875 5.84693 3.52188 6.15318 3.52188C6.52505 3.52188 6.89693 3.60937 7.20318 3.80625C7.50943 3.98125 7.7938 4.24375 7.99068 4.52813L8.77818 3.9375C8.47193 3.54375 8.10005 3.19375 7.66255 2.975C7.20318 2.73438 6.72193 2.625 6.17505 2.625C5.73755 2.625 5.30005 2.7125 4.9063 2.8875C4.51255 3.0625 4.16255 3.30312 3.87818 3.5875C3.5938 3.89375 3.35318 4.22188 3.17818 4.6375C3.00318 5.03125 2.91568 5.46875 2.91568 5.90625C2.91568 6.36562 3.00318 6.78125 3.17818 7.175C3.35318 7.56875 3.57193 7.91875 3.87818 8.225C4.16255 8.53125 4.51255 8.75 4.9063 8.925C5.30005 9.1 5.71568 9.1875 6.17505 9.1875C6.72193 9.1875 7.22505 9.07813 7.66255 8.8375C8.10005 8.59688 8.4938 8.26875 8.77818 7.875L7.99068 7.28437C7.7938 7.59062 7.5313 7.83125 7.20318 8.00625C6.87505 8.18125 6.52505 8.26875 6.15318 8.26875C5.84693 8.26875 5.56255 8.20313 5.27818 8.07188C5.01568 7.94063 4.77505 7.76562 4.5563 7.56875C4.35943 7.35 4.18443 7.10938 4.07506 6.825C3.96568 6.54063 3.90005 6.23438 3.90005 5.90625C3.90005 5.57812 3.96568 5.27187 4.07506 4.9875C4.18443 4.70312 4.35943 4.44062 4.5563 4.22187Z" fill="#EBEBEB"/>
</svg>
