<svg width="130" height="38" viewBox="0 0 130 38" fill="none" xmlns="http://www.w3.org/2000/svg">
<g clip-path="url(#clip0)">
<path fill-rule="evenodd" clip-rule="evenodd" d="M17.1407 0.069825C10.8727 0.659116 5.79308 3.95831 2.70804 9.05085C0.703286 12.3598 -0.239073 16.2801 0.0515314 20.3032C0.762601 30.1457 9.27121 38.4788 20.1619 37.6208C29.9333 36.8508 37.9955 28.1126 37.1696 17.3651C36.8671 13.4302 35.4913 10.1872 33.2861 7.2589C32.2876 5.93308 32.0907 5.91145 31.048 4.82602C29.755 3.47962 27.0206 1.934 25.2755 1.25015C22.9356 0.332895 19.9562 -0.19499 17.1407 0.069825Z" fill="#108DE8"/>
<path fill-rule="evenodd" clip-rule="evenodd" d="M7.83405 13.3501C7.59644 14.0322 7.73789 21.6162 7.73789 23.023C7.73789 24.5449 7.4357 25.0201 9.83073 25.8344C16.1721 27.9903 22.4513 20.6805 28.7569 24.2972C29.0492 24.4646 29.4051 24.8083 29.4887 24.2532L29.4911 14.4969C29.4915 13.4474 29.5859 13.1188 28.8857 12.6342C23.2431 8.72648 17.1338 15.4104 11.4083 14.6606C9.28953 14.3832 8.4121 13.3086 7.83405 13.3501Z" fill="white"/>
<path fill-rule="evenodd" clip-rule="evenodd" d="M51.3991 28.3901C53.871 28.5656 56.7504 26.6599 57.765 25.5685C61.2892 21.777 61.3741 16.2913 57.8265 12.3212C56.5054 10.8429 53.4127 9.20897 51.4398 9.43784L44.3155 9.44308L44.3137 28.3664L51.3991 28.3901ZM48.3158 24.2898C48.8405 24.3805 50.9959 24.3467 51.588 24.2926C56.4549 23.8502 58.1739 17.2351 54.0823 14.4641C53.4032 14.0039 52.6475 13.6372 51.656 13.5276C51.1131 13.4673 48.7939 13.43 48.3134 13.5161L48.3158 24.2898Z" fill="#108DE8"/>
<path fill-rule="evenodd" clip-rule="evenodd" d="M113.799 28.4254L117.851 28.4236L117.856 24.345L125.897 24.3464L125.92 28.424L129.971 28.4247C129.974 26.1582 129.972 23.9099 129.972 21.6619C129.972 19.6369 130.143 17.1018 129.641 15.2649C128.791 12.1558 125.816 9.39847 121.902 9.38312C117.946 9.36777 115.075 12.1171 114.158 15.1811C113.615 16.9944 113.796 19.594 113.796 21.5901C113.796 23.8649 113.773 26.1519 113.799 28.4254ZM117.855 20.2416L125.917 20.2451C125.936 18.4957 126.125 16.7955 125.336 15.455C124.771 14.4962 123.579 13.4928 121.905 13.4858C120.197 13.4789 119.058 14.4422 118.448 15.4355C117.65 16.7383 117.83 18.532 117.855 20.2416Z" fill="#108DE8"/>
<path fill-rule="evenodd" clip-rule="evenodd" d="M67.4474 28.4209L71.4861 28.4244C71.4885 27.5731 71.3776 24.9637 71.5254 24.3451L79.5356 24.3461L79.5641 28.4216L83.608 28.4255C83.5869 26.1656 83.6062 23.9093 83.6062 21.662C83.6062 19.734 83.7859 16.9718 83.2777 15.2625C80.9634 7.47823 70.1892 7.4231 67.7981 15.1847C67.2565 16.9425 67.4415 19.6325 67.4415 21.5902C67.4415 23.8493 67.3895 26.1695 67.4474 28.4209ZM71.4885 20.2413L79.5602 20.2455C79.577 18.5216 79.7666 16.7893 78.9748 15.4516C77.526 13.0034 73.8415 12.651 72.0887 15.4398C71.2874 16.7146 71.4622 18.5628 71.4885 20.2413Z" fill="#108DE8"/>
<path fill-rule="evenodd" clip-rule="evenodd" d="M90.7165 16.8291L90.6614 19.6558C90.6614 22.0259 90.5428 26.4472 90.6698 28.37L94.6302 28.3721C94.7222 27.0243 94.487 17.4061 94.7379 17.0998C94.739 15.2307 96.6992 13.4929 98.6818 13.4855C99.8997 13.481 100.788 13.9737 101.434 14.5584C101.939 15.0151 102.711 16.0555 102.696 17.1096C102.881 17.2132 102.735 27.2458 102.793 28.3693L106.758 28.3721L106.726 16.8866C106.825 15.9868 106.28 14.5957 105.93 13.8896C102.996 7.95933 94.5716 7.88083 91.5532 13.7873C91.1994 14.4799 90.633 15.9087 90.7165 16.8291Z" fill="#108DE8"/>
<path fill-rule="evenodd" clip-rule="evenodd" d="M51.3991 28.3901L44.3137 28.3664L44.3155 9.44312L51.4398 9.43788C51.3103 9.2575 48.338 9.36531 47.9213 9.36531C46.8849 9.36531 45.2487 9.26832 44.2853 9.38066C44.1944 9.68211 44.1572 27.9407 44.279 28.4327C44.9349 28.5168 49.5067 28.4519 50.952 28.4553L51.3493 28.4138C51.3619 28.4103 51.3826 28.3981 51.3991 28.3901Z" fill="#79BBE7"/>
<path fill-rule="evenodd" clip-rule="evenodd" d="M102.696 17.1094C102.738 18.6575 102.612 27.8817 102.757 28.4347L106.794 28.4521C106.899 28.0087 106.834 20.8161 106.834 19.7272C106.834 19.2067 106.975 17.1618 106.726 16.8865L106.758 28.3719L102.793 28.3691C102.735 27.2456 102.881 17.213 102.696 17.1094Z" fill="#79BBE7"/>
<path fill-rule="evenodd" clip-rule="evenodd" d="M94.7379 17.0998C94.487 17.4062 94.7221 27.0243 94.6302 28.3721L90.6698 28.37C90.5427 26.4472 90.6613 22.026 90.6613 19.6559L90.7164 16.8291C90.4911 16.9264 90.5918 21.9646 90.5918 22.5933C90.5918 23.5088 90.4823 27.9122 90.6399 28.437L94.6747 28.4516L94.7379 17.0998Z" fill="#79BBE7"/>
</g>
<defs>
<clipPath id="clip0">
<rect width="130" height="37.6812" fill="white"/>
</clipPath>
</defs>
</svg>
