<svg width="24" height="25" viewBox="0 0 24 25" fill="none" xmlns="http://www.w3.org/2000/svg">
<path fill-rule="evenodd" clip-rule="evenodd" d="M17.0182 0.500488H6.91948C3.11688 0.500488 0 3.61737 0 7.41997V17.581C0 21.3836 3.11688 24.5005 6.91948 24.5005H17.0805C20.8831 24.5005 24 21.3836 24 17.581V7.41997C23.9377 3.61737 20.8208 0.500488 17.0182 0.500488ZM21.5065 17.5187C21.5065 19.9498 19.5117 21.9446 17.0805 21.9446H6.91948C4.48831 21.9446 2.49351 19.9498 2.49351 17.5187V7.41997C2.49351 4.9888 4.48831 2.99399 6.91948 2.99399H17.0805C19.5117 2.99399 21.5065 4.9888 21.5065 7.41997V17.5187Z" fill="#EBEBEB"/>
<path fill-rule="evenodd" clip-rule="evenodd" d="M11.9692 6.92139C8.91465 6.92139 6.42114 9.41489 6.42114 12.4694C6.42114 15.524 8.91465 18.0175 11.9692 18.0175C15.0237 18.0175 17.5172 15.524 17.5172 12.4694C17.5172 9.41489 15.0237 6.92139 11.9692 6.92139ZM11.9692 15.4616C10.2861 15.4616 8.97698 14.0902 8.97698 12.4694C8.97698 10.7863 10.3484 9.47723 11.9692 9.47723C13.6523 9.47723 14.9614 10.8487 14.9614 12.4694C14.9614 14.1526 13.6523 15.4616 11.9692 15.4616Z" fill="#EBEBEB"/>
<path fill-rule="evenodd" clip-rule="evenodd" d="M18.2024 4.49023C17.2674 4.49023 16.5817 5.23829 16.5817 6.11101C16.5817 7.04608 17.3297 7.73179 18.2024 7.73179C19.1375 7.73179 19.8232 6.98374 19.8232 6.11101C19.8232 5.23829 19.1375 4.49023 18.2024 4.49023Z" fill="#EBEBEB"/>
</svg>
