<svg width="818" height="761" viewBox="0 0 818 761" fill="none" xmlns="http://www.w3.org/2000/svg">
<path fill-rule="evenodd" clip-rule="evenodd" d="M199.395 243.246C231.077 197.875 288.094 182.693 339.241 161.57C398.011 137.298 457.272 94.1742 518.458 111.475C580.506 129.02 610.344 196.388 647.857 248.835C686.813 303.298 754.52 356.195 740.301 421.629C725.757 488.552 631.029 497.087 583.247 546.15C543.262 587.207 539.106 661.313 485.968 682.78C432.032 704.57 374.697 667.507 318.317 653.181C253.58 636.73 165.448 650.945 132.356 592.924C98.8135 534.114 160.644 465.574 173.392 399.083C183.557 346.063 168.488 287.508 199.395 243.246Z" fill="url(#paint0_linear)"/>
<defs>
<linearGradient id="paint0_linear" x1="102.89" y1="623.823" x2="595.413" y2="201.131" gradientUnits="userSpaceOnUse">
<stop stop-color="#960001"/>
<stop offset="0.648054" stop-color="#010101"/>
</linearGradient>
</defs>
</svg>
