<svg width="130" height="38" viewBox="0 0 130 38" fill="none" xmlns="http://www.w3.org/2000/svg">
<path d="M96.4593 21.2406H100.991V36.8143H96.4593V21.2406ZM85.3053 36.8143V26.0753C85.3053 25.1961 85.2897 24.3535 85.2587 23.542C85.2279 22.735 85.1865 21.97 85.124 21.2406H89.2789L89.4443 24.0278C89.8375 23.0714 90.4687 22.3475 91.3329 21.8562C92.1915 21.3652 93.2674 21.1223 94.5507 21.1223H94.6854L94.6698 25.212C94.3957 25.191 94.1937 25.1758 94.0591 25.1654C93.9192 25.1547 93.7956 25.1496 93.6865 25.1496C92.5019 25.1496 91.5759 25.439 90.9085 26.0135C90.2356 26.5873 89.8997 27.3885 89.8997 28.4071V36.8143H85.3053ZM78.4528 21.2406H82.9851V36.8143H78.4528V21.2406ZM71.1087 36.8143L70.9589 34.5912C70.4003 35.4286 69.7277 36.0597 68.9412 36.4838C68.155 36.9075 67.2649 37.12 66.2713 37.12C64.3834 37.12 62.8518 36.3802 61.672 34.9014C60.4974 33.4226 59.9081 31.4631 59.9081 29.033C59.9081 26.5873 60.4822 24.6275 61.6361 23.159C62.7896 21.6909 64.3157 20.9566 66.2146 20.9566C67.2442 20.9566 68.1447 21.1581 68.9101 21.5563C69.6811 21.9545 70.3433 22.5645 70.8971 23.3812V14.4727H75.3983V33.6813C75.3983 34.4673 75.4086 35.1081 75.4342 35.5942C75.4601 36.0852 75.5015 36.4941 75.5481 36.8143H71.1087ZM64.5021 29.0585C64.5021 30.6667 64.7814 31.913 65.3349 32.797C65.8887 33.6813 66.67 34.1206 67.6685 34.1206C68.6874 34.1206 69.5002 33.6706 70.095 32.766C70.6899 31.8613 70.99 30.6253 70.99 29.0585C70.99 27.4869 70.6899 26.2409 70.095 25.3359C69.5002 24.426 68.6874 23.9709 67.6685 23.9709C66.67 23.9709 65.8887 24.4153 65.3349 25.3103C64.7814 26.2047 64.5021 27.4558 64.5021 29.0585ZM43.0834 36.8143V24.2293C43.0834 23.7849 43.073 23.3195 43.0471 22.8333C43.0216 22.3475 42.9802 21.8151 42.9335 21.2406H47.2483L47.3415 23.5779C47.926 22.637 48.6245 21.949 49.4269 21.5149C50.2286 21.0809 51.2116 20.8635 52.3758 20.8635C54.0931 20.8635 55.3658 21.3496 56.1989 22.3268C57.032 23.2984 57.4512 24.7876 57.4512 26.7885V36.8143H52.9962V27.4096C52.9962 26.2461 52.7946 25.4135 52.3962 24.907C51.9981 24.4053 51.3511 24.152 50.451 24.152C49.5819 24.152 48.8783 24.4312 48.3504 24.9946C47.8173 25.5533 47.5535 26.2978 47.5535 27.2284V36.8143H43.0834ZM0.123327 36.8143V24.2293C0.123327 23.6707 0.112624 23.1487 0.0922535 22.6577C0.0711925 22.1663 0.0404641 21.6957 0.00421143 21.2406H4.29307L4.41219 23.5779C4.99672 22.637 5.69 21.949 6.49723 21.5149C7.29928 21.0809 8.28224 20.8635 9.44129 20.8635C10.6155 20.8635 11.6037 21.1223 12.4161 21.6443C13.223 22.1663 13.813 22.9209 14.1855 23.9091C14.6927 22.8592 15.3546 22.0887 16.1718 21.5977C16.9898 21.1064 18.0242 20.8635 19.2816 20.8635C20.9993 20.8635 22.2775 21.3496 23.1154 22.3268C23.9537 23.2984 24.3725 24.7876 24.3725 26.7885V36.8143H19.8713V27.4096C19.8713 26.2461 19.6697 25.4135 19.2713 24.907C18.8725 24.4053 18.2262 24.152 17.3261 24.152C16.457 24.152 15.7586 24.4312 15.2407 24.9946C14.7183 25.5533 14.4597 26.2978 14.4597 27.2284V36.8143H9.95849V27.4096C9.95849 26.2564 9.76204 25.429 9.36844 24.917C8.97553 24.4053 8.33921 24.152 7.45948 24.152C6.59045 24.152 5.90234 24.4312 5.39032 24.9846C4.87795 25.5429 4.62418 26.2875 4.62418 27.2284V36.8143H0.123327ZM36.5507 35.1874C35.6433 35.9803 33.8666 36.8305 32.6457 37.1045C32.1772 37.2142 31.6666 37.2666 31.1145 37.2666C29.8049 37.2666 28.709 36.805 27.8262 35.8872C26.9434 34.9642 26.5038 33.7893 26.5038 32.3619C26.5038 31.2153 26.73 30.2834 27.1775 29.5602C27.6294 28.8325 28.2654 28.2615 29.0895 27.8433C29.905 27.4292 30.9218 27.1294 32.1313 26.9534C33.3404 26.7775 34.5951 26.6443 35.8922 26.5635V26.478C35.8922 22.7536 30.5773 23.2173 28.3044 24.809L27.5179 21.8751C29.2939 21.0419 31.042 20.6185 33.2144 20.6185C37.0247 20.6185 40.2432 22.4441 40.2432 26.8078V36.8478H36.5507V35.1874ZM36.194 32.1494V29.1465C35.5076 29.2127 34.7581 29.3004 33.9553 29.4108C33.1533 29.526 32.5439 29.6582 32.1282 29.8066C31.6206 29.9877 31.2291 30.2575 30.9633 30.6036C30.6922 30.9552 30.5569 31.4117 30.5569 31.9831C30.5569 35.9272 35.1658 34.6471 36.194 32.1494Z" fill="#0061AE"/>
<path fill-rule="evenodd" clip-rule="evenodd" d="M50.3091 11.3204C51.6998 12.8731 54.2869 17.0836 57.35 16.8234C64.526 16.2141 68.6129 8.45901 77.4727 9.01245C81.1121 9.23983 82.826 15.3405 86.435 15.866C92.1236 16.6944 97.5735 7.95318 106.845 8.45486C110.656 8.66085 112.231 15.0606 116.031 15.4302C119.573 15.7745 125.12 10.7566 129.996 8.15537C128.755 6.06581 126.448 2.80277 123.992 2.63785C119.157 2.31282 115.29 8.48523 111.037 7.40767C108.563 6.78073 105.744 -0.0134366 101.667 1.9962e-05C94.1202 0.0248628 88.9119 7.49221 82.2397 8.08222C78.4536 8.41691 76.6333 0.00105508 71.5628 0.774633C64.6237 1.83356 57.5323 7.54741 50.3091 11.3204Z" fill="url(#paint0_linear)"/>
<defs>
<linearGradient id="paint0_linear" x1="55.3396" y1="22.9338" x2="124.952" y2="-5.89479" gradientUnits="userSpaceOnUse">
<stop stop-color="#F6AD02"/>
<stop offset="0.2" stop-color="#FFF000"/>
<stop offset="0.411765" stop-color="#F6AD02"/>
<stop offset="0.658824" stop-color="#FFF000"/>
<stop offset="0.788235" stop-color="#F6AD02"/>
<stop offset="1" stop-color="#FFF000"/>
</linearGradient>
</defs>
</svg>
