<svg width="304" height="305" viewBox="0 0 304 305" fill="none" xmlns="http://www.w3.org/2000/svg">
<path fill-rule="evenodd" clip-rule="evenodd" d="M222.318 82.4411C209.273 66.9303 187.977 63.2628 168.627 57.2353C146.393 50.3095 123.362 36.5232 101.611 44.8411C79.553 53.2763 70.8791 78.8288 58.9158 99.1902C46.4924 120.335 23.5301 141.851 30.8633 165.253C38.3634 189.187 73.1975 189.193 92.2361 205.522C108.168 219.187 112.115 246.082 132.202 252.17C152.591 258.349 172.29 242.949 192.386 235.874C215.46 227.749 248.074 230.044 258.242 207.794C268.548 185.242 243.746 162.268 236.915 138.432C231.468 119.426 235.043 97.5726 222.318 82.4411Z" fill="url(#paint0_linear)" fill-opacity="0.5"/>
<path d="M41.1597 147.381L27.9681 139.766V111.472L41.1597 119.09V147.381Z" fill="#E0E0E0"/>
<path d="M41.1597 119.09L60.0073 108.21V136.5L41.1597 147.381V119.09Z" fill="#EBEBEB"/>
<path d="M60.0073 108.21L41.1597 119.09L27.9681 111.472L46.8158 100.591L60.0073 108.21Z" fill="#F5F5F5"/>
<path d="M43.0481 120.176L58.1235 111.472L58.4715 111.671V122.153L43.3915 130.857L43.0435 130.658L43.0481 120.176Z" fill="#E0E0E0"/>
<path d="M43.3915 120.38L58.4715 111.671V122.153L43.3915 130.857V120.38Z" fill="#F5F5F5"/>
<path d="M49.3028 118.742L51.8687 117.262C52.1981 117.067 52.4673 117.156 52.4673 117.457C52.4434 117.642 52.3768 117.819 52.273 117.973C52.1691 118.128 52.0307 118.256 51.8687 118.348L49.3028 119.828C48.9687 120.023 48.6996 119.935 48.6996 119.633C48.7236 119.448 48.7907 119.271 48.8955 119.116C49.0002 118.962 49.1397 118.834 49.3028 118.742Z" fill="#E0E0E0"/>
<path d="M42.7002 133.437L57.7756 124.733V135.214L58.1236 135.414L43.0436 144.119L42.7002 143.919V133.437Z" fill="#E0E0E0"/>
<path d="M43.0435 133.637L58.1235 124.932V135.414L43.0435 144.119V133.637Z" fill="#F5F5F5"/>
<path d="M48.9549 132.004L51.544 130.528C51.8781 130.333 52.1472 130.421 52.1472 130.723C52.1231 130.908 52.0561 131.085 51.9513 131.24C51.8466 131.395 51.7071 131.523 51.544 131.614L48.9781 133.094C48.644 133.289 48.3749 133.201 48.3749 132.899C48.3957 132.715 48.459 132.539 48.5596 132.383C48.6602 132.228 48.7955 132.098 48.9549 132.004Z" fill="#E0E0E0"/>
<path d="M41.1597 117.457L27.9681 109.838V81.5482L41.1597 89.1624V117.457Z" fill="#E0E0E0"/>
<path d="M41.1597 89.1624L60.0073 78.2816V106.576L41.1597 117.457V89.1624Z" fill="#EBEBEB"/>
<path d="M60.0073 78.2816L41.1597 89.1624L27.9681 81.5482L46.8158 70.6674L60.0073 78.2816Z" fill="#F5F5F5"/>
<path d="M43.0435 90.2528L58.1235 81.5482L58.4715 81.7477V92.2295L43.3915 100.934L43.0435 100.73V90.2528Z" fill="#E0E0E0"/>
<path d="M49.3028 88.8144L51.8641 87.3343C52.1981 87.144 52.4673 87.2322 52.4673 87.5338C52.4425 87.7188 52.3751 87.8956 52.2705 88.0502C52.1658 88.2048 52.0267 88.333 51.8641 88.4247L49.3028 89.9048C48.9687 90.0951 48.6996 90.0116 48.6996 89.71C48.724 89.5242 48.7912 89.3466 48.8959 89.1913C49.0005 89.0359 49.1398 88.9069 49.3028 88.8144Z" fill="#E0E0E0"/>
<path d="M42.7002 103.514L57.7756 94.8093V105.286L58.1236 105.486L43.0436 114.191L42.7002 113.991V103.514Z" fill="#E0E0E0"/>
<path d="M43.0435 103.713L58.1235 95.0089V105.486L43.0435 114.191V103.713Z" fill="#F5F5F5"/>
<path d="M48.9549 102.076L51.544 100.595C51.8734 100.405 52.1472 100.493 52.1472 100.795C52.1211 100.98 52.0532 101.156 51.9486 101.31C51.8441 101.465 51.7057 101.593 51.544 101.686L48.9549 103.152C48.6208 103.342 48.3517 103.254 48.3517 102.957C48.3781 102.774 48.4463 102.599 48.5508 102.446C48.6554 102.293 48.7936 102.167 48.9549 102.076Z" fill="#E0E0E0"/>
<path d="M43.0435 90.2528L58.1235 81.5482V92.0253L43.0435 100.73V90.2528Z" fill="#E0E0E0"/>
<path d="M65.6635 86.7264L57.4089 81.9612V91.1948L65.6635 95.9554V86.7264Z" fill="#E0E0E0"/>
<path d="M48.6996 102.224V89.1624L51.9337 87.2879L52.4673 88.0767L61.8911 82.634V94.6052L48.6996 102.224Z" fill="#EBEBEB"/>
<path d="M48.6996 102.224L49.6415 90.7957L62.833 83.1815L61.8911 94.6052L48.6996 102.224Z" fill="#F5F5F5"/>
<path d="M50.5835 95.4311L43.3915 91.2783V100.512L50.5835 104.66V95.4311Z" fill="#EBEBEB"/>
<path d="M50.5835 94.6051L65.6635 85.9005V96.3776L50.5835 105.082V94.6051Z" fill="#F5F5F5"/>
<path d="M56.4948 92.9672L59.0561 91.4871C59.3902 91.2968 59.6593 91.385 59.6593 91.6866C59.6342 91.8715 59.5667 92.0481 59.462 92.2027C59.3574 92.3572 59.2185 92.4855 59.0561 92.5775L56.4948 94.0576C56.1607 94.2479 55.8916 94.1597 55.8916 93.8627C55.916 93.677 55.9832 93.4994 56.0879 93.344C56.1925 93.1887 56.3318 93.0597 56.4948 92.9672Z" fill="#E0E0E0"/>
<path d="M50.5835 94.6052L50.0824 94.3175V104.795L50.5835 105.082V94.6052Z" fill="#E0E0E0"/>
<path d="M50.0824 94.3175L65.1577 85.6082L65.6635 85.9005L50.5835 94.6051L50.0824 94.3175Z" fill="#EBEBEB"/>
<path d="M197.008 130.24L183.812 122.621V94.3314L197.008 101.946V130.24Z" fill="#E0E0E0"/>
<path d="M197.008 101.946L215.856 91.0648V119.36L197.008 130.24V101.946Z" fill="#EBEBEB"/>
<path d="M215.856 91.0648L197.008 101.946L183.812 94.3314L202.664 83.446L215.856 91.0648Z" fill="#F5F5F5"/>
<path d="M198.892 103.036L213.972 94.3314L214.32 94.5309L214.315 105.008L199.24 113.713L198.892 113.513V103.036Z" fill="#E0E0E0"/>
<path d="M199.24 103.236L214.32 94.5309L214.315 105.008L199.24 113.713V103.236Z" fill="#F5F5F5"/>
<path d="M205.151 101.598L207.712 100.117C208.047 99.9272 208.316 100.015 208.316 100.312C208.291 100.498 208.224 100.676 208.119 100.831C208.015 100.986 207.875 101.115 207.712 101.208L205.151 102.688C204.817 102.878 204.548 102.79 204.548 102.493C204.572 102.307 204.64 102.13 204.744 101.974C204.849 101.819 204.988 101.69 205.151 101.598Z" fill="#E0E0E0"/>
<path d="M198.544 116.297L213.624 107.588V118.07L213.972 118.269L198.892 126.974L198.544 126.774V116.297Z" fill="#E0E0E0"/>
<path d="M198.892 116.497L213.972 107.792V118.269L198.892 126.974V116.497Z" fill="#F5F5F5"/>
<path d="M204.803 114.859L207.369 113.379C207.698 113.188 207.968 113.277 207.968 113.573C207.943 113.759 207.876 113.936 207.772 114.091C207.669 114.246 207.531 114.375 207.369 114.469L204.803 115.949C204.469 116.139 204.2 116.051 204.2 115.75C204.225 115.565 204.293 115.388 204.397 115.234C204.502 115.079 204.641 114.951 204.803 114.859Z" fill="#E0E0E0"/>
<path d="M71.3197 90.7308V162.549L144.827 120.111L144.822 54.8218L90.1674 86.3784L88.2789 80.9357L71.3197 90.7308Z" fill="#E34444"/>
<path opacity="0.7" d="M71.3197 90.7308V162.549L144.827 120.111L144.822 54.8218L90.1674 86.3784L88.2789 80.9357L71.3197 90.7308Z" fill="black"/>
<path d="M71.3197 162.549L75.0874 97.2592L148.594 54.8218L144.827 120.111L71.3197 162.549Z" fill="#E0E0E0"/>
<path d="M71.3197 162.549L76.9712 98.3496L150.478 55.9076L144.827 120.111L71.3197 162.549Z" fill="#E34444"/>
<path opacity="0.7" d="M71.3197 162.549L76.9712 98.3496L150.478 55.9076L144.827 120.111L71.3197 162.549Z" fill="black"/>
<path d="M82.6273 97.2592V169.082L156.134 126.64V61.3503L101.475 92.9069L99.5912 87.4642L82.6273 97.2592Z" fill="#E34444"/>
<path opacity="0.5" d="M82.6273 97.2592V169.082L156.134 126.64V61.3503L101.475 92.9069L99.5912 87.4642L82.6273 97.2592Z" fill="black"/>
<path d="M82.6273 169.082L86.395 103.788L159.902 61.3503L156.134 126.64L82.6273 169.082Z" fill="#E0E0E0"/>
<path d="M82.6273 169.082L88.2788 104.878L161.786 62.436L156.134 126.64L82.6273 169.082Z" fill="#E34444"/>
<path opacity="0.5" d="M82.6273 169.082L88.2788 104.878L161.786 62.436L156.134 126.64L82.6273 169.082Z" fill="black"/>
<path d="M144.808 191.934C131.612 184.315 119.371 176.033 113.785 166.316L130.767 156.512L144.808 191.934Z" fill="#E0E0E0"/>
<path d="M95.8188 104.878V176.696L169.326 134.259V68.9691L114.667 100.526L112.783 95.0831L95.8188 104.878Z" fill="#E34444"/>
<path opacity="0.2" d="M95.8188 104.878V176.696L169.326 134.259V68.9691L114.667 100.526L112.783 95.0831L95.8188 104.878Z" fill="black"/>
<path d="M116.996 126.111C116.81 126.111 116.782 125.897 116.782 125.772V64.524C116.797 64.2864 116.867 64.0555 116.986 63.8494C117.105 63.6433 117.271 63.4676 117.469 63.3362L170.523 32.7122C170.595 32.6669 170.679 32.6413 170.764 32.6379C170.95 32.6379 170.978 32.8514 170.978 32.9767V94.2247C170.963 94.463 170.893 94.6947 170.774 94.9016C170.655 95.1085 170.49 95.2849 170.291 95.4171L117.237 126.041C117.164 126.084 117.081 126.108 116.996 126.111Z" fill="white"/>
<path d="M170.736 32.8514C170.74 32.8853 170.74 32.9195 170.736 32.9535V94.2015C170.721 94.399 170.662 94.5906 170.563 94.7624C170.464 94.9342 170.329 95.0818 170.166 95.1944L117.112 125.818L117.019 125.86C117.013 125.826 117.013 125.792 117.019 125.758V64.5101C117.035 64.3134 117.094 64.1226 117.193 63.9517C117.292 63.7808 117.427 63.6339 117.59 63.5218L170.643 32.8978C170.673 32.8773 170.706 32.8631 170.741 32.856L170.736 32.8514ZM170.769 32.392C170.642 32.3958 170.519 32.4326 170.411 32.4987L117.358 63.1227C117.124 63.2759 116.93 63.4817 116.791 63.7234C116.652 63.9651 116.571 64.2361 116.555 64.5147V125.763C116.555 126.125 116.736 126.333 117.019 126.333C117.145 126.33 117.269 126.293 117.376 126.227L170.43 95.6027C170.664 95.4506 170.859 95.2452 170.999 95.0032C171.138 94.7612 171.218 94.4897 171.233 94.2107V32.9627C171.233 32.6008 171.052 32.3874 170.769 32.392Z" fill="#E34444"/>
<path opacity="0.7" d="M170.736 32.8514C170.74 32.8853 170.74 32.9195 170.736 32.9535V94.2015C170.721 94.399 170.662 94.5906 170.563 94.7624C170.464 94.9342 170.329 95.0818 170.166 95.1944L117.112 125.818L117.019 125.86C117.013 125.826 117.013 125.792 117.019 125.758V64.5101C117.035 64.3134 117.094 64.1226 117.193 63.9517C117.292 63.7808 117.427 63.6339 117.59 63.5218L170.643 32.8978C170.673 32.8773 170.706 32.8631 170.741 32.856L170.736 32.8514ZM170.769 32.392C170.642 32.3958 170.519 32.4326 170.411 32.4987L117.358 63.1227C117.124 63.2759 116.93 63.4817 116.791 63.7234C116.652 63.9651 116.571 64.2361 116.555 64.5147V125.763C116.555 126.125 116.736 126.333 117.019 126.333C117.145 126.33 117.269 126.293 117.376 126.227L170.43 95.6027C170.664 95.4506 170.859 95.2452 170.999 95.0032C171.138 94.7612 171.218 94.4897 171.233 94.2107V32.9627C171.233 32.6008 171.052 32.3874 170.769 32.392Z" fill="white"/>
<path d="M122.207 66.8487L141.054 55.9679V77.7295L122.207 88.6103V66.8487Z" fill="#E34444"/>
<path opacity="0.8" d="M122.207 66.8487L141.054 55.9679V77.7295L122.207 88.6103V66.8487Z" fill="white"/>
<path d="M138.229 61.392V67.9344L137.635 68.2639V66.264C137.635 65.1597 136.739 64.7839 135.625 65.4242L127.64 70.041C126.531 70.6813 125.631 72.0965 125.631 73.2008V75.2007L125.042 75.5533V69.0248L138.229 61.392Z" fill="white"/>
<path d="M134.6 78.0496C133.635 78.6064 132.851 78.0218 132.851 76.7365V66.264L130.424 67.5818V78.1378C130.424 79.4184 129.64 80.9218 128.675 81.4647L126.921 82.4762V83.1722L136.345 77.7295V77.0381L134.6 78.0496Z" fill="white"/>
<path d="M144.808 54.896C144.808 55.4992 145.351 55.6709 146.014 55.2904L164.352 44.688C164.677 44.5036 164.955 44.2464 165.165 43.9364C165.374 43.6265 165.509 43.2723 165.558 42.9016C165.558 42.3031 165.015 42.1268 164.352 42.5119L146.028 53.0911C145.698 53.2751 145.415 53.5344 145.203 53.848C144.991 54.1615 144.856 54.5205 144.808 54.896Z" fill="#455A64"/>
<path d="M144.808 61.392C144.808 61.9952 145.351 62.1716 146.014 61.7864L164.338 51.2072C164.663 51.0228 164.941 50.7656 165.151 50.4556C165.36 50.1457 165.495 49.7915 165.544 49.4208C165.544 48.8223 165.001 48.646 164.338 49.0311L146.014 59.6103C145.69 59.7942 145.412 60.0508 145.202 60.3598C144.993 60.6689 144.858 61.0222 144.808 61.392Z" fill="#455A64"/>
<path d="M144.808 67.9344C144.808 68.5376 145.351 68.7139 146.014 68.3288L164.338 57.7496C164.663 57.5657 164.94 57.3091 165.15 57.0001C165.359 56.691 165.494 56.3377 165.544 55.9679C165.544 55.3647 165.001 55.1883 164.338 55.5735L146.014 66.1527C145.69 66.3366 145.412 66.5931 145.202 66.9022C144.993 67.2113 144.858 67.5646 144.808 67.9344Z" fill="#455A64"/>
<path d="M144.808 74.4629C144.808 75.0661 145.351 75.2424 146.014 74.8573L164.338 64.2781C164.663 64.0942 164.94 63.8376 165.15 63.5286C165.359 63.2195 165.494 62.8662 165.544 62.4964C165.544 61.8932 165.001 61.7168 164.338 62.1019L146.014 72.6811C145.69 72.8651 145.412 73.1216 145.202 73.4307C144.993 73.7398 144.858 74.093 144.808 74.4629Z" fill="#455A64"/>
<path d="M122.207 94.053C122.207 94.6562 122.745 94.8325 123.413 94.4474L164.352 70.7834C164.677 70.6 164.955 70.3436 165.164 70.0344C165.374 69.7253 165.509 69.3717 165.558 69.0016C165.558 68.3984 165.015 68.2267 164.352 68.6072L123.413 92.2712C123.087 92.4543 122.809 92.7106 122.6 93.0199C122.39 93.3291 122.256 93.6828 122.207 94.053Z" fill="#455A64"/>
<path d="M122.207 100.581C122.207 101.185 122.745 101.361 123.413 100.976L164.352 77.3397C164.677 77.1553 164.955 76.898 165.165 76.5881C165.374 76.2782 165.509 75.924 165.558 75.5533C165.558 74.9547 165.015 74.7784 164.352 75.1635L123.413 98.7997C123.087 98.9828 122.809 99.2391 122.6 99.5483C122.39 99.8576 122.256 100.211 122.207 100.581Z" fill="#455A64"/>
<path d="M122.207 107.115C122.207 107.713 122.745 107.889 123.413 107.504L164.352 83.8682C164.677 83.6838 164.955 83.4265 165.165 83.1166C165.374 82.8067 165.509 82.4525 165.558 82.0818C165.558 81.4832 165.015 81.3069 164.352 81.692L123.413 105.328C123.087 105.512 122.808 105.769 122.599 106.079C122.389 106.389 122.255 106.744 122.207 107.115Z" fill="#455A64"/>
<path d="M95.8188 176.696L109.01 119.025L182.517 76.5834L169.326 134.259L95.8188 176.696Z" fill="#E34444"/>
<path d="M113.803 123.54V166.316L130.767 156.521V113.75L113.803 123.54Z" fill="#E34444"/>
<path opacity="0.2" d="M113.803 123.54V166.316L130.767 156.521V113.75L113.803 123.54Z" fill="black"/>
<path d="M144.84 191.655C143.397 190.579 129.487 179.949 122.415 164.743C114.889 148.578 114.899 129.721 114.899 122.626V122.403L165.326 93.292C165.326 100.452 165.326 119.336 172.885 135.558C179.794 150.406 193.171 160.901 195.291 162.507L144.84 191.655Z" fill="white"/>
<path d="M165.094 93.7096C165.094 101.171 165.238 119.694 172.676 135.674C179.353 150.011 192.048 160.321 194.874 162.498L144.854 191.377C142.901 189.906 129.515 179.452 122.629 164.665C115.112 148.545 115.112 129.725 115.112 122.64V122.552L165.076 93.705L165.094 93.7096ZM165.54 92.9023L114.648 122.287C114.648 128.964 114.509 148.364 122.188 164.859C129.747 181.048 144.808 191.934 144.808 191.934L195.713 162.544C195.713 162.544 180.633 151.659 173.098 135.47C165.414 118.974 165.558 99.5746 165.558 92.8976L165.54 92.9023Z" fill="#E34444"/>
<path opacity="0.7" d="M165.094 93.7096C165.094 101.171 165.238 119.694 172.676 135.674C179.353 150.011 192.048 160.321 194.874 162.498L144.854 191.377C142.901 189.906 129.515 179.452 122.629 164.665C115.112 148.545 115.112 129.725 115.112 122.64V122.552L165.076 93.705L165.094 93.7096ZM165.54 92.9023L114.648 122.287C114.648 128.964 114.509 148.364 122.188 164.859C129.747 181.048 144.808 191.934 144.808 191.934L195.713 162.544C195.713 162.544 180.633 151.659 173.098 135.47C165.414 118.974 165.558 99.5746 165.558 92.8976L165.54 92.9023Z" fill="white"/>
<path d="M159.8 102.758L143.708 112.038C143.386 112.215 143.112 112.467 142.908 112.774C142.705 113.08 142.578 113.431 142.539 113.796C142.562 114.385 143.124 114.553 143.787 114.167L159.883 104.887C160.202 104.712 160.473 104.463 160.676 104.161C160.879 103.859 161.006 103.513 161.048 103.152C161.02 102.54 160.468 102.373 159.8 102.758Z" fill="#455A64"/>
<path d="M160.143 109.091L144.052 118.371C143.733 118.542 143.463 118.791 143.267 119.095C143.071 119.398 142.954 119.746 142.929 120.107C142.98 120.677 143.564 120.83 144.228 120.445L160.324 111.165C160.641 110.995 160.909 110.746 161.103 110.444C161.297 110.141 161.411 109.794 161.433 109.435C161.387 108.859 160.811 108.72 160.143 109.091Z" fill="#455A64"/>
<path d="M160.788 115.249L144.692 124.529C144.028 124.914 143.546 125.679 143.625 126.231C143.704 126.784 144.311 126.927 144.98 126.542L161.076 117.262C161.739 116.877 162.213 116.116 162.129 115.564C162.046 115.012 161.452 114.863 160.788 115.249Z" fill="#455A64"/>
<path d="M161.753 121.22L145.657 130.5C144.994 130.885 144.534 131.637 144.646 132.175C144.757 132.713 145.388 132.834 146.038 132.449L162.129 123.169C162.797 122.784 163.243 122.037 163.131 121.499C163.02 120.96 162.44 120.835 161.753 121.22Z" fill="#455A64"/>
<path d="M163.062 126.992L146.966 136.272C146.302 136.657 145.871 137.391 146.038 137.906C146.205 138.421 146.84 138.537 147.504 138.152L163.6 128.872C164.268 128.486 164.686 127.758 164.528 127.238C164.37 126.719 163.725 126.607 163.062 126.992Z" fill="#455A64"/>
<path d="M164.76 132.556L125.533 155.204C124.87 155.589 124.466 156.303 124.647 156.8C124.828 157.296 125.519 157.389 126.183 157.004L165.41 134.356C166.078 133.971 166.463 133.261 166.282 132.76C166.101 132.259 165.4 132.171 164.76 132.556Z" fill="#455A64"/>
<path d="M166.825 137.868L127.603 160.516C126.935 160.901 126.568 161.597 126.791 162.071C127.014 162.544 127.719 162.618 128.396 162.233L167.623 139.585C168.291 139.2 168.648 138.504 168.426 138.031C168.203 137.558 167.493 137.488 166.825 137.868Z" fill="#455A64"/>
<path d="M169.4 142.931L130.173 165.579C129.505 165.964 129.176 166.641 129.44 167.091C129.705 167.541 130.461 167.588 131.129 167.203L170.328 144.555C170.992 144.174 171.312 143.501 171.047 143.051C170.783 142.601 170.05 142.546 169.4 142.931Z" fill="#455A64"/>
<path d="M172.402 147.719L133.18 170.362C132.512 170.748 132.215 171.411 132.517 171.833C132.818 172.256 133.612 172.297 134.28 171.908L173.502 149.26C174.17 148.875 174.458 148.22 174.156 147.793C173.854 147.367 173.07 147.334 172.402 147.719Z" fill="#455A64"/>
<path d="M175.826 152.271L136.6 174.914C135.936 175.299 135.672 175.944 136.006 176.348C136.34 176.752 137.161 176.77 137.829 176.385L177.056 153.728C177.719 153.343 177.984 152.707 177.641 152.304C177.297 151.9 176.495 151.872 175.826 152.271Z" fill="#455A64"/>
<path d="M179.608 156.605L140.395 179.248C139.727 179.633 139.467 180.264 139.857 180.64C140.247 181.016 141.073 181.025 141.736 180.64L180.963 157.992C181.631 157.607 181.863 156.985 181.492 156.6C181.121 156.215 180.285 156.224 179.608 156.605Z" fill="#455A64"/>
<path d="M183.784 160.748L144.557 183.392C143.894 183.777 143.676 184.394 144.093 184.76C144.511 185.127 145.365 185.113 146.033 184.728L185.227 162.08C185.891 161.695 186.099 161.092 185.691 160.72C185.283 160.349 184.434 160.363 183.784 160.748Z" fill="#455A64"/>
<path d="M137.876 115.42L119.371 126.092C119.576 132.797 120.341 142.467 123.144 152.206L141.653 141.534C138.846 131.795 138.08 122.12 137.876 115.42Z" fill="#E34444"/>
<path opacity="0.8" d="M137.876 115.42L119.371 126.092C119.576 132.797 120.341 142.467 123.144 152.206L141.653 141.534C138.846 131.795 138.08 122.12 137.876 115.42Z" fill="white"/>
<path d="M126.916 124.617C126.941 124.184 126.874 123.751 126.719 123.346C126.563 122.941 126.324 122.574 126.016 122.269L119.371 126.101C119.427 127.874 119.52 129.855 119.682 131.99C120.547 132.089 121.421 131.927 122.193 131.526C124.805 130.329 126.916 127.224 126.916 124.617Z" fill="#E34444"/>
<path opacity="0.6" d="M126.916 124.617C126.941 124.184 126.874 123.751 126.719 123.346C126.563 122.941 126.324 122.574 126.016 122.269L119.371 126.101C119.427 127.874 119.52 129.855 119.682 131.99C120.547 132.089 121.421 131.927 122.193 131.526C124.805 130.329 126.916 127.224 126.916 124.617Z" fill="white"/>
<path d="M140.08 135.131C138.846 133.577 136.335 128.774 135.263 126.681C135.221 126.599 135.155 126.531 135.074 126.486C134.993 126.441 134.9 126.421 134.808 126.43C134.715 126.438 134.627 126.474 134.556 126.533C134.484 126.592 134.431 126.671 134.405 126.76C133.246 130.724 132.572 134.814 132.401 138.94C130.855 137.714 129.527 136.236 128.471 134.569C128.426 134.505 128.363 134.455 128.29 134.424C128.218 134.394 128.138 134.385 128.06 134.399C127.983 134.413 127.911 134.448 127.853 134.501C127.795 134.555 127.753 134.623 127.733 134.699C125.71 142.49 126.726 150.155 126.726 150.155L141.653 141.534C141.031 139.381 140.516 137.237 140.08 135.131Z" fill="#E34444"/>
<path opacity="0.6" d="M140.08 135.131C138.846 133.577 136.335 128.774 135.263 126.681C135.221 126.599 135.155 126.531 135.074 126.486C134.993 126.441 134.9 126.421 134.808 126.43C134.715 126.438 134.627 126.474 134.556 126.533C134.484 126.592 134.431 126.671 134.405 126.76C133.246 130.724 132.572 134.814 132.401 138.94C130.855 137.714 129.527 136.236 128.471 134.569C128.426 134.505 128.363 134.455 128.29 134.424C128.218 134.394 128.138 134.385 128.06 134.399C127.983 134.413 127.911 134.448 127.853 134.501C127.795 134.555 127.753 134.623 127.733 134.699C125.71 142.49 126.726 150.155 126.726 150.155L141.653 141.534C141.031 139.381 140.516 137.237 140.08 135.131Z" fill="white"/>
<defs>
<linearGradient id="paint0_linear" x1="270.884" y1="188.187" x2="59.1252" y2="49.471" gradientUnits="userSpaceOnUse">
<stop stop-color="#24B9BA"/>
<stop offset="0.648054" stop-color="#1E1E1E"/>
</linearGradient>
</defs>
</svg>
