<svg width="266" height="288" viewBox="0 0 266 288" fill="none" xmlns="http://www.w3.org/2000/svg">
<path fill-rule="evenodd" clip-rule="evenodd" d="M173.589 81.1507C196.676 71.7276 208.44 49.4507 222.355 30.0675C238.345 7.79571 235.928 9.59321 233.5 -17C231.037 -43.9683 173.464 -29.2827 153.227 -48.9345C132.212 -69.3422 114.402 -104.303 83.8441 -103.679C52.5913 -103.042 97.4035 -116.995 71.2616 -101.234C49.3853 -88.0447 15.8176 -92.2612 1.57471 -72.0855C-12.8823 -51.6066 -1.26373 -25.0187 0.250094 -0.643469C1.98832 27.3449 -12.0496 62.5187 11.0694 80.7951C34.5027 99.3199 70.5946 79.3287 101.498 79.3963C126.14 79.4503 151.066 90.3434 173.589 81.1507Z" fill="url(#paint0_linear)"/>
<path fill-rule="evenodd" clip-rule="evenodd" d="M62.5886 225.732C85.6755 216.309 97.4395 194.032 111.355 174.649C127.345 152.377 125.428 150.675 123 124.081C120.537 97.113 62.4636 115.299 42.2272 95.6468C21.2125 75.2391 3.40162 40.2785 -27.1559 40.9019C-58.4087 41.5395 -13.5966 27.5862 -39.7384 43.3473C-61.6147 56.5366 -95.1824 52.3201 -109.425 72.4958C-123.882 92.9747 -112.264 119.563 -110.75 143.938C-109.012 171.926 -123.05 207.1 -99.9306 225.376C-76.4974 243.901 -40.4054 223.91 -9.50215 223.978C15.1395 224.032 40.0662 234.925 62.5886 225.732Z" fill="url(#paint1_linear)"/>
<path fill-rule="evenodd" clip-rule="evenodd" d="M-41.1649 119.151C-64.2518 109.728 -76.0158 87.4507 -89.9314 68.0675C-105.921 45.7957 -84.6996 56.7003 -82.2711 30.1071C-79.8084 3.13872 -41.0399 8.71732 -20.8034 -10.9345C0.211279 -31.3422 18.0221 -66.3028 48.5796 -65.6794C79.8324 -65.0417 35.0203 -78.9951 61.1622 -63.234C83.0385 -50.0447 116.606 -54.2612 130.849 -34.0855C145.306 -13.6066 133.688 12.9813 132.174 37.3565C130.435 65.3449 144.473 100.519 121.354 118.795C97.9211 137.32 61.8292 117.329 30.9259 117.396C6.28427 117.45 -18.6424 128.343 -41.1649 119.151Z" fill="url(#paint2_linear)"/>
<defs>
<linearGradient id="paint0_linear" x1="30.167" y1="100.954" x2="252.331" y2="-106.464" gradientUnits="userSpaceOnUse">
<stop stop-color="#010101"/>
<stop offset="1" stop-color="#008F90"/>
</linearGradient>
<linearGradient id="paint1_linear" x1="-80.8331" y1="245.535" x2="141.331" y2="38.1169" gradientUnits="userSpaceOnUse">
<stop offset="0.125" stop-color="#010101"/>
<stop offset="1" stop-color="#008F90"/>
</linearGradient>
<linearGradient id="paint2_linear" x1="102.257" y1="138.954" x2="-119.907" y2="-68.4644" gradientUnits="userSpaceOnUse">
<stop stop-color="#008F90"/>
<stop offset="0.648054" stop-color="#010101"/>
</linearGradient>
</defs>
</svg>
