<svg width="229" height="260" viewBox="0 0 229 260" fill="none" xmlns="http://www.w3.org/2000/svg">
<path fill-rule="evenodd" clip-rule="evenodd" d="M95.584 142.278C74.7566 141.627 57.3211 155.217 39.4171 165.741C18.845 177.834 -7.5235 185.886 -16.1025 207.929C-24.8024 230.282 -11.2129 254.118 -3.85445 276.923C3.78705 300.605 4.47282 332.492 27.4136 342.792C50.8763 353.327 74.8108 327.043 100.382 323.724C121.781 320.947 145.068 336.166 163.524 325.127C182.258 313.921 184.008 288.635 192.401 268.683C202.037 245.772 226.197 222.712 216.16 199.985C205.987 176.948 171.374 180.121 148.446 169.148C130.164 160.398 115.902 142.913 95.584 142.278Z" fill="url(#paint0_linear)" fill-opacity="0.5"/>
<path fill-rule="evenodd" clip-rule="evenodd" d="M-115.816 111.273C-125.161 129.899 -119.966 151.503 -117.791 172.227C-115.291 196.041 -118.947 223.397 -102.247 240.556C-85.3126 257.958 -57.6541 255.76 -33.5607 258.78C-8.54064 261.915 21.1153 274.853 40.2344 258.412C59.7886 241.597 45.631 208.698 53.3113 184.078C59.7384 163.476 83.5334 148.813 81.1153 127.368C78.6608 105.6 56.1077 93.2583 41.255 77.1568C24.2007 58.6684 13.1066 26.9351 -12.0402 26.3792C-37.5288 25.8158 -49.1402 58.5797 -68.8734 74.7224C-84.6082 87.5943 -106.7 93.1028 -115.816 111.273Z" fill="url(#paint1_linear)" fill-opacity="0.7"/>
<path fill-rule="evenodd" clip-rule="evenodd" d="M-90.8285 246.839C-103.356 225.279 -99.0665 200.454 -98.2486 176.607C-97.3088 149.206 -103.89 117.654 -85.7261 98.0791C-67.3065 78.2278 -34.6596 81.0746 -6.63372 77.8713C22.47 74.5449 56.1942 59.9809 80.0109 79.136C104.369 98.7269 90.507 136.461 101.583 164.907C110.851 188.71 140.007 205.871 138.964 230.546C137.906 255.591 112.468 269.55 96.3835 287.927C77.9146 309.029 67.5501 345.454 38.0818 345.808C8.21276 346.166 -8.15859 308.295 -32.6711 289.476C-52.2168 274.47 -78.6078 267.873 -90.8285 246.839Z" fill="url(#paint2_linear)"/>
<path fill-rule="evenodd" clip-rule="evenodd" d="M142.284 405.837C128.518 426.629 104.368 433.799 82.6331 443.645C57.6594 454.96 32.3022 474.855 6.70077 467.261C-19.2618 459.561 -31.1942 429.039 -46.4985 405.344C-62.3914 380.737 -90.4053 356.974 -83.8047 327.132C-77.0539 296.61 -37.0863 292.293 -16.5071 269.747C0.71413 250.88 3.15876 217.137 25.7347 207.125C48.65 196.963 72.4449 213.567 96.0507 219.829C123.155 227.019 160.399 220.148 173.789 246.4C187.362 273.01 160.684 304.484 154.693 334.801C149.916 358.975 155.713 385.553 142.284 405.837Z" fill="url(#paint3_linear)"/>
<defs>
<linearGradient id="paint0_linear" x1="209.846" y1="177.178" x2="-41.3111" y2="244.743" gradientUnits="userSpaceOnUse">
<stop stop-color="#960001"/>
<stop offset="0.648054" stop-color="#010101"/>
</linearGradient>
<linearGradient id="paint1_linear" x1="-35.6968" y1="22.4117" x2="-80.6005" y2="278.797" gradientUnits="userSpaceOnUse">
<stop stop-color="#960001"/>
<stop offset="0.648054" stop-color="#010101"/>
</linearGradient>
<linearGradient id="paint2_linear" x1="49.7173" y1="69.7844" x2="-1.54791" y2="309.492" gradientUnits="userSpaceOnUse">
<stop stop-color="#960001"/>
<stop offset="0.648054" stop-color="#010101"/>
</linearGradient>
<linearGradient id="paint3_linear" x1="189.814" y1="269.079" x2="-57.1258" y2="446.279" gradientUnits="userSpaceOnUse">
<stop stop-color="#960001"/>
<stop offset="0.648054" stop-color="#010101"/>
</linearGradient>
</defs>
</svg>
