<svg width="639" height="544" viewBox="0 0 639 544" fill="none" xmlns="http://www.w3.org/2000/svg">
<path fill-rule="evenodd" clip-rule="evenodd" d="M547.201 337.857C605.763 356.255 640.828 411.519 680.223 458.593C725.49 512.683 790.866 561.008 792.954 631.509C795.071 703.004 733.74 757.025 690.754 814.194C646.115 873.561 612.716 962.825 538.747 969.589C463.095 976.507 422.493 879.128 354.66 844.927C297.895 816.307 218.105 836.607 177.683 787.542C136.652 737.74 156.756 664.726 153.123 600.301C148.952 526.327 104.54 437.82 154.897 383.471C205.939 328.383 299.062 370.957 373.659 362.283C433.141 355.367 490.071 319.909 547.201 337.857Z" fill="url(#paint0_linear)" fill-opacity="0.7"/>
<path fill-rule="evenodd" clip-rule="evenodd" d="M341.685 474.879C340.738 524.889 374.359 566.289 400.53 608.915C430.601 657.894 451.013 720.917 504.944 740.783C559.636 760.929 617.253 727.529 672.552 709.118C729.979 689.998 807.594 687.304 831.971 631.904C856.902 575.244 792.176 518.662 783.314 457.397C775.897 406.129 812.24 349.737 784.796 305.802C756.94 261.206 695.323 257.836 646.486 238.349C590.411 215.974 533.526 158.745 478.497 183.581C422.719 208.756 431.503 291.728 405.488 347.118C384.745 391.286 342.609 426.091 341.685 474.879Z" fill="url(#paint1_linear)" fill-opacity="0.7"/>
<path fill-rule="evenodd" clip-rule="evenodd" d="M1033.53 535.197C1016.72 594.236 962.426 630.784 916.436 671.439C863.591 718.153 817.053 784.813 746.634 788.808C675.222 792.859 619.562 733.013 561.25 691.59C500.697 648.574 410.561 617.603 401.798 543.844C392.835 468.407 489.079 425.185 521.432 356.451C548.506 298.932 526.053 219.721 574.006 177.985C622.68 135.622 696.211 153.743 760.514 148.367C834.348 142.195 921.62 95.4042 977.312 144.272C1033.76 193.804 993.724 288.045 1004.41 362.38C1012.94 421.653 1049.92 477.603 1033.53 535.197Z" fill="url(#paint2_linear)"/>
<defs>
<linearGradient id="paint0_linear" x1="194.982" y1="325.284" x2="829.51" y2="755.681" gradientUnits="userSpaceOnUse">
<stop stop-color="#960001"/>
<stop offset="0.648054" stop-color="#010101"/>
</linearGradient>
<linearGradient id="paint1_linear" x1="423.161" y1="199.487" x2="591.419" y2="801.176" gradientUnits="userSpaceOnUse">
<stop stop-color="#960001"/>
<stop offset="0.648054" stop-color="#010101"/>
</linearGradient>
<linearGradient id="paint2_linear" x1="563.5" y1="212.5" x2="618" y2="785" gradientUnits="userSpaceOnUse">
<stop stop-color="#960001"/>
<stop offset="0.814511" stop-color="#010101"/>
</linearGradient>
</defs>
</svg>
