<svg width="657" height="928" viewBox="0 0 657 928" fill="none" xmlns="http://www.w3.org/2000/svg">
<path fill-rule="evenodd" clip-rule="evenodd" d="M-554.187 529.652C-566.98 608.983 -522.847 682.421 -490.839 756.127C-454.062 840.817 -435.818 945.667 -354.52 989.436C-272.076 1033.82 -172.894 993.7 -80.7813 976.895C14.8745 959.445 138.935 972.675 190.211 890.06C242.653 805.564 152.471 700.959 152.2 601.513C151.974 518.293 222.507 436.799 188.77 360.723C154.527 283.505 57.2809 264.238 -15.9991 222.221C-100.141 173.977 -177.705 70.1129 -270.839 97.1982C-365.238 124.652 -369.992 258.608 -423.871 340.839C-466.833 406.409 -541.707 452.261 -554.187 529.652Z" fill="url(#paint0_linear)"/>
<path fill-rule="evenodd" clip-rule="evenodd" d="M-244.555 1211.52C-200.542 1278.75 -118.445 1303.26 -45.125 1336.14C39.1216 1373.93 123.262 1439.09 212.821 1416.64C303.644 1393.87 349.878 1297.39 406.606 1222.89C465.515 1145.54 566.087 1071.7 548.292 976.109C530.091 878.342 392.969 861.837 325.749 788.549C269.497 727.219 266.684 619.478 190.49 586.01C113.152 552.039 28.3221 603.342 -54.1327 621.686C-148.81 642.75 -276.111 618.289 -326.664 701.065C-377.904 784.966 -291.138 887.135 -275.525 984.198C-263.075 1061.59 -287.491 1145.93 -244.555 1211.52Z" fill="url(#paint1_linear)" fill-opacity="0.5"/>
<path fill-rule="evenodd" clip-rule="evenodd" d="M-738.139 677.038C-719.173 755.124 -650.02 805.707 -591.939 861.237C-525.202 925.043 -467.733 1014.62 -375.825 1023.44C-282.62 1032.39 -206.753 956.954 -128.36 905.75C-46.9529 852.577 72.5334 816.672 87.7666 720.638C103.346 622.419 -20.3387 560.962 -59.1453 469.399C-91.6198 392.777 -58.2012 290.311 -118.794 233.266C-180.298 175.364 -277.407 195.309 -361.246 184.991C-457.511 173.144 -569.278 107.477 -644.625 168.553C-720.996 230.459 -673.441 355.78 -691.223 452.469C-705.402 529.567 -756.642 600.862 -738.139 677.038Z" fill="url(#paint2_linear)"/>
<defs>
<linearGradient id="paint0_linear" x1="347.003" y1="408.076" x2="-896.303" y2="494.129" gradientUnits="userSpaceOnUse">
<stop stop-color="#008F90"/>
<stop offset="0.4971" stop-color="#010101"/>
</linearGradient>
<linearGradient id="paint1_linear" x1="339.304" y1="514.356" x2="-521.248" y2="1415.84" gradientUnits="userSpaceOnUse">
<stop stop-color="#008F90"/>
<stop offset="0.4971" stop-color="#010101"/>
</linearGradient>
<linearGradient id="paint2_linear" x1="45.4211" y1="215.566" x2="-1067.27" y2="776.939" gradientUnits="userSpaceOnUse">
<stop stop-color="#008F90"/>
<stop offset="0.4971" stop-color="#010101"/>
</linearGradient>
</defs>
</svg>
