<svg width="770" height="1021" viewBox="0 0 770 1021" fill="none" xmlns="http://www.w3.org/2000/svg">
<path fill-rule="evenodd" clip-rule="evenodd" d="M651.711 886.551C663.327 793.994 609.139 710.589 569.008 626.38C522.897 529.621 497.468 408.721 401.37 361.248C303.917 313.105 190.482 363.686 84.2995 386.928C-25.9666 411.063 -170.435 400.758 -226.563 498.69C-283.968 598.851 -175.089 716.542 -170.732 831.905C-167.085 928.443 -245.6 1025.86 -203.368 1112.75C-160.5 1200.94 -46.8956 1219.34 39.8292 1265.1C139.409 1317.65 233.619 1435 340.567 1399.79C448.969 1364.1 449.037 1208.49 508.201 1110.9C555.378 1033.08 640.379 976.844 651.711 886.551Z" fill="url(#paint0_linear)" fill-opacity="0.5"/>
<path fill-rule="evenodd" clip-rule="evenodd" d="M325.812 300.238C252.728 242.269 153.312 245.295 60.5049 235.89C-46.1332 225.083 -162.672 184.067 -253.128 241.566C-344.86 299.876 -360.502 423.089 -395.749 525.912C-432.351 632.689 -516.143 750.825 -461.568 849.631C-405.751 950.685 -248.642 918.707 -147.774 974.859C-63.3642 1021.85 -20.8512 1139.52 75.3364 1148.52C172.97 1157.66 247.66 1070.1 331.792 1019.73C428.395 961.886 577.593 942.266 603.007 832.577C628.767 721.396 495.8 640.574 443.091 539.349C401.061 458.635 397.109 356.789 325.812 300.238Z" fill="url(#paint1_linear)" fill-opacity="0.7"/>
<path fill-rule="evenodd" clip-rule="evenodd" d="M-217.499 408.755C-308.555 388.493 -396.684 434.602 -484.291 466.642C-584.955 503.456 -707.71 517.411 -764.004 608.622C-821.092 701.119 -781.395 818.806 -768.235 926.702C-754.569 1038.75 -778.405 1181.61 -686.181 1246.69C-591.859 1313.26 -464.456 1215.92 -349.195 1222.42C-252.74 1227.86 -163.136 1315.19 -72.6638 1281.31C19.1678 1246.92 48.1608 1135.54 101.874 1053.5C163.55 959.303 289.228 876.539 264.225 766.755C238.881 655.478 83.973 640.788 -7.62758 572.714C-80.668 518.433 -128.671 428.523 -217.499 408.755Z" fill="url(#paint2_linear)"/>
<defs>
<linearGradient id="paint0_linear" x1="446.322" y1="1381.2" x2="252.909" y2="232.201" gradientUnits="userSpaceOnUse">
<stop stop-color="#960001"/>
<stop offset="0.648054" stop-color="#010101"/>
</linearGradient>
<linearGradient id="paint1_linear" x1="642.01" y1="732.535" x2="-440.487" y2="301.484" gradientUnits="userSpaceOnUse">
<stop stop-color="#960001"/>
<stop offset="0.648054" stop-color="#010101"/>
</linearGradient>
<linearGradient id="paint2_linear" x1="255.658" y1="659.721" x2="-906.431" y2="744.298" gradientUnits="userSpaceOnUse">
<stop stop-color="#960001"/>
<stop offset="0.648054" stop-color="#010101"/>
</linearGradient>
</defs>
</svg>
