<svg width="617" height="1360" viewBox="0 0 617 1360" fill="none" xmlns="http://www.w3.org/2000/svg">
<path fill-rule="evenodd" clip-rule="evenodd" d="M867.822 238.859C860.665 158.822 799.792 98.5281 750.604 34.9861C694.086 -38.0256 650.56 -135.143 560.983 -157.523C470.141 -180.218 383.91 -116.885 298.781 -77.8942C210.378 -37.4036 86.8839 -19.6459 57.5546 73.0598C27.5581 167.875 140.742 247.023 165.517 343.334C186.249 423.93 137.981 520.296 189.428 585.708C241.649 652.104 340.643 646.805 422.019 669.462C515.457 695.478 616.229 777.018 699.813 727.812C784.533 677.937 756.12 546.943 788.067 453.967C813.541 379.831 874.803 316.938 867.822 238.859Z" fill="url(#paint0_linear)" fill-opacity="0.5"/>
<path fill-rule="evenodd" clip-rule="evenodd" d="M906.703 626.422C873.613 553.195 796.292 516.285 728.937 472.462C651.545 422.11 578.491 344.718 486.537 353.056C393.286 361.51 332.691 449.687 265.129 514.514C194.969 581.835 84.192 639.234 86.9953 736.428C89.8624 835.833 222.785 873.338 277.867 956.137C323.961 1025.43 310.083 1132.31 380.187 1177.15C451.344 1222.67 543.085 1185.1 627.385 1179.72C724.18 1173.55 846.169 1217.4 908.911 1143.43C972.506 1068.46 902.578 954.104 902.158 855.794C901.824 777.404 938.983 697.858 906.703 626.422Z" fill="url(#paint1_linear)" fill-opacity="0.7"/>
<path fill-rule="evenodd" clip-rule="evenodd" d="M964.575 682.337C1002.03 611.244 983.655 527.558 976.858 447.491C969.048 355.49 985.238 250.304 922.172 182.868C858.216 114.48 751.415 120.833 658.758 107.345C562.538 93.339 449.196 41.1878 374.225 103.106C297.548 166.434 349.608 294.358 318.111 388.685C291.753 467.621 198.891 522.328 206.57 605.193C214.364 689.303 300.368 738.613 356.396 801.828C420.729 874.414 461.068 997.608 557.974 1001.68C656.198 1005.8 703.476 880.379 780.791 819.655C842.441 771.236 928.037 751.692 964.575 682.337Z" fill="url(#paint2_linear)"/>
<defs>
<linearGradient id="paint0_linear" x1="24.4054" y1="578.819" x2="1208.14" y2="188.956" gradientUnits="userSpaceOnUse">
<stop stop-color="#008F90"/>
<stop offset="0.4971" stop-color="#010101"/>
</linearGradient>
<linearGradient id="paint1_linear" x1="222.085" y1="1224.94" x2="1211.66" y2="467.334" gradientUnits="userSpaceOnUse">
<stop stop-color="#008F90"/>
<stop offset="0.4971" stop-color="#010101"/>
</linearGradient>
<linearGradient id="paint2_linear" x1="71.7405" y1="509.794" x2="1277.44" y2="825.24" gradientUnits="userSpaceOnUse">
<stop stop-color="#008F90"/>
<stop offset="0.4971" stop-color="#010101"/>
</linearGradient>
</defs>
</svg>
