<svg width="807" height="887" viewBox="0 0 807 887" fill="none" xmlns="http://www.w3.org/2000/svg">
<path fill-rule="evenodd" clip-rule="evenodd" d="M784.371 407.662C874.949 385.384 933.754 305.795 998.269 238.859C1072.4 161.947 1176.39 95.4734 1186.83 -9.89288C1197.41 -116.746 1110.12 -203.141 1050.93 -292.601C989.459 -385.5 948.099 -522.15 836.788 -538.93C722.944 -556.091 651.408 -413.947 545.158 -368.841C456.246 -331.096 337.517 -368.666 271.24 -298.841C203.968 -227.967 226.873 -116.843 214.721 -20.7121C200.767 89.6681 124.378 218.186 195.022 304.086C266.626 391.155 412.036 335.788 524.101 355.483C613.46 371.188 696.007 429.396 784.371 407.662Z" fill="url(#paint0_linear)" fill-opacity="0.5"/>
<path fill-rule="evenodd" clip-rule="evenodd" d="M1253.44 796.373C1346.18 786.297 1414.81 714.311 1487.47 655.815C1570.97 588.602 1682.72 535.936 1706.72 431.472C1731.05 325.535 1655.64 226.85 1608.5 128.906C1559.55 27.1962 1536.21 -115.746 1427.96 -147.737C1317.25 -180.456 1227.89 -47.3383 1116.65 -16.4532C1023.56 9.39235 910.647 -44.5001 835.864 16.659C759.956 78.7373 768.294 193.52 743.797 288.47C715.668 397.495 623.256 516.26 682.215 612.184C741.977 709.412 893.388 673.538 1002.01 708.562C1088.62 736.489 1162.97 806.202 1253.44 796.373Z" fill="url(#paint1_linear)" fill-opacity="0.7"/>
<path fill-rule="evenodd" clip-rule="evenodd" d="M1337.66 170.261C1375.24 84.8853 1347.16 -10.5281 1332.76 -102.694C1316.23 -208.595 1326.42 -331.72 1247.89 -404.678C1168.26 -478.665 1045.1 -462.613 936.709 -470.688C824.144 -479.074 688.647 -530.238 606.871 -452.432C523.234 -372.855 593.935 -228.956 565.141 -117.159C541.045 -23.605 437.963 47.3065 453.602 142.64C469.476 239.406 573.084 289.505 643.111 358.148C723.519 436.966 780.262 576.341 892.812 573.165C1006.89 569.946 1051.43 420.853 1136.02 344.24C1203.47 283.151 1301 253.55 1337.66 170.261Z" fill="url(#paint2_linear)"/>
<defs>
<linearGradient id="paint0_linear" x1="249.714" y1="394.81" x2="1251.17" y2="-198.975" gradientUnits="userSpaceOnUse">
<stop stop-color="#960001"/>
<stop offset="0.648054" stop-color="#010101"/>
</linearGradient>
<linearGradient id="paint1_linear" x1="724.727" y1="710.786" x2="1797.98" y2="257.22" gradientUnits="userSpaceOnUse">
<stop stop-color="#960001"/>
<stop offset="0.648054" stop-color="#010101"/>
</linearGradient>
<linearGradient id="paint2_linear" x1="999.468" y1="585.578" x2="1142.51" y2="-570.772" gradientUnits="userSpaceOnUse">
<stop stop-color="#960001"/>
<stop offset="0.648054" stop-color="#010101"/>
</linearGradient>
</defs>
</svg>
