<svg width="168" height="768" viewBox="0 0 168 768" fill="none" xmlns="http://www.w3.org/2000/svg">
<path fill-rule="evenodd" clip-rule="evenodd" d="M-112.898 202.421C-123.766 216.707 -122.797 235.823 -124.245 253.715C-125.91 274.274 -133.347 296.855 -121.933 314.035C-110.357 331.457 -86.5904 333.986 -66.6705 340.368C-45.9845 346.994 -22.9295 362.656 -4.13206 351.771C15.0931 340.639 8.32904 310.536 18.7399 290.911C27.4521 274.488 49.9263 265.85 51.2834 247.309C52.6608 228.49 35.5249 214.46 25.5057 198.47C14.0013 180.109 9.64583 151.48 -11.5569 147.017C-33.0479 142.494 -48.0801 168.391 -67.3502 178.926C-82.7158 187.326 -102.295 188.483 -112.898 202.421Z" fill="url(#paint0_linear)"/>
<path fill-rule="evenodd" clip-rule="evenodd" d="M-104.898 507.58C-115.766 493.293 -114.797 474.178 -116.245 456.285C-117.91 435.727 -125.347 413.145 -113.933 395.966C-102.357 378.544 -78.5904 376.014 -58.6705 369.633C-37.9845 363.006 -14.9295 347.345 3.86794 358.23C23.0931 369.362 16.329 399.465 26.7399 419.09C35.4521 435.513 57.9263 444.15 59.2834 462.691C60.6608 481.511 43.5249 495.54 33.5057 511.531C22.0013 529.892 17.6458 558.52 -3.55691 562.983C-25.0479 567.506 -40.0801 541.609 -59.3502 531.074C-74.7158 522.674 -94.2951 521.517 -104.898 507.58Z" fill="url(#paint1_linear)"/>
<path fill-rule="evenodd" clip-rule="evenodd" d="M-44.953 29.6681C-55.559 44.1508 -54.2411 63.2454 -55.3626 81.1612C-56.6513 101.747 -63.6756 124.46 -51.9493 141.428C-40.0575 158.636 -16.2489 160.732 3.78414 166.748C24.5876 172.996 47.9246 188.234 66.5203 177.008C85.5391 165.527 78.2268 135.553 88.2778 115.741C96.6887 99.1619 119.002 90.1158 120.02 71.553C121.054 52.7112 103.665 38.9969 93.3553 23.1919C81.5177 5.04407 76.6405 -23.5005 55.3599 -27.5754C33.7899 -31.7057 19.2328 -5.53874 0.158212 5.3462C-15.0515 14.0256 -34.6064 15.5396 -44.953 29.6681Z" fill="url(#paint2_linear)" fill-opacity="0.5"/>
<path fill-rule="evenodd" clip-rule="evenodd" d="M-36.953 680.332C-47.559 665.849 -46.2411 646.755 -47.3626 628.839C-48.6513 608.253 -55.6756 585.54 -43.9493 568.572C-32.0575 551.364 -8.24887 549.268 11.7841 543.252C32.5876 537.004 55.9246 521.766 74.5203 532.992C93.5391 544.473 86.2268 574.447 96.2778 594.259C104.689 610.838 127.002 619.884 128.02 638.447C129.054 657.289 111.665 671.003 101.355 686.808C89.5177 704.956 84.6405 733.501 63.3599 737.575C41.7899 741.706 27.2328 715.539 8.15821 704.654C-7.05151 695.974 -26.6064 694.46 -36.953 680.332Z" fill="url(#paint3_linear)" fill-opacity="0.5"/>
<path fill-rule="evenodd" clip-rule="evenodd" d="M-45.2841 27.8672C-62.6901 32.2561 -73.8547 47.8026 -86.1461 60.8852C-100.269 75.9175 -120.167 88.9297 -121.959 109.478C-123.776 130.316 -106.777 147.116 -95.1859 164.528C-83.1492 182.609 -74.8957 209.231 -53.4136 212.446C-31.4427 215.735 -17.9552 187.986 2.42275 179.139C19.4756 171.735 42.4301 179 55.0548 165.354C67.8692 151.502 63.2247 129.848 65.3661 111.1C67.8249 89.5726 82.2759 64.4778 68.4856 47.7656C54.5079 30.8261 26.606 41.6936 4.97251 37.9099C-12.2776 34.8928 -28.3036 23.5856 -45.2841 27.8672Z" fill="url(#paint4_linear)"/>
<path fill-rule="evenodd" clip-rule="evenodd" d="M-37.2841 682.133C-54.6901 677.744 -65.8547 662.198 -78.1461 649.115C-92.2693 634.083 -112.167 621.071 -113.959 600.523C-115.776 579.685 -98.7768 562.884 -87.1859 545.473C-75.1492 527.391 -66.8957 500.77 -45.4136 497.554C-23.4427 494.266 -9.95523 522.015 10.4227 530.862C27.4756 538.265 50.4301 531 63.0548 544.647C75.8692 558.498 71.2247 580.152 73.3661 598.901C75.8249 620.428 90.2759 645.523 76.4856 662.235C62.5079 679.174 34.606 668.307 12.9725 672.091C-4.27758 675.108 -20.3036 686.415 -37.2841 682.133Z" fill="url(#paint5_linear)"/>
<path fill-rule="evenodd" clip-rule="evenodd" d="M-106.223 264.552C-104.625 282.431 -91.0261 295.9 -80.0379 310.095C-67.4121 326.406 -57.6888 348.101 -37.6778 353.1C-17.3846 358.17 1.87886 344.022 20.896 335.312C40.6445 326.267 68.2321 322.3 74.784 301.59C81.485 280.409 56.2007 262.728 50.6661 241.213C46.0346 223.208 56.8174 201.681 45.3245 187.068C33.6589 172.236 11.5442 173.42 -6.63448 168.358C-27.5078 162.547 -50.0195 144.331 -68.6914 155.323C-87.6172 166.465 -81.2701 195.728 -88.4068 216.498C-94.0975 233.06 -107.783 247.109 -106.223 264.552Z" fill="url(#paint6_linear)" fill-opacity="0.5"/>
<path fill-rule="evenodd" clip-rule="evenodd" d="M-98.2233 445.449C-96.6246 427.569 -83.0261 414.1 -72.0379 399.905C-59.4121 383.595 -49.6888 361.9 -29.6778 356.9C-9.38459 351.83 9.87886 365.978 28.896 374.689C48.6445 383.734 76.2321 387.701 82.784 408.411C89.485 429.592 64.2007 447.273 58.6661 468.788C54.0346 486.792 64.8174 508.32 53.3245 522.932C41.6589 537.765 19.5442 536.581 1.36552 541.642C-19.5078 547.454 -42.0195 565.669 -60.6914 554.677C-79.6172 543.535 -73.2701 514.272 -80.4068 493.502C-86.0975 476.941 -99.7829 462.891 -98.2233 445.449Z" fill="url(#paint7_linear)" fill-opacity="0.5"/>
<defs>
<linearGradient id="paint0_linear" x1="77.4817" y1="273.291" x2="-176.577" y2="159.422" gradientUnits="userSpaceOnUse">
<stop stop-color="#008F90"/>
<stop offset="0.4971" stop-color="#010101"/>
</linearGradient>
<linearGradient id="paint1_linear" x1="85.4817" y1="436.71" x2="-168.577" y2="550.579" gradientUnits="userSpaceOnUse">
<stop stop-color="#008F90"/>
<stop offset="0.4971" stop-color="#010101"/>
</linearGradient>
<linearGradient id="paint2_linear" x1="146.688" y1="97.0519" x2="-109.406" y2="-12.1617" gradientUnits="userSpaceOnUse">
<stop stop-color="#008F90"/>
<stop offset="0.4971" stop-color="#010101"/>
</linearGradient>
<linearGradient id="paint3_linear" x1="154.688" y1="612.948" x2="-101.406" y2="722.162" gradientUnits="userSpaceOnUse">
<stop stop-color="#008F90"/>
<stop offset="0.4971" stop-color="#010101"/>
</linearGradient>
<linearGradient id="paint4_linear" x1="59.3289" y1="202.002" x2="-68.2418" y2="-45.4599" gradientUnits="userSpaceOnUse">
<stop stop-color="#008F90"/>
<stop offset="0.4971" stop-color="#010101"/>
</linearGradient>
<linearGradient id="paint5_linear" x1="67.3289" y1="507.998" x2="-60.2418" y2="755.46" gradientUnits="userSpaceOnUse">
<stop stop-color="#008F90"/>
<stop offset="0.4971" stop-color="#010101"/>
</linearGradient>
<linearGradient id="paint6_linear" x1="82.1893" y1="188.607" x2="-182.247" y2="275.7" gradientUnits="userSpaceOnUse">
<stop stop-color="#008F90"/>
<stop offset="0.4971" stop-color="#010101"/>
</linearGradient>
<linearGradient id="paint7_linear" x1="90.1893" y1="521.393" x2="-174.247" y2="434.301" gradientUnits="userSpaceOnUse">
<stop stop-color="#008F90"/>
<stop offset="0.4971" stop-color="#010101"/>
</linearGradient>
</defs>
</svg>
