<svg width="750" height="1197" viewBox="0 0 750 1197" fill="none" xmlns="http://www.w3.org/2000/svg">
<path fill-rule="evenodd" clip-rule="evenodd" d="M-469.862 511.427C-518.514 575.381 -514.176 660.95 -520.659 741.043C-528.109 833.073 -561.403 934.156 -510.306 1011.06C-458.488 1089.05 -352.099 1100.37 -262.929 1128.94C-170.33 1158.6 -67.1257 1228.71 17.0199 1179.98C103.08 1130.15 72.8012 995.398 119.405 907.547C158.404 834.031 259.009 795.366 265.083 712.368C271.249 628.123 194.542 565.321 149.691 493.741C98.1927 411.55 78.6957 283.395 -16.2169 263.418C-112.42 243.17 -179.71 359.096 -265.972 406.255C-334.755 443.859 -422.4 449.038 -469.862 511.427Z" fill="url(#paint0_linear)"/>
<path fill-rule="evenodd" clip-rule="evenodd" d="M-165.713 -261.887C-213.189 -197.056 -207.29 -111.581 -212.31 -31.3819C-218.079 60.7688 -249.523 162.443 -197.031 238.4C-143.798 315.43 -37.2204 324.811 52.456 351.743C145.581 379.712 250.048 447.924 333.29 397.672C418.426 346.277 385.693 212.1 430.686 123.413C468.337 49.197 568.219 8.70293 572.778 -74.3922C577.405 -158.736 499.564 -220.127 453.415 -290.877C400.425 -372.115 378.592 -499.893 283.331 -518.134C186.775 -536.622 121.611 -419.488 36.2248 -370.762C-31.8605 -331.909 -119.397 -325.132 -165.713 -261.887Z" fill="url(#paint1_linear)" fill-opacity="0.5"/>
<path fill-rule="evenodd" clip-rule="evenodd" d="M-167.194 -269.949C-245.111 -250.303 -295.089 -180.71 -350.11 -122.147C-413.332 -54.8555 -502.402 3.39269 -510.424 95.3745C-518.56 188.654 -442.462 263.86 -390.576 341.803C-336.695 422.743 -299.748 541.911 -203.585 556.306C-105.234 571.028 -44.8585 446.811 46.3621 407.207C122.698 374.065 225.452 406.588 281.966 345.5C339.329 283.493 318.538 186.561 328.124 102.636C339.13 6.27079 403.819 -106.064 342.088 -180.876C279.518 -256.704 154.617 -208.057 57.7759 -224.994C-19.4429 -238.5 -91.1824 -289.115 -167.194 -269.949Z" fill="url(#paint2_linear)"/>
<path fill-rule="evenodd" clip-rule="evenodd" d="M-439.984 789.555C-432.828 869.591 -371.955 929.885 -322.767 993.427C-266.249 1066.44 -222.723 1163.56 -133.145 1185.94C-42.304 1208.63 43.9274 1145.3 129.056 1106.31C217.459 1065.82 340.953 1048.06 370.282 955.353C400.279 860.538 287.095 781.39 262.32 685.079C241.588 604.483 289.856 508.117 238.409 442.705C186.189 376.309 87.1937 381.608 5.81813 358.951C-87.6199 332.935 -188.392 251.395 -271.975 300.601C-356.695 350.476 -328.283 481.471 -360.23 574.446C-385.704 648.582 -446.966 711.475 -439.984 789.555Z" fill="url(#paint3_linear)" fill-opacity="0.5"/>
<defs>
<linearGradient id="paint0_linear" x1="382.358" y1="828.672" x2="-754.917" y2="318.945" gradientUnits="userSpaceOnUse">
<stop stop-color="#008F90"/>
<stop offset="0.4971" stop-color="#010101"/>
</linearGradient>
<linearGradient id="paint1_linear" x1="692.156" y1="39.7518" x2="-454.232" y2="-449.135" gradientUnits="userSpaceOnUse">
<stop stop-color="#008F90"/>
<stop offset="0.4971" stop-color="#010101"/>
</linearGradient>
<linearGradient id="paint2_linear" x1="301.099" y1="509.554" x2="-269.963" y2="-598.193" gradientUnits="userSpaceOnUse">
<stop stop-color="#008F90"/>
<stop offset="0.4971" stop-color="#010101"/>
</linearGradient>
<linearGradient id="paint3_linear" x1="403.432" y1="449.594" x2="-780.301" y2="839.457" gradientUnits="userSpaceOnUse">
<stop stop-color="#008F90"/>
<stop offset="0.4971" stop-color="#010101"/>
</linearGradient>
</defs>
</svg>
