<svg width="219" height="342" viewBox="0 0 219 342" fill="none" xmlns="http://www.w3.org/2000/svg">
<path fill-rule="evenodd" clip-rule="evenodd" d="M175.696 107.76C195.93 112.737 209.067 130.517 223.479 145.47C240.039 162.651 263.269 177.501 265.601 201.039C267.966 224.909 248.465 244.209 235.242 264.194C221.511 284.947 212.271 315.473 187.405 319.222C161.973 323.055 145.993 291.301 122.257 281.225C102.395 272.793 75.8719 281.186 61.0662 265.588C46.038 249.755 51.1548 224.931 48.4401 203.456C45.3229 178.798 28.2581 150.088 44.0395 130.898C60.0354 111.448 92.5188 123.816 117.553 119.417C137.515 115.908 155.956 102.905 175.696 107.76Z" fill="url(#paint0_linear)" fill-opacity="0.5"/>
<path fill-rule="evenodd" clip-rule="evenodd" d="M280.482 20.9252C301.198 23.1761 316.531 39.2572 332.763 52.3247C351.415 67.3395 376.38 79.1046 381.741 102.441C387.176 126.107 370.329 148.152 359.799 170.032C348.864 192.753 343.65 224.685 319.468 231.832C294.736 239.141 274.773 209.404 249.924 202.504C229.129 196.731 203.905 208.77 187.199 195.107C170.241 181.239 172.104 155.598 166.632 134.387C160.348 110.031 139.704 83.5003 152.875 62.0716C166.225 40.3516 200.049 48.3655 224.314 40.5415C243.662 34.3027 260.272 18.7293 280.482 20.9252Z" fill="url(#paint1_linear)" fill-opacity="0.7"/>
<path fill-rule="evenodd" clip-rule="evenodd" d="M299.296 160.793C307.692 179.865 301.417 201.18 298.203 221.769C294.509 245.427 296.784 272.932 279.243 289.23C261.454 305.758 233.941 302.172 209.727 303.976C184.581 305.85 154.312 317.279 136.043 299.898C117.36 282.121 133.154 249.975 126.721 225.001C121.338 204.101 98.3108 188.26 101.804 166.963C105.35 145.347 128.496 134.155 144.139 118.821C162.102 101.213 174.778 70.078 199.92 70.7875C225.405 71.5066 235.354 104.813 254.251 121.928C269.318 135.575 291.106 142.187 299.296 160.793Z" fill="url(#paint2_linear)"/>
<defs>
<linearGradient id="paint0_linear" x1="56.2573" y1="110.631" x2="279.975" y2="243.278" gradientUnits="userSpaceOnUse">
<stop stop-color="#960001"/>
<stop offset="0.648054" stop-color="#010101"/>
</linearGradient>
<linearGradient id="paint1_linear" x1="162.372" y1="40.0446" x2="402.129" y2="141.368" gradientUnits="userSpaceOnUse">
<stop stop-color="#960001"/>
<stop offset="0.648054" stop-color="#010101"/>
</linearGradient>
<linearGradient id="paint2_linear" x1="223.747" y1="68.0147" x2="255.7" y2="326.334" gradientUnits="userSpaceOnUse">
<stop stop-color="#960001"/>
<stop offset="0.648054" stop-color="#010101"/>
</linearGradient>
</defs>
</svg>
