<svg width="227" height="287" viewBox="0 0 227 287" fill="none" xmlns="http://www.w3.org/2000/svg">
<path fill-rule="evenodd" clip-rule="evenodd" d="M175.696 179.24C195.93 174.263 209.067 156.484 223.479 141.531C240.039 124.349 263.269 109.5 265.601 85.9617C267.966 62.0916 248.465 42.7914 235.242 22.8069C221.511 2.05384 212.271 -28.4727 187.405 -32.2211C161.973 -36.0548 145.993 -4.30089 122.257 5.77534C102.395 14.2074 75.8719 5.81449 61.0662 21.4129C46.038 37.2457 51.1548 62.0699 48.4401 83.5447C45.3229 108.203 28.2581 136.913 44.0395 156.102C60.0354 175.553 92.5188 163.184 117.553 167.584C137.515 171.092 155.956 184.095 175.696 179.24Z" fill="url(#paint0_linear)" fill-opacity="0.5"/>
<path fill-rule="evenodd" clip-rule="evenodd" d="M280.482 266.075C301.198 263.824 316.531 247.743 332.763 234.676C351.415 219.661 376.38 207.896 381.741 184.559C387.176 160.894 370.329 138.848 359.799 116.968C348.864 94.2472 343.65 62.3151 319.468 55.1685C294.736 47.8593 274.773 77.5968 249.924 84.4963C229.129 90.27 203.905 78.2308 187.199 91.8933C170.241 105.761 172.104 131.403 166.632 152.614C160.348 176.969 139.704 203.5 152.875 224.929C166.225 246.649 200.049 238.635 224.314 246.459C243.662 252.698 260.272 268.271 280.482 266.075Z" fill="url(#paint1_linear)" fill-opacity="0.7"/>
<path fill-rule="evenodd" clip-rule="evenodd" d="M299.296 126.207C307.692 107.135 301.417 85.8199 298.203 65.2308C294.509 41.5733 296.784 14.0681 279.243 -2.23015C261.454 -18.7583 233.941 -15.1723 209.727 -16.9762C184.581 -18.8495 154.312 -30.2791 136.043 -12.8979C117.36 4.87886 133.154 37.0249 126.721 61.9993C121.338 82.8987 98.3108 98.7397 101.804 120.037C105.35 141.653 128.496 152.845 144.139 168.179C162.102 185.787 174.778 216.922 199.92 216.213C225.405 215.493 235.354 182.187 254.251 165.072C269.318 151.425 291.106 144.813 299.296 126.207Z" fill="url(#paint2_linear)"/>
<defs>
<linearGradient id="paint0_linear" x1="56.2573" y1="176.369" x2="279.975" y2="43.7222" gradientUnits="userSpaceOnUse">
<stop stop-color="#960001"/>
<stop offset="0.648054" stop-color="#010101"/>
</linearGradient>
<linearGradient id="paint1_linear" x1="162.372" y1="246.956" x2="402.129" y2="145.633" gradientUnits="userSpaceOnUse">
<stop stop-color="#960001"/>
<stop offset="0.648054" stop-color="#010101"/>
</linearGradient>
<linearGradient id="paint2_linear" x1="223.747" y1="218.985" x2="255.7" y2="-39.3342" gradientUnits="userSpaceOnUse">
<stop stop-color="#960001"/>
<stop offset="0.648054" stop-color="#010101"/>
</linearGradient>
</defs>
</svg>
