<svg width="12" height="12" viewBox="0 0 12 12" fill="none" xmlns="http://www.w3.org/2000/svg">
<path fill-rule="evenodd" clip-rule="evenodd" d="M8.43926 7.23041L7.42668 6.76401C7.33463 6.72105 7.23031 6.73332 7.15053 6.78855L6.75163 7.07699C6.62889 7.1629 6.46934 7.17518 6.34046 7.10767C6.17477 7.02176 4.99649 5.83734 4.90444 5.67165C4.83693 5.54277 4.84307 5.37708 4.93512 5.26048L5.22355 4.86158C5.27879 4.7818 5.29106 4.67748 5.2481 4.58542L4.7817 3.57284C4.72647 3.45624 4.60987 3.37646 4.47486 3.37646H4.13733C4.09437 3.37646 4.05142 3.3826 4.0146 3.40101C3.38864 3.67103 3.42546 4.45041 3.42546 4.45041C3.42546 5.60414 4.38281 6.67196 4.83693 7.11381C5.23583 7.53725 6.35274 8.59279 7.56783 8.59279C7.56783 8.59279 8.34721 8.62961 8.61723 8.00365C8.63564 7.96683 8.64178 7.92387 8.64178 7.88091V7.54339C8.62951 7.40224 8.55587 7.28564 8.43926 7.23041Z" fill="#24B9BA"/>
<path fill-rule="evenodd" clip-rule="evenodd" d="M0.209839 11.7902L1.21628 8.64814C0.737608 7.80125 0.485997 6.8439 0.485997 5.862C0.485997 2.74448 3.02052 0.209961 6.13804 0.209961C9.25556 0.209961 11.7901 2.74448 11.7901 5.862C11.7901 8.97953 9.25556 11.514 6.13804 11.514C5.16228 11.514 4.20493 11.2624 3.35805 10.7838L0.209839 11.7902ZM3.48692 9.67913L3.6833 9.80186C4.41972 10.2621 5.26661 10.5015 6.1319 10.5015C8.69097 10.5015 10.7775 8.42107 10.7775 5.85587C10.7775 3.2968 8.69711 1.21027 6.1319 1.21027C3.57284 1.21027 1.4863 3.29066 1.4863 5.85587C1.4863 6.7273 1.73178 7.57419 2.18591 8.31061L2.30864 8.50699L1.75633 10.2253L3.48692 9.67913Z" fill="#24B9BA"/>
</svg>
