<svg width="301" height="509" viewBox="0 0 301 509" fill="none" xmlns="http://www.w3.org/2000/svg">
<path fill-rule="evenodd" clip-rule="evenodd" d="M-118.214 434.534C-89.5264 463.801 -47.4358 469.604 -8.60147 480.101C36.0203 492.162 83.6908 517.474 124.038 500.015C164.955 482.31 176.175 432.244 194.909 392.04C214.363 350.289 254.168 307.172 234.825 262.257C215.042 216.321 147.508 218.446 107.02 187.961C73.1396 162.449 59.5967 110.555 19.3197 99.9867C-21.5625 89.2596 -56.3791 120.321 -93.7894 135.27C-136.745 152.434 -200.477 149.988 -215.316 193.743C-230.357 238.093 -177.241 281.104 -158.777 326.891C-144.054 363.4 -146.2 405.983 -118.214 434.534Z" fill="url(#paint0_linear)" fill-opacity="0.5"/>
<path fill-rule="evenodd" clip-rule="evenodd" d="M3.72785 362.05C16.1718 374.745 34.4297 377.263 51.2752 381.816C70.6311 387.048 91.3095 398.027 108.811 390.454C126.56 382.774 131.427 361.057 139.553 343.617C147.992 325.506 165.259 306.803 156.868 287.32C148.287 267.394 118.992 268.316 101.429 255.092C86.7326 244.026 80.858 221.515 63.3868 216.931C45.653 212.278 30.5503 225.752 14.3226 232.236C-4.31063 239.682 -31.9561 238.621 -38.3931 257.6C-44.9175 276.838 -21.8768 295.496 -13.8675 315.357C-7.48099 331.194 -8.41184 349.665 3.72785 362.05Z" stroke="white" stroke-opacity="0.5"/>
<path fill-rule="evenodd" clip-rule="evenodd" d="M0.469501 367.734C12.3886 379.894 29.8765 382.304 46.0116 386.666C64.5511 391.677 84.3574 402.194 101.121 394.94C118.121 387.583 122.783 366.782 130.567 350.078C138.65 332.731 155.188 314.817 147.151 296.155C138.932 277.07 110.872 277.953 94.0505 265.286C79.9736 254.687 74.3467 233.126 57.6124 228.735C40.6265 224.278 26.1608 237.184 10.6174 243.394C-7.22995 250.526 -33.7095 249.51 -39.875 267.689C-46.1243 286.116 -24.0553 303.986 -16.3838 323.01C-10.2666 338.179 -11.1582 355.871 0.469501 367.734Z" stroke="white" stroke-opacity="0.5"/>
<path fill-rule="evenodd" clip-rule="evenodd" d="M-7.95384 368.755C3.96531 380.915 21.4532 383.326 37.5882 387.687C56.1278 392.698 75.9341 403.215 92.6978 395.961C109.698 388.605 114.36 367.803 122.143 351.099C130.226 333.752 146.765 315.838 138.728 297.176C130.508 278.091 102.449 278.974 85.6272 266.308C71.5503 255.708 65.9234 234.147 49.189 229.756C32.2031 225.299 17.7374 238.205 2.19408 244.415C-15.6533 251.547 -42.1329 250.531 -48.2983 268.71C-54.5476 287.137 -32.4787 305.007 -24.8071 324.031C-18.6899 339.2 -19.5815 356.892 -7.95384 368.755Z" stroke="white" stroke-opacity="0.5"/>
<path fill-rule="evenodd" clip-rule="evenodd" d="M4.60448 379.965C15.8594 391.448 32.3729 393.724 47.6088 397.843C65.1152 402.575 83.8179 412.505 99.6475 405.655C115.7 398.709 120.102 379.067 127.452 363.293C135.085 346.913 150.701 329.997 143.113 312.376C135.351 294.353 108.855 295.187 92.9708 283.227C79.6783 273.218 74.365 252.858 58.5631 248.712C42.5238 244.503 28.8641 256.69 14.1869 262.555C-2.66593 269.289 -27.67 268.329 -33.4919 285.496C-39.3929 302.895 -18.5537 319.77 -11.3096 337.734C-5.53337 352.057 -6.37529 368.764 4.60448 379.965Z" stroke="white" stroke-opacity="0.5"/>
<path fill-rule="evenodd" clip-rule="evenodd" d="M4.38988 384.248C15.6448 395.731 32.1583 398.007 47.3942 402.126C64.9006 406.858 83.6033 416.788 99.4329 409.938C115.486 402.992 119.888 383.35 127.237 367.577C134.87 351.196 150.487 334.28 142.898 316.659C135.137 298.636 108.641 299.47 92.7562 287.51C79.4637 277.501 74.1504 257.141 58.3485 252.995C42.3092 248.787 28.6495 260.973 13.9723 266.838C-2.88053 273.572 -27.8846 272.612 -33.7065 289.779C-39.6075 307.178 -18.7683 324.053 -11.5242 342.017C-5.74797 356.34 -6.58989 373.047 4.38988 384.248Z" stroke="white" stroke-opacity="0.5"/>
<path fill-rule="evenodd" clip-rule="evenodd" d="M2.17138 386.765C13.4263 398.247 29.9398 400.524 45.1757 404.642C62.6821 409.374 81.3847 419.304 97.2143 412.455C113.267 405.509 117.669 385.866 125.019 370.093C132.652 353.713 148.268 336.796 140.679 319.175C132.918 301.153 106.422 301.987 90.5377 290.026C77.2452 280.017 71.9319 259.658 56.13 255.512C40.0907 251.303 26.431 263.489 11.7538 269.354C-5.09903 276.088 -30.1031 275.129 -35.925 292.295C-41.826 309.695 -20.9868 326.569 -13.7428 344.533C-7.96648 358.857 -8.80839 375.563 2.17138 386.765Z" stroke="white" stroke-opacity="0.5"/>
<path fill-rule="evenodd" clip-rule="evenodd" d="M-6.80488 383.493C3.62599 394.135 18.9303 396.245 33.0506 400.062C49.2753 404.447 66.6084 413.65 81.279 407.302C96.1565 400.865 100.236 382.661 107.048 368.042C114.121 352.862 128.595 337.184 121.562 320.853C114.368 304.15 89.8124 304.923 75.0912 293.838C62.772 284.562 57.8477 265.693 43.2029 261.851C28.3379 257.95 15.6785 269.244 2.07592 274.68C-13.543 280.921 -36.7162 280.031 -42.1118 295.941C-47.5808 312.067 -28.2674 327.706 -21.5538 344.354C-16.2004 357.629 -16.9807 373.112 -6.80488 383.493Z" stroke="white" stroke-opacity="0.5"/>
<path fill-rule="evenodd" clip-rule="evenodd" d="M-10.7741 384.466C-0.343249 395.108 14.961 397.218 29.0814 401.034C45.306 405.42 62.6392 414.623 77.3098 408.275C92.1873 401.838 96.2668 383.634 103.078 369.015C110.152 353.834 124.625 338.157 117.592 321.826C110.399 305.123 85.8432 305.896 71.1219 294.811C58.8028 285.535 53.8785 266.666 39.2336 262.823C24.3687 258.923 11.7092 270.217 -1.89332 275.653C-17.5122 281.894 -40.6854 281.004 -46.081 296.914C-51.55 313.039 -32.2367 328.678 -25.523 345.327C-20.1697 358.602 -20.9499 374.085 -10.7741 384.466Z" stroke="white" stroke-opacity="0.5"/>
<path fill-rule="evenodd" clip-rule="evenodd" d="M-16.8923 381.059C-6.46141 391.701 8.84288 393.811 22.9632 397.628C39.1878 402.013 56.521 411.217 71.1916 404.869C86.0691 398.431 90.1486 380.227 96.9603 365.608C104.034 350.428 118.507 334.75 111.474 318.419C104.281 301.716 79.725 302.489 65.0038 291.404C52.6846 282.128 47.7603 263.259 33.1155 259.417C18.2505 255.516 5.59106 266.811 -8.01149 272.246C-23.6304 278.487 -46.8036 277.598 -52.1992 293.507C-57.6682 309.633 -38.3548 325.272 -31.6412 341.92C-26.2878 355.195 -27.0681 370.678 -16.8923 381.059Z" stroke="white" stroke-opacity="0.5"/>
<path fill-rule="evenodd" clip-rule="evenodd" d="M-16.3868 379.709C-6.88261 389.406 7.06205 391.328 19.9279 394.806C34.7112 398.802 50.5045 407.187 63.8717 401.403C77.4275 395.537 81.1446 378.951 87.3511 365.631C93.7964 351.799 106.984 337.514 100.576 322.634C94.0215 307.415 71.647 308.119 58.2336 298.019C47.0089 289.567 42.5221 272.375 29.1783 268.873C15.6339 265.319 4.09912 275.61 -8.29497 280.563C-22.5263 286.249 -43.6408 285.439 -48.557 299.935C-53.5402 314.628 -35.9426 328.878 -29.8254 344.047C-24.9477 356.143 -25.6586 370.25 -16.3868 379.709Z" stroke="white" stroke-opacity="0.5"/>
<path fill-rule="evenodd" clip-rule="evenodd" d="M-21.348 381.298C-11.8438 390.994 2.10087 392.917 14.9667 396.394C29.75 400.39 45.5433 408.776 58.9105 402.992C72.4663 397.126 76.1834 380.539 82.3899 367.22C88.8352 353.388 102.023 339.103 95.6144 324.223C89.0603 309.004 66.6859 309.708 53.2724 299.608C42.0477 291.156 37.5609 273.963 24.2171 270.462C10.6727 266.908 -0.862058 277.199 -13.2562 282.151C-27.4874 287.838 -48.602 287.028 -53.5182 301.524C-58.5013 316.217 -40.9038 330.467 -34.7866 345.636C-29.9088 357.731 -30.6198 371.839 -21.348 381.298Z" stroke="white" stroke-opacity="0.5"/>
<path fill-rule="evenodd" clip-rule="evenodd" d="M-28.4652 373.035C-18.961 382.731 -5.01632 384.654 7.84955 388.131C22.6328 392.127 38.4261 400.513 51.7933 394.729C65.3491 388.863 69.0662 372.276 75.2728 358.957C81.718 345.125 94.9055 330.84 88.4972 315.959C81.9431 300.741 59.5687 301.445 46.1552 291.345C34.9305 282.893 30.4437 265.7 17.0999 262.199C3.55555 258.645 -7.97925 268.936 -20.3733 273.888C-34.6046 279.575 -55.7192 278.765 -60.6354 293.261C-65.6185 307.954 -48.021 322.203 -41.9038 337.373C-37.026 349.468 -37.737 363.576 -28.4652 373.035Z" stroke="white" stroke-opacity="0.5"/>
<path fill-rule="evenodd" clip-rule="evenodd" d="M-22.7811 370.214C-13.847 379.328 -0.738901 381.136 11.3552 384.405C25.2516 388.161 40.0975 396.043 52.6628 390.606C65.4054 385.092 68.8995 369.501 74.7337 356.98C80.7924 343.978 93.1887 330.55 87.1649 316.562C81.0039 302.256 59.9717 302.918 47.3629 293.424C36.8116 285.479 32.5939 269.318 20.0506 266.027C7.31876 262.686 -3.52408 272.359 -15.1747 277.015C-28.5522 282.36 -48.4001 281.599 -53.0215 295.225C-57.7056 309.037 -41.1638 322.432 -35.4135 336.691C-30.8284 348.061 -31.4967 361.322 -22.7811 370.214Z" stroke="white" stroke-opacity="0.5"/>
<path fill-rule="evenodd" clip-rule="evenodd" d="M-21.6168 365.277C-12.6827 374.392 0.425406 376.199 12.5195 379.468C26.4159 383.224 41.2618 391.107 53.8271 385.67C66.5697 380.156 70.0638 364.564 75.898 352.044C81.9567 339.041 94.353 325.613 88.3292 311.626C82.1682 297.32 61.136 297.982 48.5273 288.488C37.9759 280.543 33.7582 264.382 21.2149 261.09C8.48307 257.75 -2.35977 267.423 -14.0104 272.079C-27.3879 277.424 -47.2358 276.662 -51.8572 290.289C-56.5413 304.1 -39.9995 317.495 -34.2492 331.754C-29.6641 343.124 -30.3324 356.386 -21.6168 365.277Z" stroke="white" stroke-opacity="0.5"/>
<path fill-rule="evenodd" clip-rule="evenodd" d="M-18.0604 357.977C-9.12633 367.092 3.9818 368.899 16.0759 372.168C29.9723 375.924 44.8182 383.807 57.3835 378.37C70.1261 372.856 73.6202 357.264 79.4544 344.743C85.5131 331.741 97.9094 318.313 91.8856 304.326C85.7246 290.02 64.6924 290.682 52.0837 281.188C41.5323 273.243 37.3146 257.081 24.7713 253.79C12.0395 250.449 1.19663 260.123 -10.454 264.778C-23.8315 270.124 -43.6794 269.362 -48.3008 282.988C-52.9849 296.8 -36.4431 310.195 -30.6928 324.454C-26.1077 335.824 -26.776 349.085 -18.0604 357.977Z" stroke="white" stroke-opacity="0.5"/>
<path fill-rule="evenodd" clip-rule="evenodd" d="M-12.0981 355.926C-3.86907 364.321 8.20468 365.986 19.3444 368.997C32.1442 372.457 45.8186 379.718 57.3924 374.709C69.1294 369.631 72.3478 355.269 77.7217 343.737C83.3022 331.76 94.7204 319.392 89.1718 306.508C83.4971 293.331 64.1245 293.941 52.5107 285.196C42.792 277.878 38.9071 262.992 27.3536 259.961C15.6265 256.884 5.63929 265.794 -5.09194 270.082C-17.4139 275.005 -35.6955 274.304 -39.9522 286.855C-44.2667 299.577 -29.0302 311.915 -23.7337 325.049C-19.5104 335.521 -20.126 347.736 -12.0981 355.926Z" stroke="white" stroke-opacity="0.5"/>
<path fill-rule="evenodd" clip-rule="evenodd" d="M-18.2827 359.915C-10.0536 368.31 2.02011 369.975 13.1598 372.986C25.9596 376.446 39.634 383.707 51.2078 378.698C62.9449 373.62 66.1632 359.258 71.5371 347.726C77.1176 335.749 88.5358 323.381 82.9873 310.497C77.3125 297.32 57.94 297.93 46.3262 289.185C36.6074 281.867 32.7226 266.981 21.1691 263.95C9.44193 260.873 -0.545284 269.783 -11.2765 274.071C-23.5984 278.994 -41.8801 278.293 -46.1368 290.844C-50.4513 303.566 -35.2148 315.904 -29.9183 329.038C-25.695 339.51 -26.3105 351.725 -18.2827 359.915Z" stroke="white" stroke-opacity="0.5"/>
<path fill-rule="evenodd" clip-rule="evenodd" d="M-24.5871 363.798C-16.3581 372.194 -4.28433 373.858 6.85537 376.869C19.6552 380.329 33.3296 387.59 44.9034 382.581C56.6404 377.503 59.8588 363.141 65.2327 351.609C70.8132 339.632 82.2313 327.264 76.6828 314.38C71.008 301.203 51.6355 301.813 40.0217 293.068C30.303 285.75 26.4181 270.864 14.8646 267.833C3.13749 264.756 -6.84973 273.666 -17.5809 277.954C-29.9029 282.877 -48.1845 282.176 -52.4412 294.727C-56.7558 307.449 -41.5192 319.787 -36.2227 332.921C-31.9994 343.393 -32.615 355.608 -24.5871 363.798Z" stroke="white" stroke-opacity="0.5"/>
<path fill-rule="evenodd" clip-rule="evenodd" d="M-25.2281 369.335C-17.6672 377.048 -6.57369 378.578 3.6616 381.344C15.4222 384.523 27.9864 391.195 38.6205 386.593C49.4047 381.927 52.3618 368.731 57.2993 358.135C62.4268 347.131 72.9179 335.767 67.8199 323.929C62.6058 311.822 44.8061 312.382 34.1352 304.347C25.2055 297.623 21.6361 283.946 11.0206 281.16C0.245562 278.333 -8.93081 286.52 -18.7908 290.46C-30.1123 294.984 -46.9097 294.339 -50.8208 305.871C-54.785 317.56 -40.7855 328.896 -35.9191 340.964C-32.0386 350.587 -32.6042 361.81 -25.2281 369.335Z" stroke="white" stroke-opacity="0.5"/>
<path fill-rule="evenodd" clip-rule="evenodd" d="M-24.3065 358.718C-16.7456 366.432 -5.65206 367.961 4.58323 370.728C16.3439 373.906 28.908 380.578 39.5422 375.976C50.3263 371.31 53.2834 358.114 58.221 347.518C63.3484 336.514 73.8395 325.15 68.7415 313.312C63.5275 301.205 45.7278 301.765 35.0569 293.73C26.1272 287.006 22.5577 273.329 11.9422 270.544C1.16719 267.716 -8.00918 275.903 -17.8691 279.843C-29.1907 284.367 -45.9881 283.722 -49.8992 295.254C-53.8634 306.943 -39.8639 318.279 -34.9974 330.347C-31.117 339.97 -31.6826 351.193 -24.3065 358.718Z" stroke="white" stroke-opacity="0.5"/>
<path fill-rule="evenodd" clip-rule="evenodd" d="M-22.5702 351.304C-15.0092 359.017 -3.91573 360.547 6.31956 363.313C18.0802 366.492 30.6444 373.163 41.2785 368.562C52.0626 363.896 55.0197 350.7 59.9573 340.104C65.0847 329.1 75.5759 317.736 70.4778 305.898C65.2638 293.791 47.4641 294.351 36.7932 286.316C27.8635 279.592 24.2941 265.915 13.6786 263.129C2.90352 260.302 -6.27285 268.489 -16.1328 272.429C-27.4544 276.953 -44.2518 276.308 -48.1628 287.84C-52.1271 299.529 -38.1276 310.865 -33.2611 322.933C-29.3807 332.555 -29.9463 343.779 -22.5702 351.304Z" stroke="white" stroke-opacity="0.5"/>
<path fill-rule="evenodd" clip-rule="evenodd" d="M-16.3086 350.014C-9.45366 357.007 0.604051 358.394 9.88368 360.902C20.5462 363.784 31.9373 369.833 41.5785 365.661C51.3558 361.43 54.0367 349.467 58.5133 339.86C63.162 329.883 72.6736 319.58 68.0515 308.848C63.3243 297.871 47.1866 298.379 37.512 291.094C29.4161 284.998 26.1799 272.598 16.5556 270.072C6.7866 267.509 -1.53298 274.931 -10.4723 278.503C-20.7368 282.605 -35.9658 282.021 -39.5117 292.476C-43.1058 303.073 -30.4135 313.351 -26.0014 324.292C-22.4832 333.016 -22.996 343.191 -16.3086 350.014Z" stroke="white" stroke-opacity="0.5"/>
<path fill-rule="evenodd" clip-rule="evenodd" d="M-12.9024 342.582C-6.04741 349.575 4.0103 350.962 13.2899 353.47C23.9525 356.352 35.3436 362.4 44.9848 358.229C54.762 353.998 57.443 342.034 61.9195 332.427C66.5682 322.451 76.0798 312.148 71.4578 301.415C66.7306 290.439 50.5928 290.947 40.9183 283.662C32.8223 277.566 29.5862 265.165 19.9618 262.64C10.1928 260.077 1.87327 267.499 -7.06608 271.071C-17.3305 275.173 -32.5596 274.588 -36.1055 285.044C-39.6996 295.641 -27.0072 305.919 -22.5951 316.86C-19.077 325.584 -19.5898 335.759 -12.9024 342.582Z" stroke="white" stroke-opacity="0.5"/>
<path fill-rule="evenodd" clip-rule="evenodd" d="M-8.01977 338.558C-1.7405 344.964 7.47251 346.235 15.9728 348.532C25.7398 351.172 36.1742 356.713 45.0057 352.891C53.9618 349.016 56.4177 338.057 60.5182 329.257C64.7765 320.118 73.4893 310.68 69.2554 300.849C64.9252 290.794 50.1428 291.26 41.2808 284.587C33.8647 279.003 30.9004 267.644 22.0844 265.331C13.1358 262.983 5.51496 269.782 -2.67362 273.054C-12.076 276.811 -26.026 276.275 -29.2741 285.853C-32.5664 295.56 -20.94 304.975 -16.8984 314.997C-13.6758 322.988 -14.1455 332.309 -8.01977 338.558Z" stroke="white" stroke-opacity="0.5"/>
<path fill-rule="evenodd" clip-rule="evenodd" d="M-12.3589 343.677C-6.07961 350.083 3.1334 351.353 11.6337 353.651C21.4007 356.291 31.8351 361.831 40.6666 358.01C49.6227 354.135 52.0786 343.176 56.1791 334.376C60.4374 325.237 69.1502 315.799 64.9163 305.968C60.5861 295.913 45.8037 296.379 36.9417 289.706C29.5256 284.122 26.5613 272.763 17.7452 270.45C8.79671 268.102 1.17585 274.901 -7.01273 278.173C-16.4151 281.93 -30.3652 281.394 -33.6133 290.971C-36.9055 300.679 -25.2791 310.094 -21.2375 320.116C-18.0149 328.107 -18.4846 337.428 -12.3589 343.677Z" stroke="white" stroke-opacity="0.5"/>
<path fill-rule="evenodd" clip-rule="evenodd" d="M-17.9238 346.722C-11.6446 353.128 -2.43154 354.398 6.06874 356.696C15.8358 359.336 26.2702 364.876 35.1017 361.054C44.0578 357.179 46.5136 346.22 50.6142 337.42C54.8725 328.282 63.5852 318.844 59.3514 309.013C55.0212 298.958 40.2388 299.423 31.3767 292.75C23.9607 287.166 20.9963 275.807 12.1803 273.494C3.23177 271.146 -4.38909 277.945 -12.5777 281.217C-21.9801 284.974 -35.9301 284.439 -39.1782 294.016C-42.4705 303.723 -30.844 313.138 -26.8025 323.16C-23.5798 331.151 -24.0496 340.472 -17.9238 346.722Z" stroke="white" stroke-opacity="0.5"/>
<path fill-rule="evenodd" clip-rule="evenodd" d="M-24.863 348.057C-18.5838 354.463 -9.37075 355.734 -0.87047 358.031C8.89659 360.671 19.331 366.212 28.1625 362.39C37.1186 358.515 39.5744 347.556 43.675 338.756C47.9333 329.617 56.646 320.179 52.4122 310.348C48.082 300.293 33.2995 300.759 24.4375 294.086C17.0215 288.502 14.0571 277.143 5.24109 274.83C-3.70744 272.482 -11.3283 279.281 -19.5169 282.553C-28.9193 286.31 -42.8693 285.774 -46.1174 295.352C-49.4097 305.059 -37.7832 314.474 -33.7417 324.496C-30.5191 332.487 -30.9888 341.808 -24.863 348.057Z" stroke="white" stroke-opacity="0.5"/>
<path fill-rule="evenodd" clip-rule="evenodd" d="M-24.0454 352.908C-18.5144 358.551 -10.3992 359.67 -2.91174 361.694C5.69152 364.019 14.8826 368.899 22.6618 365.533C30.5507 362.12 32.7139 352.467 36.3259 344.715C40.0768 336.666 47.7513 328.352 44.022 319.693C40.2077 310.836 27.1867 311.246 19.3806 305.368C12.8483 300.449 10.2371 290.444 2.47159 288.406C-5.41067 286.338 -12.1235 292.327 -19.3363 295.209C-27.6184 298.518 -39.9062 298.047 -42.7672 306.483C-45.6672 315.034 -35.4261 323.326 -31.8662 332.154C-29.0275 339.193 -29.4413 347.403 -24.0454 352.908Z" stroke="white" stroke-opacity="0.5"/>
<path fill-rule="evenodd" clip-rule="evenodd" d="M-22.6277 347.201C-17.0967 352.844 -8.98144 353.963 -1.49401 355.987C7.10924 358.312 16.3003 363.192 24.0795 359.826C31.9684 356.413 34.1316 346.76 37.7436 339.008C41.4945 330.958 49.1691 322.645 45.4397 313.985C41.6255 305.129 28.6044 305.539 20.7984 299.661C14.266 294.742 11.6549 284.737 3.88931 282.699C-3.99295 280.631 -10.7057 286.62 -17.9186 289.502C-26.2006 292.811 -38.4884 292.34 -41.3495 300.776C-44.2495 309.327 -34.0084 317.619 -30.4484 326.447C-27.6098 333.486 -28.0235 341.696 -22.6277 347.201Z" stroke="white" stroke-opacity="0.5"/>
<path fill-rule="evenodd" clip-rule="evenodd" d="M-21.584 341.661C-16.053 347.304 -7.93773 348.423 -0.450313 350.447C8.15294 352.772 17.344 357.653 25.1232 354.286C33.0121 350.873 35.1753 341.22 38.7873 333.468C42.5382 325.419 50.2128 317.105 46.4834 308.446C42.6692 299.589 29.6481 299.999 21.8421 294.121C15.3097 289.202 12.6986 279.197 4.93302 277.159C-2.94925 275.091 -9.66203 281.08 -16.8749 283.962C-25.1569 287.271 -37.4447 286.8 -40.3058 295.236C-43.2058 303.787 -32.9647 312.08 -29.4047 320.907C-26.5661 327.947 -26.9798 336.157 -21.584 341.661Z" stroke="white" stroke-opacity="0.5"/>
<path fill-rule="evenodd" clip-rule="evenodd" d="M-12.8262 342.717C-8.69963 346.927 -2.64503 347.762 2.94118 349.272C9.35988 351.007 16.2171 354.648 22.021 352.137C27.9068 349.59 29.5207 342.388 32.2155 336.605C35.014 330.599 40.7398 324.397 37.9574 317.936C35.1117 311.328 25.397 311.634 19.573 307.249C14.6994 303.579 12.7513 296.114 6.95757 294.594C1.07678 293.051 -3.93149 297.519 -9.31285 299.669C-15.4919 302.138 -24.6596 301.786 -26.7942 308.08C-28.9578 314.46 -21.3171 320.647 -18.6611 327.233C-16.5432 332.485 -16.8519 338.61 -12.8262 342.717Z" stroke="white" stroke-opacity="0.5"/>
<path fill-rule="evenodd" clip-rule="evenodd" d="M-12.1541 335.359C-8.02751 339.569 -1.97291 340.404 3.6133 341.914C10.032 343.649 16.8893 347.29 22.6932 344.778C28.5789 342.231 30.1928 335.03 32.8876 329.246C35.6861 323.241 41.4119 317.038 38.6295 310.577C35.7838 303.97 26.0691 304.275 20.2452 299.89C15.3715 296.22 13.4234 288.756 7.62969 287.235C1.7489 285.692 -3.25937 290.16 -8.64073 292.311C-14.8198 294.78 -23.9875 294.428 -26.122 300.722C-28.2856 307.102 -20.645 313.289 -17.989 319.875C-15.8711 325.127 -16.1798 331.252 -12.1541 335.359Z" stroke="white" stroke-opacity="0.5"/>
<path fill-rule="evenodd" clip-rule="evenodd" d="M-10.5125 325.874C-6.38591 330.084 -0.331307 330.919 5.2549 332.429C11.6736 334.164 18.5309 337.805 24.3348 335.293C30.2205 332.746 31.8344 325.545 34.5292 319.761C37.3277 313.756 43.0535 307.553 40.2711 301.092C37.4254 294.485 27.7107 294.79 21.8868 290.405C17.0131 286.735 15.065 279.271 9.27129 277.75C3.3905 276.207 -1.61777 280.675 -6.99913 282.826C-13.1782 285.295 -22.3459 284.943 -24.4804 291.237C-26.644 297.616 -19.0034 303.804 -16.3474 310.39C-14.2295 315.642 -14.5382 321.767 -10.5125 325.874Z" stroke="white" stroke-opacity="0.5"/>
<path fill-rule="evenodd" clip-rule="evenodd" d="M-10.4783 320.935C-6.35173 325.145 -0.297127 325.979 5.28908 327.489C11.7078 329.224 18.565 332.865 24.3689 330.354C30.2547 327.807 31.8686 320.605 34.5634 314.822C37.3619 308.816 43.0877 302.614 40.3053 296.153C37.4596 289.545 27.7449 289.851 21.9209 285.466C17.0473 281.796 15.0992 274.331 9.30547 272.811C3.42468 271.268 -1.58359 275.736 -6.96495 277.886C-13.144 280.355 -22.3117 280.004 -24.4463 286.298C-26.6099 292.677 -18.9692 298.864 -16.3132 305.45C-14.1953 310.702 -14.504 316.828 -10.4783 320.935Z" stroke="white" stroke-opacity="0.5"/>
<path fill-rule="evenodd" clip-rule="evenodd" d="M-6.86861 322.794C-3.54975 326.18 1.31971 326.851 5.81246 328.066C10.9747 329.461 16.4898 332.389 21.1576 330.369C25.8912 328.321 27.1892 322.529 29.3566 317.878C31.6072 313.048 36.2123 308.059 33.9745 302.863C31.6858 297.549 23.8727 297.795 19.1888 294.268C15.2691 291.316 13.7023 285.313 9.04267 284.09C4.313 282.849 0.285059 286.443 -4.04295 288.172C-9.0125 290.158 -16.3857 289.875 -18.1024 294.937C-19.8425 300.068 -13.6975 305.044 -11.5613 310.341C-9.85805 314.564 -10.1063 319.491 -6.86861 322.794Z" stroke="white" stroke-opacity="0.5"/>
<path fill-rule="evenodd" clip-rule="evenodd" d="M-10.4055 327.627C-7.08662 331.013 -2.21716 331.684 2.27559 332.898C7.43788 334.294 12.9529 337.222 17.6207 335.202C22.3544 333.154 23.6524 327.362 25.8197 322.711C28.0704 317.88 32.6754 312.892 30.4377 307.696C28.149 302.382 20.3359 302.628 15.6519 299.101C11.7322 296.149 10.1654 290.146 5.5058 288.923C0.776133 287.682 -3.25181 291.275 -7.57981 293.005C-12.5494 294.991 -19.9225 294.708 -21.6393 299.77C-23.3794 304.9 -17.2343 309.876 -15.0982 315.174C-13.3949 319.397 -13.6432 324.324 -10.4055 327.627Z" stroke="white" stroke-opacity="0.5"/>
<path fill-rule="evenodd" clip-rule="evenodd" d="M-12.8703 330.422C-9.55146 333.808 -4.682 334.48 -0.189253 335.694C4.97304 337.089 10.488 340.018 15.1559 337.998C19.8895 335.95 21.1875 330.158 23.3549 325.506C25.6055 320.676 30.2106 315.688 27.9728 310.492C25.6841 305.177 17.871 305.423 13.1871 301.896C9.26739 298.945 7.7006 292.941 3.04096 291.719C-1.68871 290.478 -5.71665 294.071 -10.0447 295.801C-15.0142 297.786 -22.3874 297.503 -24.1041 302.565C-25.8442 307.696 -19.6992 312.672 -17.5631 317.969C-15.8598 322.193 -16.108 327.119 -12.8703 330.422Z" stroke="white" stroke-opacity="0.5"/>
<path fill-rule="evenodd" clip-rule="evenodd" d="M-11.3499 335.823C-8.44024 338.792 -4.17121 339.38 -0.232441 340.445C4.29332 341.668 9.12829 344.235 13.2205 342.465C17.3705 340.669 18.5085 335.591 20.4086 331.513C22.3817 327.279 26.4189 322.906 24.4571 318.35C22.4506 313.691 15.6009 313.907 11.4945 310.815C8.05815 308.227 6.68455 302.964 2.59947 301.892C-1.54701 300.804 -5.07828 303.954 -8.87262 305.47C-13.2294 307.211 -19.6934 306.963 -21.1985 311.401C-22.724 315.899 -17.3367 320.262 -15.464 324.906C-13.9707 328.609 -14.1883 332.927 -11.3499 335.823Z" stroke="white" stroke-opacity="0.5"/>
<path fill-rule="evenodd" clip-rule="evenodd" d="M-10.6824 331.94C-7.77276 334.908 -3.50373 335.497 0.435039 336.561C4.9608 337.785 9.79577 340.352 13.888 338.581C18.038 336.785 19.176 331.707 21.076 327.63C23.0492 323.395 27.0864 319.022 25.1246 314.466C23.1181 309.807 16.2684 310.023 12.162 306.931C8.72563 304.343 7.35203 299.08 3.26695 298.008C-0.879527 296.92 -4.4108 300.071 -8.20514 301.587C-12.5619 303.328 -19.0259 303.08 -20.531 307.517C-22.0565 312.016 -16.6692 316.378 -14.7965 321.022C-13.3032 324.725 -13.5209 329.044 -10.6824 331.94Z" stroke="white" stroke-opacity="0.5"/>
<path fill-rule="evenodd" clip-rule="evenodd" d="M-10.9421 326.245C-8.03253 329.213 -3.7635 329.801 0.175274 330.866C4.70103 332.089 9.53601 334.657 13.6283 332.886C17.7782 331.09 18.9162 326.012 20.8163 321.935C22.7894 317.7 26.8267 313.327 24.8648 308.771C22.8583 304.112 16.0086 304.328 11.9022 301.236C8.46586 298.648 7.09226 293.385 3.00718 292.313C-1.13929 291.225 -4.67057 294.376 -8.4649 295.892C-12.8217 297.633 -19.2857 297.385 -20.7908 301.822C-22.3163 306.321 -16.929 310.683 -15.0563 315.327C-13.563 319.03 -13.7806 323.349 -10.9421 326.245Z" stroke="white" stroke-opacity="0.5"/>
<path fill-rule="evenodd" clip-rule="evenodd" d="M-11.4954 319.793C-8.58575 322.762 -4.31672 323.35 -0.377949 324.415C4.14781 325.638 8.98279 328.206 13.075 326.435C17.225 324.639 18.363 319.561 20.2631 315.483C22.2362 311.249 26.2734 306.876 24.3116 302.32C22.3051 297.661 15.4554 297.877 11.349 294.785C7.91264 292.197 6.53904 286.934 2.45396 285.862C-1.69252 284.774 -5.22379 287.924 -9.01813 289.441C-13.3749 291.181 -19.8389 290.933 -21.344 295.371C-22.8695 299.869 -17.4822 304.232 -15.6095 308.876C-14.1162 312.579 -14.3338 316.898 -11.4954 319.793Z" stroke="white" stroke-opacity="0.5"/>
<path fill-rule="evenodd" clip-rule="evenodd" d="M-11.5083 313.819C-8.59869 316.787 -4.32966 317.376 -0.390889 318.44C4.13487 319.664 8.96985 322.231 13.0621 320.46C17.2121 318.664 18.35 313.586 20.2501 309.509C22.2233 305.274 26.2605 300.901 24.2987 296.345C22.2922 291.686 15.4425 291.902 11.3361 288.81C7.8997 286.222 6.5261 280.959 2.44102 279.887C-1.70545 278.799 -5.23673 281.95 -9.03107 283.466C-13.3878 285.207 -19.8519 284.959 -21.3569 289.396C-22.8825 293.895 -17.4951 298.257 -15.6224 302.901C-14.1291 306.604 -14.3468 310.923 -11.5083 313.819Z" stroke="white" stroke-opacity="0.5"/>
<path fill-rule="evenodd" clip-rule="evenodd" d="M-7.21601 311.254C-4.84206 313.676 -1.35897 314.156 1.85466 315.025C5.5472 316.023 9.49204 318.117 12.8309 316.673C16.2168 315.208 17.1453 311.065 18.6956 307.738C20.3055 304.283 23.5994 300.715 21.9988 296.998C20.3617 293.196 14.773 293.372 11.4226 290.85C8.61891 288.738 7.4982 284.444 4.1652 283.57C0.782107 282.682 -2.09905 285.252 -5.19483 286.489C-8.74951 287.91 -14.0235 287.707 -15.2515 291.328C-16.4961 294.998 -12.1006 298.557 -10.5727 302.346C-9.35433 305.368 -9.53191 308.891 -7.21601 311.254Z" stroke="white" stroke-opacity="0.5"/>
<defs>
<linearGradient id="paint0_linear" x1="242.461" y1="204.126" x2="-8.76427" y2="235.152" gradientUnits="userSpaceOnUse">
<stop offset="0.273751" stop-color="#008F90"/>
<stop offset="1" stop-color="#010101"/>
</linearGradient>
</defs>
</svg>
