<svg width="632" height="1008" viewBox="0 0 632 1008" fill="none" xmlns="http://www.w3.org/2000/svg">
<path d="M403.5 905.5C373.5 943.5 390 927 316 970C254.413 1005.79 218 958.737 218 895.5C218 832.263 260.763 820 324 820C378.5 823 445.5 852.3 403.5 905.5Z" fill="#014849"/>
<path d="M818.391 819.118C791.194 876.207 644.734 977.861 532.812 914.017C475.723 886.82 454.196 843.041 481.394 785.952C508.592 728.864 644.577 663.757 701.666 690.955C758.755 718.153 845.589 762.029 818.391 819.118Z" fill="#014849"/>
<path fill-rule="evenodd" clip-rule="evenodd" d="M654.99 -231.035C541.488 -239.029 443.162 -176.024 342.997 -128.243C227.905 -73.3405 82.1279 -39.6928 30.1526 67.0297C-22.5559 175.258 46.0214 295.913 80.8375 410.057C116.993 528.591 113.27 685.985 236.045 742.047C361.614 799.385 498.377 675.279 638.694 664.789C756.116 656.011 879.629 736.409 982.929 686.212C1087.78 635.26 1103.26 510.978 1153.72 414.519C1211.67 303.761 1348.91 195.602 1299.46 81.2235C1249.34 -34.7101 1059.71 -27.0174 937.167 -86.3938C839.45 -133.739 765.717 -223.236 654.99 -231.035Z" fill="url(#paint0_linear)" fill-opacity="0.5"/>
<path fill-rule="evenodd" clip-rule="evenodd" d="M534.119 131.19C484.885 127.723 442.233 155.053 398.784 175.779C348.86 199.594 285.625 214.19 263.079 260.484C240.216 307.431 269.963 359.768 285.065 409.281C300.748 460.699 299.134 528.972 352.391 553.291C406.86 578.163 466.184 524.328 527.051 519.778C577.985 515.97 631.563 550.845 676.372 529.071C721.855 506.969 728.567 453.058 750.458 411.217C775.595 363.172 835.126 316.255 813.676 266.641C791.935 216.351 709.679 219.688 656.521 193.932C614.134 173.395 582.15 134.573 534.119 131.19Z" stroke="white" stroke-opacity="0.5"/>
<path fill-rule="evenodd" clip-rule="evenodd" d="M530.468 113.971C483.31 110.65 442.457 136.827 400.84 156.68C353.021 179.491 292.454 193.471 270.859 237.812C248.959 282.779 277.452 332.909 291.917 380.334C306.939 429.583 305.393 494.977 356.404 518.27C408.575 542.093 465.398 490.529 523.697 486.171C572.484 482.524 623.802 515.928 666.721 495.072C710.286 473.902 716.714 422.265 737.683 382.188C761.76 336.17 818.779 291.232 798.234 243.709C777.41 195.541 698.624 198.737 647.708 174.067C607.108 154.396 576.473 117.212 530.468 113.971Z" stroke="white" stroke-opacity="0.5"/>
<path fill-rule="evenodd" clip-rule="evenodd" d="M546.137 96.9715C498.979 93.65 458.126 119.827 416.509 139.68C368.69 162.491 308.122 176.471 286.528 220.812C264.628 265.779 293.121 315.909 307.586 363.334C322.608 412.583 321.061 477.977 372.073 501.27C424.244 525.093 481.067 473.529 539.366 469.171C588.153 465.524 639.47 498.928 682.39 478.072C725.955 456.902 732.383 405.265 753.352 365.188C777.429 319.17 834.448 274.232 813.903 226.709C793.079 178.541 714.293 181.737 663.377 157.067C622.777 137.396 592.142 100.212 546.137 96.9715Z" stroke="white" stroke-opacity="0.5"/>
<path fill-rule="evenodd" clip-rule="evenodd" d="M499.391 96.6944C454.861 93.558 416.285 118.277 376.987 137.023C331.833 158.563 274.64 171.764 254.249 213.634C233.569 256.095 260.474 303.432 274.134 348.214C288.319 394.719 286.858 456.469 335.027 478.464C384.291 500.96 437.947 452.269 492.998 448.153C539.066 444.709 587.524 476.252 628.052 456.558C669.189 436.568 675.26 387.809 695.06 349.965C717.795 306.511 771.637 264.077 752.237 219.203C732.573 173.719 658.177 176.737 610.098 153.441C571.761 134.866 542.833 99.7541 499.391 96.6944Z" stroke="white" stroke-opacity="0.5"/>
<path fill-rule="evenodd" clip-rule="evenodd" d="M491.972 87.6944C447.442 84.558 408.866 109.277 369.568 128.023C324.414 149.563 267.221 162.764 246.83 204.634C226.15 247.095 253.055 294.432 266.715 339.214C280.9 385.719 279.439 447.469 327.608 469.464C376.872 491.96 430.528 443.269 485.579 439.153C531.647 435.709 580.105 467.252 620.633 447.558C661.77 427.568 667.841 378.809 687.641 340.965C710.376 297.511 764.218 255.077 744.818 210.203C725.154 164.719 650.758 167.737 602.679 144.441C564.342 125.866 535.414 90.7541 491.972 87.6944Z" stroke="white" stroke-opacity="0.5"/>
<path fill-rule="evenodd" clip-rule="evenodd" d="M491.972 78.6944C447.442 75.558 408.866 100.277 369.568 119.023C324.414 140.563 267.221 153.764 246.83 195.634C226.15 238.095 253.055 285.432 266.715 330.214C280.9 376.719 279.439 438.469 327.608 460.464C376.872 482.96 430.528 434.269 485.579 430.153C531.647 426.709 580.105 458.252 620.633 438.558C661.77 418.568 667.841 369.809 687.641 331.965C710.376 288.511 764.218 246.077 744.818 201.203C725.154 155.719 650.758 158.737 602.679 135.441C564.342 116.866 535.414 81.7541 491.972 78.6944Z" stroke="white" stroke-opacity="0.5"/>
<path fill-rule="evenodd" clip-rule="evenodd" d="M516.677 69.3507C475.407 66.4439 439.655 89.3528 403.235 106.726C361.387 126.689 308.382 138.923 289.483 177.728C270.318 217.08 295.253 260.951 307.913 302.454C321.059 345.554 319.705 402.783 364.347 423.167C410.004 444.015 459.731 398.89 510.751 395.076C553.446 391.884 598.356 421.117 635.917 402.865C674.042 384.339 679.668 339.149 698.018 304.076C719.088 263.805 768.988 224.477 751.009 182.889C732.785 140.735 663.836 143.532 619.277 121.943C583.747 104.728 556.937 72.1863 516.677 69.3507Z" stroke="white" stroke-opacity="0.5"/>
<path fill-rule="evenodd" clip-rule="evenodd" d="M523.157 60.3507C481.887 57.4439 446.135 80.3528 409.715 97.7263C367.867 117.689 314.862 129.923 295.964 168.728C276.798 208.08 301.733 251.951 314.393 293.454C327.539 336.554 326.185 393.783 370.827 414.167C416.484 435.015 466.212 389.89 517.232 386.076C559.927 382.884 604.836 412.117 642.397 393.865C680.522 375.339 686.148 330.149 704.498 295.076C725.568 254.805 775.469 215.477 757.489 173.889C739.265 131.735 670.316 134.532 625.757 112.943C590.227 95.7277 563.418 63.1863 523.157 60.3507Z" stroke="white" stroke-opacity="0.5"/>
<path fill-rule="evenodd" clip-rule="evenodd" d="M542.157 56.3507C500.887 53.4439 465.135 76.3528 428.715 93.7263C386.867 113.689 333.862 125.923 314.964 164.728C295.798 204.08 320.733 247.951 333.393 289.454C346.539 332.554 345.185 389.783 389.827 410.167C435.484 431.015 485.212 385.89 536.232 382.076C578.927 378.884 623.836 408.117 661.397 389.865C699.522 371.339 705.148 326.149 723.498 291.076C744.568 250.805 794.469 211.477 776.489 169.889C758.265 127.735 689.316 130.532 644.757 108.943C609.227 91.7277 582.418 59.1863 542.157 56.3507Z" stroke="white" stroke-opacity="0.5"/>
<path fill-rule="evenodd" clip-rule="evenodd" d="M543.583 59.9641C505.98 57.3156 473.404 78.1893 440.22 94.0193C402.089 112.208 353.793 123.356 336.574 158.713C319.111 194.569 341.831 234.543 353.366 272.359C365.344 311.629 364.111 363.774 404.786 382.347C446.387 401.344 491.697 360.227 538.184 356.752C577.086 353.844 618.006 380.48 652.23 363.849C686.968 346.969 692.094 305.794 708.814 273.837C728.013 237.143 773.48 201.309 757.097 163.416C740.492 125.007 677.669 127.555 637.069 107.884C604.695 92.1983 580.267 62.5479 543.583 59.9641Z" stroke="white" stroke-opacity="0.5"/>
<path fill-rule="evenodd" clip-rule="evenodd" d="M550.999 47.9641C513.396 45.3156 480.82 66.1893 447.635 82.0193C409.505 100.208 361.209 111.356 343.99 146.713C326.527 182.569 349.247 222.543 360.782 260.359C372.76 299.629 371.526 351.774 412.202 370.347C453.803 389.344 499.113 348.227 545.6 344.752C584.502 341.844 625.422 368.48 659.646 351.849C694.384 334.969 699.51 293.794 716.23 261.837C735.428 225.143 780.895 189.309 764.513 151.416C747.908 113.007 685.085 115.555 644.485 95.8839C612.111 80.1983 587.683 50.5479 550.999 47.9641Z" stroke="white" stroke-opacity="0.5"/>
<path fill-rule="evenodd" clip-rule="evenodd" d="M580.999 51.9641C543.396 49.3156 510.82 70.1893 477.635 86.0193C439.505 104.208 391.209 115.356 373.99 150.713C356.527 186.569 379.247 226.543 390.782 264.359C402.76 303.629 401.526 355.774 442.202 374.347C483.803 393.344 529.113 352.227 575.6 348.752C614.502 345.844 655.422 372.48 689.646 355.849C724.384 338.969 729.51 297.794 746.23 265.837C765.428 229.143 810.895 193.309 794.513 155.416C777.908 117.007 715.085 119.555 674.485 99.8839C642.111 84.1983 617.683 54.5479 580.999 51.9641Z" stroke="white" stroke-opacity="0.5"/>
<path fill-rule="evenodd" clip-rule="evenodd" d="M574.341 67.7263C538.993 65.2366 508.372 84.8581 477.178 99.7385C441.335 116.836 395.936 127.315 379.75 160.552C363.335 194.257 384.692 231.832 395.534 267.38C406.794 304.294 405.635 353.311 443.87 370.77C482.976 388.627 525.567 349.977 569.266 346.71C605.834 343.976 644.3 369.014 676.47 353.382C709.124 337.514 713.943 298.809 729.66 268.769C747.707 234.276 790.446 200.592 775.047 164.972C759.438 128.867 700.383 131.263 662.218 112.771C631.787 98.0267 608.824 70.155 574.341 67.7263Z" stroke="white" stroke-opacity="0.5"/>
<path fill-rule="evenodd" clip-rule="evenodd" d="M580.981 79.7263C545.634 77.2366 515.012 96.8581 483.818 111.738C447.976 128.836 402.577 139.315 386.39 172.552C369.975 206.257 391.332 243.832 402.175 279.38C413.435 316.294 412.275 365.311 450.511 382.77C489.616 400.627 532.208 361.977 575.906 358.71C612.475 355.976 650.94 381.014 683.111 365.382C715.765 349.514 720.583 310.809 736.3 280.769C754.347 246.276 797.087 212.592 781.687 176.972C766.078 140.867 707.023 143.263 668.859 124.771C638.427 110.027 615.465 82.155 580.981 79.7263Z" stroke="white" stroke-opacity="0.5"/>
<path fill-rule="evenodd" clip-rule="evenodd" d="M586.981 100.726C551.634 98.2366 521.012 117.858 489.818 132.738C453.976 149.836 408.577 160.315 392.39 193.552C375.975 227.257 397.332 264.832 408.175 300.38C419.435 337.294 418.275 386.311 456.511 403.77C495.616 421.627 538.208 382.977 581.906 379.71C618.475 376.976 656.94 402.014 689.111 386.382C721.765 370.514 726.583 331.809 742.3 301.769C760.347 267.276 803.087 233.592 787.687 197.972C772.078 161.867 713.023 164.263 674.859 145.771C644.427 131.027 621.465 103.155 586.981 100.726Z" stroke="white" stroke-opacity="0.5"/>
<path fill-rule="evenodd" clip-rule="evenodd" d="M578.33 115.432C545.771 113.139 517.566 131.212 488.834 144.918C455.819 160.667 414.003 170.319 399.094 200.933C383.974 231.978 403.646 266.588 413.633 299.331C424.004 333.332 422.936 378.481 458.155 394.563C494.174 411.01 533.405 375.41 573.655 372.401C607.338 369.883 642.768 392.945 672.4 378.546C702.477 363.931 706.915 328.28 721.392 300.61C738.015 268.839 777.382 237.814 763.197 205.004C748.82 171.748 694.425 173.955 659.273 156.923C631.242 143.342 610.092 117.669 578.33 115.432Z" stroke="white" stroke-opacity="0.5"/>
<path fill-rule="evenodd" clip-rule="evenodd" d="M583.885 96.4323C551.327 94.1391 523.122 112.212 494.389 125.918C461.375 141.667 419.558 151.319 404.649 181.933C389.53 212.978 409.201 247.588 419.188 280.331C429.559 314.332 428.492 359.481 463.71 375.563C499.73 392.01 538.96 356.41 579.21 353.401C612.893 350.883 648.323 373.945 677.955 359.546C708.032 344.931 712.471 309.28 726.947 281.61C743.57 249.839 782.937 218.814 768.753 186.004C754.375 152.748 699.981 154.955 664.828 137.923C636.798 124.342 615.647 98.6694 583.885 96.4323Z" stroke="white" stroke-opacity="0.5"/>
<path fill-rule="evenodd" clip-rule="evenodd" d="M589.885 77.4323C557.327 75.1391 529.122 93.2122 500.389 106.918C467.375 122.667 425.558 132.319 410.649 162.933C395.53 193.978 415.201 228.588 425.188 261.331C435.559 295.332 434.492 340.481 469.71 356.563C505.73 373.01 544.96 337.41 585.21 334.401C618.893 331.883 654.323 354.945 683.955 340.546C714.032 325.931 718.471 290.28 732.947 262.61C749.57 230.839 788.937 199.814 774.753 167.004C760.375 133.748 705.981 135.955 670.828 118.923C642.798 105.342 621.647 79.6694 589.885 77.4323Z" stroke="white" stroke-opacity="0.5"/>
<path fill-rule="evenodd" clip-rule="evenodd" d="M581.052 65.1536C551.137 63.0466 525.222 79.6524 498.822 92.2458C468.488 106.716 430.067 115.584 416.368 143.712C402.476 172.237 420.551 204.037 429.727 234.122C439.256 265.363 438.275 306.846 470.634 321.622C503.729 336.734 539.775 304.024 576.757 301.259C607.705 298.946 640.259 320.136 667.485 306.906C695.12 293.477 699.198 260.721 712.5 235.297C727.773 206.106 763.943 177.599 750.911 147.453C737.701 116.897 687.722 118.925 655.423 103.276C629.669 90.7971 610.236 67.2091 581.052 65.1536Z" stroke="white" stroke-opacity="0.5"/>
<path fill-rule="evenodd" clip-rule="evenodd" d="M598.631 88.1536C568.716 86.0466 542.801 102.652 516.401 115.246C486.067 129.716 447.646 138.584 433.947 166.712C420.055 195.237 438.129 227.037 447.306 257.122C456.835 288.363 455.854 329.846 488.213 344.622C521.308 359.734 557.353 327.024 594.336 324.259C625.284 321.946 657.837 343.136 685.063 329.906C712.699 316.477 716.777 283.721 730.078 258.297C745.351 229.106 781.522 200.599 768.489 170.453C755.279 139.897 705.301 141.925 673.002 126.276C647.248 113.797 627.814 90.2091 598.631 88.1536Z" stroke="white" stroke-opacity="0.5"/>
<path fill-rule="evenodd" clip-rule="evenodd" d="M608.631 106.154C578.716 104.047 552.801 120.652 526.401 133.246C496.067 147.716 457.646 156.584 443.947 184.712C430.055 213.237 448.129 245.037 457.306 275.122C466.835 306.363 465.854 347.846 498.213 362.622C531.308 377.734 567.353 345.024 604.336 342.259C635.284 339.946 667.837 361.136 695.063 347.906C722.699 334.477 726.777 301.721 740.078 276.297C755.351 247.106 791.522 218.599 778.489 188.453C765.279 157.897 715.301 159.925 683.002 144.276C657.248 131.797 637.814 108.209 608.631 106.154Z" stroke="white" stroke-opacity="0.5"/>
<path fill-rule="evenodd" clip-rule="evenodd" d="M597.958 119.859C570.836 117.949 547.34 133.004 523.406 144.422C495.904 157.541 461.07 165.581 448.65 191.083C436.055 216.944 452.442 245.775 460.762 273.051C469.401 301.375 468.511 338.985 497.849 352.381C527.854 366.082 560.534 336.426 594.064 333.92C622.122 331.822 651.636 351.034 676.32 339.039C701.375 326.864 705.073 297.166 717.132 274.117C730.979 247.651 763.773 221.806 751.957 194.474C739.98 166.772 694.668 168.61 665.385 154.422C642.035 143.108 624.416 121.723 597.958 119.859Z" stroke="white" stroke-opacity="0.5"/>
<path fill-rule="evenodd" clip-rule="evenodd" d="M604.512 140.859C577.391 138.949 553.895 154.004 529.96 165.422C502.459 178.541 467.625 186.581 455.205 212.083C442.61 237.944 458.997 266.775 467.316 294.051C475.956 322.375 475.066 359.985 504.404 373.381C534.409 387.082 567.089 357.426 600.618 354.92C628.677 352.822 658.191 372.034 682.875 360.039C707.93 347.864 711.627 318.166 723.687 295.117C737.534 268.651 770.327 242.806 758.511 215.474C746.535 187.772 701.223 189.61 671.94 175.422C648.59 164.108 630.971 142.723 604.512 140.859Z" stroke="white" stroke-opacity="0.5"/>
<path fill-rule="evenodd" clip-rule="evenodd" d="M601.731 157.619C576.887 155.869 555.365 169.66 533.44 180.119C508.248 192.136 476.34 199.501 464.963 222.861C453.426 246.551 468.436 272.96 476.057 297.945C483.971 323.89 483.156 358.341 510.03 370.613C537.515 383.163 567.451 355.998 598.164 353.702C623.866 351.781 650.901 369.379 673.512 358.391C696.463 347.238 699.85 320.035 710.896 298.921C723.58 274.678 753.62 251.004 742.796 225.968C731.825 200.592 690.319 202.275 663.495 189.279C642.107 178.916 625.967 159.326 601.731 157.619Z" stroke="white" stroke-opacity="0.5"/>
<path fill-rule="evenodd" clip-rule="evenodd" d="M601.368 139.619C576.524 137.869 555.002 151.66 533.077 162.119C507.885 174.136 475.977 181.501 464.6 204.861C453.063 228.551 468.073 254.96 475.694 279.945C483.608 305.89 482.793 340.341 509.667 352.613C537.152 365.163 567.087 337.998 597.801 335.702C623.503 333.781 650.538 351.379 673.149 340.391C696.1 329.238 699.487 302.035 710.533 280.921C723.217 256.678 753.257 233.004 742.433 207.968C731.462 182.592 689.956 184.275 663.132 171.279C641.744 160.916 625.604 141.326 601.368 139.619Z" stroke="white" stroke-opacity="0.5"/>
<path fill-rule="evenodd" clip-rule="evenodd" d="M607.368 123.619C582.524 121.869 561.002 135.66 539.077 146.119C513.885 158.136 481.977 165.501 470.6 188.861C459.063 212.551 474.073 238.96 481.694 263.945C489.608 289.89 488.793 324.341 515.667 336.613C543.152 349.163 573.087 321.998 603.801 319.702C629.503 317.781 656.538 335.379 679.149 324.391C702.1 313.238 705.487 286.035 716.533 264.921C729.217 240.678 759.257 217.004 748.433 191.968C737.462 166.592 695.956 168.275 669.132 155.279C647.744 144.916 631.604 125.326 607.368 123.619Z" stroke="white" stroke-opacity="0.5"/>
<path fill-rule="evenodd" clip-rule="evenodd" d="M619.368 108.619C594.524 106.869 573.002 120.66 551.077 131.119C525.885 143.136 493.977 150.501 482.6 173.861C471.063 197.551 486.073 223.96 493.694 248.945C501.608 274.89 500.793 309.341 527.667 321.613C555.152 334.163 585.087 306.998 615.801 304.702C641.503 302.781 668.538 320.379 691.149 309.391C714.1 298.238 717.487 271.035 728.533 249.921C741.217 225.678 771.257 202.004 760.433 176.968C749.462 151.592 707.956 153.275 681.132 140.279C659.744 129.916 643.604 110.326 619.368 108.619Z" stroke="white" stroke-opacity="0.5"/>
<path fill-rule="evenodd" clip-rule="evenodd" d="M608.757 100.307C586.873 98.7657 567.915 110.913 548.603 120.126C526.413 130.711 498.306 137.199 488.285 157.775C478.123 178.642 491.345 201.905 498.058 223.912C505.028 246.766 504.311 277.112 527.982 287.921C552.192 298.976 578.561 275.048 605.615 273.025C628.254 271.333 652.068 286.834 671.985 277.156C692.201 267.332 695.184 243.37 704.914 224.772C716.087 203.418 742.547 182.564 733.013 160.512C723.35 138.159 686.789 139.642 663.161 128.194C644.321 119.066 630.105 101.811 608.757 100.307Z" stroke="white" stroke-opacity="0.5"/>
<path fill-rule="evenodd" clip-rule="evenodd" d="M616.285 114.307C594.401 112.766 575.443 124.913 556.131 134.126C533.941 144.711 505.834 151.199 495.813 171.775C485.651 192.642 498.873 215.905 505.586 237.912C512.557 260.766 511.839 291.112 535.51 301.921C559.721 312.976 586.089 289.048 613.143 287.025C635.782 285.333 659.596 300.834 679.513 291.156C699.729 281.332 702.712 257.37 712.442 238.772C723.615 217.418 750.075 196.564 740.541 174.512C730.878 152.159 694.317 153.642 670.689 142.194C651.849 133.066 637.633 115.811 616.285 114.307Z" stroke="white" stroke-opacity="0.5"/>
<path fill-rule="evenodd" clip-rule="evenodd" d="M624.285 127.307C602.401 125.766 583.443 137.913 564.131 147.126C541.941 157.711 513.834 164.199 503.813 184.775C493.651 205.642 506.873 228.905 513.586 250.912C520.557 273.766 519.839 304.112 543.51 314.921C567.721 325.976 594.089 302.048 621.143 300.025C643.782 298.333 667.596 313.834 687.513 304.156C707.729 294.332 710.712 270.37 720.442 251.772C731.615 230.418 758.075 209.564 748.541 187.512C738.878 165.159 702.317 166.642 678.689 155.194C659.849 146.066 645.633 128.811 624.285 127.307Z" stroke="white" stroke-opacity="0.5"/>
<path fill-rule="evenodd" clip-rule="evenodd" d="M604.104 140.721C587.777 139.571 573.633 148.634 559.225 155.508C542.669 163.405 521.7 168.245 514.223 183.597C506.641 199.165 516.506 216.521 521.514 232.94C526.715 249.991 526.179 272.632 543.84 280.696C561.903 288.944 581.576 271.092 601.76 269.583C618.651 268.32 636.418 279.885 651.277 272.664C666.36 265.335 668.586 247.458 675.845 233.582C684.181 217.65 703.922 202.092 696.809 185.639C689.6 168.962 662.322 170.069 644.694 161.527C630.638 154.717 620.032 141.843 604.104 140.721Z" stroke="white" stroke-opacity="0.5"/>
<path fill-rule="evenodd" clip-rule="evenodd" d="M616.218 156.721C599.891 155.571 585.747 164.634 571.339 171.508C554.783 179.405 533.814 184.245 526.337 199.597C518.755 215.165 528.62 232.521 533.628 248.94C538.829 265.991 538.293 288.632 555.954 296.696C574.017 304.944 593.69 287.092 613.874 285.583C630.765 284.32 648.532 295.885 663.391 288.664C678.474 281.335 680.7 263.458 687.959 249.582C696.295 233.65 716.036 218.092 708.923 201.639C701.714 184.962 674.436 186.069 656.808 177.527C642.752 170.717 632.146 157.843 616.218 156.721Z" stroke="white" stroke-opacity="0.5"/>
<path fill-rule="evenodd" clip-rule="evenodd" d="M630.218 178.721C613.891 177.571 599.747 186.634 585.339 193.508C568.783 201.405 547.814 206.245 540.337 221.597C532.755 237.165 542.62 254.521 547.628 270.94C552.829 287.991 552.293 310.632 569.954 318.696C588.017 326.944 607.69 309.092 627.874 307.583C644.765 306.32 662.532 317.885 677.391 310.664C692.474 303.335 694.7 285.458 701.959 271.582C710.295 255.65 730.036 240.092 722.923 223.639C715.714 206.962 688.436 208.069 670.808 199.527C656.752 192.717 646.146 179.843 630.218 178.721Z" stroke="white" stroke-opacity="0.5"/>
<path fill-rule="evenodd" clip-rule="evenodd" d="M639.218 188.721C622.891 187.571 608.747 196.634 594.339 203.508C577.783 211.405 556.814 216.245 549.337 231.597C541.755 247.165 551.62 264.521 556.628 280.94C561.829 297.991 561.293 320.632 578.954 328.696C597.017 336.944 616.69 319.092 636.874 317.583C653.765 316.32 671.532 327.885 686.391 320.664C701.474 313.335 703.7 295.458 710.959 281.582C719.295 265.65 739.036 250.092 731.923 233.639C724.714 216.962 697.436 218.069 679.808 209.527C665.752 202.717 655.146 189.843 639.218 188.721Z" stroke="white" stroke-opacity="0.5"/>
<path fill-rule="evenodd" clip-rule="evenodd" d="M628.285 191.384C615.154 190.459 603.779 197.749 592.191 203.276C578.876 209.628 562.011 213.521 555.998 225.867C549.9 238.388 557.833 252.347 561.861 265.552C566.044 279.266 565.613 297.474 579.817 303.96C594.344 310.594 610.166 296.236 626.4 295.022C639.984 294.007 654.274 303.308 666.224 297.501C678.355 291.606 680.145 277.228 685.984 266.068C692.688 253.255 708.565 240.742 702.844 227.509C697.045 214.097 675.108 214.987 660.93 208.118C649.625 202.64 641.095 192.287 628.285 191.384Z" stroke="white" stroke-opacity="0.5"/>
<path fill-rule="evenodd" clip-rule="evenodd" d="M626.776 175.384C613.645 174.459 602.269 181.749 590.681 187.276C577.366 193.628 560.501 197.521 554.488 209.867C548.39 222.388 556.324 236.347 560.352 249.552C564.535 263.266 564.104 281.474 578.308 287.96C592.835 294.594 608.657 280.236 624.891 279.022C638.475 278.007 652.764 287.308 664.715 281.501C676.846 275.606 678.636 261.228 684.474 250.068C691.178 237.255 707.055 224.742 701.335 211.509C695.536 198.097 673.598 198.987 659.421 192.118C648.116 186.64 639.586 176.287 626.776 175.384Z" stroke="white" stroke-opacity="0.5"/>
<path fill-rule="evenodd" clip-rule="evenodd" d="M626.776 165.384C613.645 164.459 602.269 171.749 590.681 177.276C577.366 183.628 560.501 187.521 554.488 199.867C548.39 212.388 556.324 226.347 560.352 239.552C564.535 253.266 564.104 271.474 578.308 277.96C592.835 284.594 608.657 270.236 624.891 269.022C638.475 268.007 652.764 277.308 664.715 271.501C676.846 265.606 678.636 251.228 684.474 240.068C691.178 227.255 707.055 214.742 701.335 201.509C695.536 188.097 673.598 188.987 659.421 182.118C648.116 176.64 639.586 166.287 626.776 165.384Z" stroke="white" stroke-opacity="0.5"/>
<path fill-rule="evenodd" clip-rule="evenodd" d="M613.69 157.214C602.178 156.403 592.206 162.793 582.046 167.639C570.373 173.208 555.588 176.62 550.316 187.445C544.97 198.422 551.926 210.659 555.457 222.236C559.124 234.259 558.746 250.222 571.199 255.908C583.935 261.724 597.806 249.136 612.037 248.072C623.947 247.182 636.474 255.337 646.951 250.245C657.586 245.077 659.155 232.472 664.274 222.689C670.152 211.455 684.071 200.485 679.056 188.884C673.972 177.126 654.739 177.906 642.31 171.884C632.399 167.082 624.921 158.005 613.69 157.214Z" stroke="white" stroke-opacity="0.5"/>
<path fill-rule="evenodd" clip-rule="evenodd" d="M619.432 166.214C607.92 165.403 597.947 171.793 587.788 176.639C576.115 182.208 561.33 185.62 556.058 196.445C550.712 207.422 557.668 219.659 561.199 231.236C564.866 243.259 564.488 259.222 576.941 264.908C589.677 270.724 603.548 258.136 617.779 257.072C629.689 256.182 642.216 264.337 652.693 259.245C663.328 254.077 664.897 241.472 670.016 231.689C675.893 220.455 689.813 209.485 684.797 197.884C679.714 186.126 660.481 186.906 648.052 180.884C638.141 176.082 630.663 167.005 619.432 166.214Z" stroke="white" stroke-opacity="0.5"/>
<path fill-rule="evenodd" clip-rule="evenodd" d="M630.432 177.214C618.92 176.403 608.947 182.793 598.788 187.639C587.115 193.208 572.33 196.62 567.058 207.445C561.712 218.422 568.668 230.659 572.199 242.236C575.866 254.259 575.488 270.222 587.941 275.908C600.677 281.724 614.548 269.136 628.779 268.072C640.689 267.182 653.216 275.337 663.693 270.245C674.328 265.077 675.897 252.472 681.016 242.689C686.893 231.455 700.813 220.485 695.797 208.884C690.714 197.126 671.481 197.906 659.052 191.884C649.141 187.082 641.663 178.005 630.432 177.214Z" stroke="white" stroke-opacity="0.5"/>
<path fill-rule="evenodd" clip-rule="evenodd" d="M643.432 189.214C631.92 188.403 621.947 194.793 611.788 199.639C600.115 205.208 585.33 208.62 580.058 219.445C574.712 230.422 581.668 242.659 585.199 254.236C588.866 266.259 588.488 282.222 600.941 287.908C613.677 293.724 627.548 281.136 641.779 280.072C653.689 279.182 666.216 287.337 676.693 282.245C687.328 277.077 688.897 264.472 694.016 254.689C699.893 243.455 713.813 232.485 708.797 220.884C703.714 209.126 684.481 209.906 672.052 203.884C662.141 199.082 654.663 190.005 643.432 189.214Z" stroke="white" stroke-opacity="0.5"/>
<path fill-rule="evenodd" clip-rule="evenodd" d="M654.432 201.214C642.92 200.403 632.947 206.793 622.788 211.639C611.115 217.208 596.33 220.62 591.058 231.445C585.712 242.422 592.668 254.659 596.199 266.236C599.866 278.259 599.488 294.222 611.941 299.908C624.677 305.724 638.548 293.136 652.779 292.072C664.689 291.182 677.216 299.337 687.693 294.245C698.328 289.077 699.897 276.472 705.016 266.689C710.893 255.455 724.813 244.485 719.797 232.884C714.714 221.126 695.481 221.906 683.052 215.884C673.141 211.082 665.663 202.005 654.432 201.214Z" stroke="white" stroke-opacity="0.5"/>
<path fill-rule="evenodd" clip-rule="evenodd" d="M650.202 213.99C640.809 213.329 632.672 218.542 624.384 222.496C614.859 227.04 602.796 229.824 598.495 238.656C594.133 247.612 599.808 257.596 602.689 267.042C605.681 276.851 605.373 289.876 615.533 294.515C625.924 299.26 637.242 288.99 648.853 288.122C658.57 287.395 668.791 294.048 677.339 289.894C686.016 285.678 687.297 275.393 691.473 267.411C696.268 258.246 707.625 249.295 703.533 239.83C699.385 230.236 683.693 230.873 673.552 225.96C665.466 222.042 659.365 214.636 650.202 213.99Z" stroke="white" stroke-opacity="0.5"/>
<path d="M683.108 735.19C680.639 738.317 678.486 741.073 676.573 743.522C666.839 755.986 663.318 760.493 655.97 765.461C651.682 768.359 646.098 771.408 637.219 776.256L636.432 776.686C627.103 781.781 614.254 788.814 595.749 799.568C580.409 808.481 566.678 812.213 554.72 811.85C542.771 811.487 532.557 807.035 524.24 799.513C507.586 784.453 498.5 757.047 498.5 725.5C498.5 709.746 501.164 697.203 506.117 687.248C511.068 677.298 518.32 669.907 527.54 664.467C546.007 653.573 572.38 650.501 603.986 650.5C631.182 651.999 661.433 660.06 679.629 674.319C688.719 681.442 694.759 690.077 695.964 700.178C697.17 710.279 693.556 721.955 683.108 735.19Z" stroke="white" stroke-opacity="0.8"/>
<path d="M670.396 736.674C668.109 739.563 666.115 742.11 664.344 744.372C655.329 755.886 652.073 760.044 645.273 764.63C641.303 767.307 636.134 770.123 627.91 774.602L627.182 774.998C618.542 779.705 606.643 786.202 589.505 796.136C575.304 804.368 562.594 807.813 551.529 807.478C540.471 807.143 531.021 803.033 523.325 796.091C507.913 782.188 499.5 756.883 499.5 727.746C499.5 713.197 501.966 701.617 506.55 692.427C511.132 683.243 517.842 676.42 526.375 671.398C543.467 661.339 567.881 658.501 597.151 658.5C622.333 659.885 650.339 667.331 667.181 680.496C675.594 687.072 681.179 695.041 682.294 704.359C683.409 713.676 680.068 724.453 670.396 736.674Z" stroke="white" stroke-opacity="0.8"/>
<path d="M657.324 721.882C655.211 724.561 653.369 726.92 651.732 729.017C643.403 739.686 640.399 743.535 634.121 747.78C630.456 750.26 625.681 752.868 618.081 757.02L617.41 757.386C609.427 761.748 598.434 767.769 582.599 776.975C569.483 784.6 557.747 787.79 547.533 787.48C537.327 787.17 528.604 783.365 521.5 776.937C507.271 764.064 499.5 740.627 499.5 713.632C499.5 686.696 508.59 670.726 524.312 661.446C540.093 652.131 562.64 649.501 589.682 649.5C612.943 650.783 638.809 657.682 654.36 669.874C662.128 675.965 667.281 683.341 668.31 691.963C669.339 700.585 666.257 710.562 657.324 721.882Z" stroke="white" stroke-opacity="0.8"/>
<path d="M652.188 722.09C650.236 724.557 648.534 726.73 647.022 728.661C639.33 738.486 636.559 742.024 630.768 745.93C627.384 748.212 622.976 750.614 615.955 754.437L615.338 754.774C607.965 758.79 597.812 764.335 583.188 772.813C571.079 779.832 560.247 782.767 550.823 782.481C541.406 782.196 533.359 778.696 526.804 772.783C513.676 760.939 506.5 739.37 506.5 714.517C506.5 702.109 508.603 692.24 512.508 684.41C516.41 676.587 522.125 670.775 529.395 666.496C543.96 657.924 564.773 655.501 589.746 655.5C611.225 656.682 635.103 663.033 649.457 674.254C656.626 679.859 661.377 686.643 662.325 694.568C663.273 702.493 660.433 711.67 652.188 722.09Z" stroke="white" stroke-opacity="0.8"/>
<path d="M640.917 710.879C639.101 713.192 637.518 715.23 636.112 717.04C628.959 726.251 626.386 729.563 621.005 733.222C617.86 735.361 613.762 737.611 607.232 741.197L606.659 741.512C599.803 745.277 590.36 750.476 576.76 758.424C565.504 765.002 555.439 767.75 546.684 767.482C537.937 767.215 530.462 763.938 524.372 758.4C512.172 747.304 505.5 727.093 505.5 703.797C505.5 680.56 513.299 666.799 526.775 658.803C540.31 650.773 559.655 648.501 582.878 648.5C602.847 649.608 625.043 655.561 638.383 666.074C645.044 671.324 649.457 677.678 650.337 685.098C651.218 692.519 648.581 701.115 640.917 710.879Z" stroke="white" stroke-opacity="0.8"/>
<path d="M629.713 694.613C628.046 696.734 626.593 698.602 625.303 700.262C618.737 708.705 616.381 711.736 611.447 715.086C608.562 717.045 604.803 719.107 598.807 722.395L598.284 722.682C591.991 726.134 583.324 730.9 570.842 738.185C560.515 744.213 551.285 746.729 543.259 746.484C535.241 746.239 528.389 743.239 522.807 738.169C511.622 728.009 505.5 709.496 505.5 688.147C505.5 666.858 512.653 654.259 525.006 646.939C537.418 639.584 555.163 637.501 576.475 637.5C594.8 638.515 615.161 643.971 627.394 653.601C633.503 658.409 637.544 664.224 638.351 671.012C639.158 677.799 636.744 685.668 629.713 694.613Z" stroke="white" stroke-opacity="0.8"/>
<path d="M604.112 691.98C602.519 694.005 601.131 695.789 599.898 697.373C593.626 705.432 591.378 708.322 586.669 711.517C583.914 713.387 580.323 715.355 574.595 718.494L574.096 718.768C568.085 722.062 559.806 726.612 547.883 733.566C538.021 739.318 529.208 741.718 521.546 741.485C513.893 741.251 507.353 738.39 502.025 733.553C491.347 723.861 485.5 706.198 485.5 685.823C485.5 665.506 492.33 653.49 504.122 646.507C515.972 639.489 532.917 637.501 553.274 637.5C570.776 638.469 590.22 643.677 601.9 652.864C607.733 657.452 611.588 662.997 612.358 669.469C613.127 675.939 610.825 683.445 604.112 691.98Z" stroke="white" stroke-opacity="0.8"/>
<path d="M589.572 698.502C588.252 700.181 587.101 701.66 586.08 702.973C580.886 709.651 579.034 712.032 575.146 714.672C572.868 716.219 569.898 717.848 565.151 720.451L564.741 720.675C559.763 723.405 552.907 727.175 543.031 732.938C534.874 737.698 527.592 739.68 521.268 739.487C514.951 739.295 509.555 736.932 505.156 732.938C496.339 724.93 491.5 710.323 491.5 693.453C491.5 676.642 497.147 666.717 506.879 660.951C516.671 655.15 530.681 653.501 547.537 653.5C562.021 654.303 578.102 658.615 587.755 666.212C592.573 670.004 595.749 674.58 596.383 679.913C597.017 685.244 595.122 691.441 589.572 698.502Z" stroke="white" stroke-opacity="0.8"/>
<path d="M588.633 682.657C587.512 684.087 586.534 685.345 585.667 686.462C581.257 692.142 579.692 694.157 576.402 696.395C574.471 697.709 571.952 699.093 567.918 701.309L567.574 701.498C563.347 703.82 557.525 707.027 549.139 711.929C542.222 715.973 536.053 717.653 530.701 717.489C525.357 717.326 520.793 715.324 517.071 711.938C509.607 705.147 505.5 692.747 505.5 678.408C505.5 664.128 510.286 655.715 518.521 650.827C526.815 645.904 538.691 644.501 553.001 644.5C565.291 645.183 578.925 648.849 587.103 655.296C591.185 658.514 593.866 662.39 594.401 666.9C594.936 671.409 593.338 676.661 588.633 682.657Z" stroke="white" stroke-opacity="0.8"/>
<path d="M579.43 692.391C578.457 693.628 577.61 694.717 576.858 695.683C573.036 700.596 571.687 702.329 568.845 704.259C567.174 705.393 564.993 706.588 561.494 708.506L561.199 708.668C557.535 710.677 552.489 713.451 545.221 717.691C539.234 721.184 533.899 722.632 529.276 722.491C524.662 722.35 520.72 720.626 517.506 717.707C511.057 711.852 507.5 701.15 507.5 688.759C507.5 676.426 511.64 669.175 518.752 664.963C525.923 660.715 536.199 659.501 548.599 659.5C559.243 660.09 571.043 663.259 578.115 668.823C581.644 671.599 583.954 674.937 584.415 678.813C584.876 682.69 583.501 687.214 579.43 692.391Z" stroke="white" stroke-opacity="0.8"/>
<path d="M580.692 677.964C579.955 678.894 579.313 679.712 578.744 680.437C575.853 684.121 574.846 685.404 572.713 686.839C571.454 687.687 569.809 688.581 567.157 690.023L566.94 690.141C564.168 691.647 560.35 693.728 554.851 696.909C550.336 699.521 546.323 700.598 542.854 700.493C539.392 700.389 536.438 699.107 534.027 696.936C529.185 692.578 526.5 684.593 526.5 675.319C526.5 670.7 527.285 667.05 528.725 664.169C530.162 661.293 532.266 659.157 534.95 657.581C540.343 654.413 548.086 653.501 557.463 653.5C565.501 653.943 574.397 656.316 579.719 660.467C582.372 662.536 584.093 665.012 584.436 667.875C584.78 670.737 583.759 674.098 580.692 677.964Z" stroke="white" stroke-opacity="0.8"/>
<path d="M574.557 680.17C573.98 680.889 573.479 681.52 573.035 682.079C570.781 684.919 570.008 685.892 568.361 686.988C567.384 687.638 566.105 688.325 564.033 689.439L563.869 689.527C561.707 690.689 558.729 692.294 554.441 694.746C550.933 696.752 547.824 697.575 545.143 697.495C542.47 697.415 540.191 696.437 538.33 694.78C534.589 691.451 532.5 685.335 532.5 678.204C532.5 674.657 533.109 671.863 534.222 669.663C535.332 667.468 536.955 665.836 539.031 664.631C543.209 662.205 549.219 661.501 556.528 661.5C562.784 661.841 569.693 663.668 573.817 666.848C575.871 668.432 577.189 670.316 577.451 672.481C577.714 674.645 576.936 677.204 574.557 680.17Z" stroke="white" stroke-opacity="0.8"/>
<path d="M569.417 680.908C569.002 681.434 568.641 681.896 568.323 682.304C566.705 684.377 566.166 685.067 565.004 685.854C564.308 686.325 563.397 686.823 561.903 687.64L561.792 687.7C560.241 688.548 558.104 689.719 555.025 691.51C552.526 692.965 550.322 693.554 548.433 693.496C546.553 693.439 544.95 692.74 543.638 691.553C540.995 689.159 539.5 684.74 539.5 679.554C539.5 674.427 541.218 671.478 544.118 669.765C547.078 668.017 551.352 667.501 556.592 667.5C561.064 667.749 565.985 669.077 568.909 671.372C570.364 672.513 571.283 673.858 571.466 675.393C571.649 676.927 571.11 678.761 569.417 680.908Z" stroke="white" stroke-opacity="0.8"/>
<defs>
<linearGradient id="paint0_linear" x1="326.901" y1="872.573" x2="775.278" y2="349.044" gradientUnits="userSpaceOnUse">
<stop offset="0.273751" stop-color="#008F90"/>
<stop offset="1" stop-color="#010101"/>
</linearGradient>
</defs>
</svg>
