<svg width="84" height="148" viewBox="0 0 84 148" fill="none" xmlns="http://www.w3.org/2000/svg">
<path d="M-31.8138 31.331C-10.3942 21.8476 54.2253 28.3084 68.7182 72.8135C77.4339 94.014 72.4568 111.381 51.0372 120.864C29.6176 130.347 -23.163 116.163 -31.8788 94.9625C-40.5945 73.762 -53.2334 40.8144 -31.8138 31.331Z" fill="#014849"/>
<path d="M10.9411 50.1235C12.3852 49.8359 13.6495 49.5775 14.7709 49.3483C20.4738 48.1826 22.4797 47.7726 25.6358 48.1277C27.4928 48.3367 29.7388 48.8113 33.3482 49.5738L33.65 49.6376C37.427 50.4355 42.6346 51.5297 50.2881 52.9314C56.5863 54.0849 61.1519 56.2911 64.2345 59.1862C67.311 62.0755 68.94 65.6781 69.3256 69.6903C70.0997 77.7444 65.8587 87.4882 58.1088 96.2777C50.396 105.025 43.0192 107.649 35.5084 106.325C27.9328 104.99 20.1131 99.6268 11.5817 92.1057C4.63282 85.2345 -1.49646 75.8381 -2.88032 67.6138C-3.57048 63.5121 -3.0739 59.7496 -0.968986 56.7238C1.13595 53.6979 4.90758 51.325 10.9411 50.1235Z" stroke="white" stroke-opacity="0.8"/>
<path d="M14.7402 52.7363C16.0766 52.4719 17.2463 52.2342 18.2835 52.0235C23.558 50.952 25.4065 50.5764 28.3203 50.9078C30.0366 51.1029 32.1133 51.544 35.4549 52.2537L35.7322 52.3126C39.2274 53.0548 44.0464 54.0727 51.1286 55.3778C56.9513 56.4507 61.1703 58.4939 64.0189 61.1688C66.8615 63.838 68.3689 67.1632 68.7293 70.8657C69.4531 78.3001 65.5483 87.296 58.3926 95.4115C51.2741 103.485 44.4657 105.895 37.5322 104.665C30.5336 103.424 23.3004 98.4616 15.4003 91.4971C8.96717 85.1375 3.29261 76.4477 2.00495 68.8513C1.36289 65.0635 1.81812 61.5956 3.75431 58.8107C5.69049 56.0258 9.16626 53.8394 14.7402 52.7363Z" stroke="white" stroke-opacity="0.8"/>
<path d="M14.6249 59.9847C15.8623 59.738 16.9451 59.5164 17.9051 59.3199C22.7862 58.3211 24.4902 57.9724 27.1791 58.2744C28.7647 58.4524 30.6837 58.8574 33.7762 59.5101L34.0304 59.5638C37.263 60.2459 41.7201 61.1814 48.2707 62.3796C53.6508 63.3637 57.5435 65.2464 60.1682 67.7114C62.7868 70.1708 64.1729 73.237 64.5005 76.6546C65.1585 83.5195 61.5409 91.8406 54.913 99.3576C48.3221 106.833 42.032 109.064 35.6358 107.938C29.1747 106.801 22.4973 102.226 15.199 95.7921C9.2597 89.9183 4.02848 81.8915 2.84954 74.8744C2.26184 71.3764 2.68756 68.1768 4.47572 65.6067C6.26393 63.0365 9.47287 61.012 14.6249 59.9847Z" stroke="white" stroke-opacity="0.8"/>
<path d="M16.0629 61.1502C17.2047 60.9242 18.2036 60.7213 19.0889 60.5414C23.5898 59.627 25.1542 59.3091 27.6282 59.5904C29.0891 59.7564 30.858 60.1321 33.7133 60.7384L33.9457 60.7877C36.9283 61.421 41.0411 62.2895 47.0852 63.403C52.0439 64.3166 55.6296 66.0552 58.0473 68.3254C60.4589 70.59 61.7376 73.4104 62.0435 76.5532C62.658 82.8683 59.3399 90.5252 53.2403 97.443C47.1779 104.319 41.3922 106.359 35.5077 105.316C29.5581 104.261 23.4001 100.04 16.6605 94.0992C11.1775 88.6784 6.34821 81.2776 5.25344 74.8174C4.70782 71.5978 5.09639 68.6598 6.73442 66.3038C8.37244 63.9478 11.3186 62.0893 16.0629 61.1502Z" stroke="white" stroke-opacity="0.8"/>
<path d="M16.3448 66.9687C17.4119 66.7531 18.3452 66.5597 19.1722 66.3884C23.3763 65.5173 24.8316 65.2157 27.1337 65.4685C28.4947 65.618 30.1426 65.9619 32.8067 66.518L33.0216 66.5628C35.8029 67.1432 39.6382 67.9393 45.275 68.9569C49.8946 69.7909 53.227 71.3993 55.4678 73.5045C57.7024 75.604 58.8818 78.2252 59.1547 81.1526C59.7033 87.0373 56.5841 94.1951 50.8677 100.678C45.1882 107.12 39.7907 109.041 34.3179 108.09C28.7806 107.129 23.0567 103.216 16.7902 97.6922C11.697 92.6518 7.22405 85.7634 6.22835 79.7431C5.73226 76.7435 6.10552 74.006 7.63771 71.8066C9.17001 69.6069 11.919 67.8627 16.3448 66.9687Z" stroke="white" stroke-opacity="0.8"/>
<path d="M15.3612 74.1845C16.3408 73.9872 17.1973 73.8103 17.956 73.6536C21.812 72.8571 23.1395 72.5829 25.2444 72.8153C26.491 72.9529 28.001 73.2689 30.4472 73.7809L30.6422 73.8217C33.1939 74.3556 36.7129 75.0879 41.8848 76.0246C46.1174 76.7912 49.1672 78.2655 51.2167 80.1909C53.2601 82.1105 54.3392 84.5059 54.5904 87.1816C55.0954 92.5629 52.2463 99.1149 47.0101 105.053C41.8107 110.95 36.8743 112.7 31.8714 111.829C26.8038 110.946 21.5587 107.361 15.808 102.292C11.1365 97.6696 7.03648 91.357 6.12174 85.8471C5.66613 83.1027 6.00696 80.6042 7.40307 78.5995C8.79928 76.5946 11.3086 75.0006 15.3612 74.1845Z" stroke="white" stroke-opacity="0.8"/>
<path d="M21.6275 81.0181C22.5633 80.83 23.3814 80.6613 24.1059 80.5119C27.7879 79.7526 29.0514 79.4921 31.0578 79.7143C32.2472 79.846 33.6883 80.1481 36.0256 80.638L36.2105 80.6767C38.6475 81.1874 42.0084 81.8879 46.9478 82.7841C50.9869 83.5169 53.8953 84.9243 55.8492 86.7597C57.7969 88.5894 58.826 90.8718 59.0663 93.4217C59.5496 98.5514 56.8354 104.8 51.8393 110.467C46.8801 116.091 42.1742 117.756 37.4062 116.924C32.5735 116.08 27.5678 112.66 22.075 107.818C17.6143 103.404 13.7007 97.3795 12.8265 92.1247C12.3911 89.5079 12.7157 87.129 14.0438 85.2216C15.372 83.3141 17.7615 81.7952 21.6275 81.0181Z" stroke="white" stroke-opacity="0.8"/>
<path d="M27.1627 82.6574C27.9396 82.5011 28.6182 82.361 29.2186 82.2371C32.269 81.6074 33.3004 81.3945 34.9479 81.5765C35.9289 81.6849 37.1188 81.934 39.0593 82.3403L39.2076 82.3713C41.2264 82.7939 44.011 83.3736 48.1033 84.1151C51.4374 84.7192 53.8293 85.8789 55.4321 87.3845C57.0286 88.8843 57.872 90.7548 58.0686 92.8477C58.4646 97.0635 56.2317 102.218 52.0996 106.904C48.0043 111.549 44.134 112.91 40.2219 112.229C36.2453 111.536 32.1159 108.719 27.5688 104.711C23.8822 101.062 20.6564 96.0889 19.9377 91.7619C19.5801 89.609 19.8493 87.6629 20.9334 86.1063C22.0174 84.5495 23.9742 83.2993 27.1627 82.6574Z" stroke="white" stroke-opacity="0.8"/>
<path d="M23.5103 87.3109C24.1721 87.1771 24.7496 87.0574 25.2601 86.9516C27.8528 86.4142 28.7162 86.2353 30.1033 86.3874C30.9331 86.4783 31.9407 86.6885 33.5933 87.0331L33.7151 87.0585C35.4305 87.4162 37.7969 87.907 41.2747 88.5343C44.0972 89.0434 46.1139 90.0223 47.461 91.288C48.802 92.5479 49.5097 94.1194 49.6736 95.8811C50.0042 99.4346 48.1175 103.798 44.6093 107.776C41.1377 111.714 37.8723 112.857 34.5813 112.286C31.2258 111.704 27.7335 109.327 23.8742 105.926C20.7509 102.834 18.0265 98.6237 17.4228 94.9692C17.1226 93.1526 17.3527 91.5199 18.2607 90.2165C19.1689 88.913 20.8127 87.8563 23.5103 87.3109Z" stroke="white" stroke-opacity="0.8"/>
<path d="M28.3954 86.7814C28.9697 86.6659 29.4703 86.5627 29.9125 86.4715C32.1572 86.0087 32.8927 85.8571 34.0828 85.9888C34.7981 86.0679 35.6679 86.2501 37.1027 86.5507L37.2044 86.572C38.6903 86.8832 40.7404 87.3103 43.7531 87.8565C46.1888 88.2982 47.9229 89.1432 49.0788 90.229C50.2286 91.3091 50.8361 92.6548 50.9782 94.1649C51.2652 97.215 49.6485 100.972 46.6205 104.406C43.6293 107.799 40.825 108.771 38.0039 108.279C35.118 107.776 32.1044 105.727 28.7609 102.781C26.0593 100.106 23.7077 96.4719 23.185 93.3277C22.9254 91.7662 23.1231 90.3725 23.895 89.264C24.667 88.1554 26.071 87.2489 28.3954 86.7814Z" stroke="white" stroke-opacity="0.8"/>
<path d="M24.4967 90.5145C24.9315 90.4289 25.3098 90.3526 25.6431 90.2853C27.3337 89.9442 27.8657 89.8369 28.7424 89.9374C29.2758 89.9986 29.9267 90.1374 31.0158 90.3697L31.0852 90.3845C32.2064 90.6236 33.754 90.9519 36.0277 91.373C37.8485 91.7102 39.135 92.3441 39.9887 93.1457C40.8364 93.9416 41.2862 94.9291 41.3954 96.0387C41.6166 98.287 40.4345 101.076 38.1752 103.639C35.9533 106.159 33.8847 106.856 31.8099 106.486C29.6698 106.104 27.4145 104.574 24.8875 102.347C22.8528 100.334 21.0894 97.6135 20.6916 95.2808C20.4945 94.125 20.6395 93.1131 21.1928 92.3168C21.7461 91.5205 22.7667 90.8551 24.4967 90.5145Z" stroke="white" stroke-opacity="0.8"/>
<path d="M26.6961 91.3594C27.0353 91.2946 27.3296 91.2369 27.5881 91.1862C28.8986 90.9295 29.291 90.8527 29.953 90.9322C30.3618 90.9812 30.8629 91.0907 31.7151 91.2768L31.7622 91.287C32.6334 91.4773 33.8366 91.7386 35.6038 92.075C37.0034 92.3415 37.9839 92.8313 38.6313 93.4387C39.2729 94.0407 39.6151 94.7834 39.702 95.6183C39.8788 97.3165 38.9962 99.4407 37.2659 101.403C35.5737 103.322 34.0106 103.83 32.4471 103.543C30.8173 103.244 29.0807 102.067 27.1123 100.333C25.5335 98.7724 24.1717 96.6773 23.8586 94.9007C23.7038 94.0227 23.8127 93.2734 24.2152 92.6925C24.6176 92.1118 25.3738 91.6122 26.6961 91.3594Z" stroke="white" stroke-opacity="0.8"/>
<path d="M28.2689 92.3767C28.517 92.3271 28.7314 92.2833 28.919 92.245C29.8686 92.0512 30.1282 91.9981 30.5829 92.0491C30.8712 92.0813 31.2267 92.1563 31.8504 92.2877L31.8749 92.2929C32.504 92.4254 33.3735 92.6077 34.6505 92.8409C35.6418 93.0219 36.3188 93.3613 36.7569 93.7728C37.1889 94.1786 37.4175 94.6808 37.4723 95.2538C37.5846 96.4295 36.9598 97.9387 35.7081 99.3583C34.4934 100.736 33.4037 101.083 32.3363 100.896C31.2037 100.697 29.9833 99.8815 28.5743 98.6404C27.4554 97.5312 26.5082 96.0498 26.2999 94.8072C26.1975 94.1965 26.2801 93.6915 26.5496 93.3041C26.8192 92.9167 27.3339 92.5634 28.2689 92.3767Z" stroke="white" stroke-opacity="0.8"/>
</svg>
