<svg width="169" height="409" viewBox="0 0 169 409" fill="none" xmlns="http://www.w3.org/2000/svg">
<path fill-rule="evenodd" clip-rule="evenodd" d="M108.275 133.078C87.9322 155.048 82.8024 184.195 74.6464 211.515C65.2749 242.907 46.9928 277.476 57.3975 303.504C67.9489 329.898 100.933 333.379 127.127 342.797C154.328 352.577 181.827 376.103 212.303 359.198C243.472 341.907 244.091 296.09 265.601 265.983C283.601 240.789 318.547 227.254 326.794 198.945C335.165 170.211 315.54 149.081 306.718 124.845C296.588 97.0165 300.135 53.4091 271.461 46.9387C242.396 40.3804 212.17 80.129 181.14 96.5086C156.397 109.569 128.121 111.646 108.275 133.078Z" fill="url(#paint0_linear)" fill-opacity="0.8"/>
<path fill-rule="evenodd" clip-rule="evenodd" d="M137.344 246.046C133.975 248.113 132.283 251.635 130.272 254.816C127.961 258.472 124.405 262.214 124.799 265.893C125.199 269.625 129.267 271.243 132.261 273.374C135.369 275.588 138.026 279.559 142.502 278.497C147.08 277.411 148.793 271.609 152.601 268.549C155.787 265.989 160.712 265.515 162.77 262.211C164.858 258.857 163.117 255.472 162.86 252.076C162.565 248.178 164.571 242.762 161.157 240.917C157.697 239.047 152.438 243.021 147.909 243.996C144.299 244.774 140.631 244.03 137.344 246.046Z" stroke="white"/>
<path fill-rule="evenodd" clip-rule="evenodd" d="M143.321 244.242C140.298 246.083 138.852 249.337 137.104 252.263C135.095 255.625 131.949 259.031 132.415 262.493C132.889 266.004 136.657 267.639 139.457 269.724C142.365 271.889 144.909 275.689 148.974 274.822C153.131 273.935 154.531 268.544 157.926 265.784C160.768 263.475 165.259 263.172 167.047 260.133C168.861 257.048 167.171 253.823 166.838 250.631C166.456 246.967 168.135 241.946 164.959 240.117C161.739 238.264 157.042 241.839 152.928 242.624C149.647 243.249 146.27 242.445 143.321 244.242Z" stroke="white"/>
<path fill-rule="evenodd" clip-rule="evenodd" d="M134.603 241.064C129.903 243.805 127.467 248.601 124.603 252.918C121.311 257.879 116.303 262.92 116.733 267.996C117.17 273.143 122.719 275.495 126.774 278.519C130.985 281.66 134.519 287.206 140.712 285.881C147.047 284.526 149.58 276.593 154.914 272.499C159.377 269.072 166.169 268.57 169.102 264.085C172.078 259.534 169.786 254.821 169.536 250.141C169.248 244.767 172.174 237.374 167.532 234.731C162.827 232.051 155.467 237.361 149.206 238.565C144.213 239.525 139.187 238.389 134.603 241.064Z" stroke="white"/>
<path fill-rule="evenodd" clip-rule="evenodd" d="M129.279 228.11C121.805 232.47 117.933 240.095 113.378 246.961C108.144 254.849 100.179 262.866 100.863 270.937C101.558 279.121 110.382 282.861 116.83 287.67C123.526 292.664 129.146 301.483 138.994 299.376C149.066 297.221 153.096 284.608 161.577 278.097C168.674 272.648 179.474 271.849 184.138 264.718C188.871 257.48 185.226 249.987 184.828 242.544C184.371 233.998 189.024 222.243 181.642 218.039C174.16 213.779 162.457 222.222 152.5 224.137C144.561 225.663 136.569 223.856 129.279 228.11Z" stroke="white"/>
<path fill-rule="evenodd" clip-rule="evenodd" d="M132.712 236.97C126.866 240.381 123.837 246.346 120.274 251.716C116.18 257.886 109.95 264.157 110.485 270.47C111.028 276.872 117.931 279.797 122.974 283.559C128.212 287.465 132.608 294.363 140.311 292.715C148.19 291.03 151.342 281.164 157.976 276.071C163.527 271.809 171.975 271.184 175.623 265.606C179.325 259.944 176.474 254.083 176.163 248.261C175.805 241.577 179.444 232.381 173.67 229.093C167.818 225.761 158.664 232.365 150.876 233.863C144.665 235.057 138.415 233.643 132.712 236.97Z" stroke="white"/>
<path fill-rule="evenodd" clip-rule="evenodd" d="M142.96 247.479C141.11 248.558 140.157 250.452 139.033 252.156C137.742 254.114 135.773 256.102 135.95 258.111C136.129 260.148 138.321 261.086 139.925 262.288C141.59 263.537 142.992 265.736 145.433 265.22C147.929 264.693 148.917 261.558 151.015 259.945C152.77 258.596 155.448 258.407 156.599 256.636C157.767 254.84 156.856 252.972 156.751 251.12C156.63 248.993 157.773 246.072 155.939 245.02C154.079 243.953 151.184 246.043 148.716 246.511C146.748 246.884 144.765 246.428 142.96 247.479Z" stroke="white"/>
<path fill-rule="evenodd" clip-rule="evenodd" d="M144.573 250.457C143.62 251.011 143.139 251.999 142.568 252.886C141.912 253.906 140.904 254.936 141.01 255.992C141.118 257.064 142.262 257.572 143.103 258.215C143.976 258.883 144.719 260.048 145.981 259.794C147.273 259.535 147.764 257.895 148.841 257.063C149.742 256.367 151.131 256.286 151.715 255.364C152.308 254.429 151.822 253.441 151.755 252.467C151.677 251.349 152.25 249.823 151.29 249.257C150.318 248.684 148.83 249.761 147.553 249.989C146.534 250.171 145.502 249.917 144.573 250.457Z" stroke="white"/>
<path fill-rule="evenodd" clip-rule="evenodd" d="M146.806 252.466C146.378 252.711 146.177 253.175 145.933 253.589C145.652 254.064 145.209 254.537 145.281 255.046C145.353 255.563 145.891 255.831 146.292 256.157C146.708 256.496 147.075 257.071 147.652 256.976C148.241 256.878 148.433 256.102 148.912 255.725C149.312 255.41 149.951 255.401 150.2 254.971C150.454 254.534 150.209 254.05 150.158 253.581C150.098 253.043 150.33 252.323 149.876 252.031C149.416 251.736 148.753 252.221 148.169 252.304C147.704 252.37 147.222 252.226 146.806 252.466Z" stroke="white"/>
<path fill-rule="evenodd" clip-rule="evenodd" d="M125.338 231.873C117.865 236.233 113.992 243.858 109.437 250.723C104.203 258.612 96.2385 266.628 96.9229 274.699C97.6171 282.884 106.442 286.624 112.89 291.433C119.585 296.427 125.206 305.246 135.054 303.139C145.126 300.984 149.155 288.371 157.637 281.86C164.734 276.411 175.534 275.612 180.197 268.481C184.931 261.243 181.285 253.749 180.887 246.307C180.43 237.761 185.083 226.005 177.701 221.802C170.219 217.542 158.517 225.984 148.56 227.899C140.62 229.426 132.629 227.619 125.338 231.873Z" stroke="white"/>
<path fill-rule="evenodd" clip-rule="evenodd" d="M116.109 231.32C108.635 235.68 104.763 243.305 100.208 250.171C94.9737 258.059 87.009 266.076 87.6934 274.147C88.3876 282.332 97.2122 286.071 103.66 290.88C110.356 295.875 115.976 304.693 125.824 302.586C135.897 300.432 139.926 287.818 148.407 281.307C155.504 275.858 166.304 275.059 170.968 267.929C175.701 260.69 172.056 253.197 171.658 245.754C171.201 237.209 175.854 225.453 168.472 221.25C160.99 216.989 149.287 225.432 139.33 227.347C131.391 228.874 123.399 227.067 116.109 231.32Z" stroke="white"/>
<path fill-rule="evenodd" clip-rule="evenodd" d="M124.143 226.136C115.186 231.341 110.652 240.632 105.277 248.974C99.1015 258.56 89.6229 268.248 90.6141 278.178C91.6194 288.247 102.376 293.02 110.277 299.058C118.483 305.329 125.463 316.277 137.341 313.887C149.488 311.442 154.111 296.028 164.245 288.199C172.725 281.648 185.781 280.885 191.282 272.218C196.866 263.421 192.302 254.141 191.67 244.989C190.945 234.481 196.339 220.132 187.32 214.82C178.178 209.435 164.183 219.571 152.17 221.722C142.591 223.438 132.882 221.057 124.143 226.136Z" stroke="white"/>
<defs>
<linearGradient id="paint0_linear" x1="206.546" y1="365.344" x2="25.3528" y2="111.974" gradientUnits="userSpaceOnUse">
<stop offset="0.242569" stop-color="#960001"/>
<stop offset="1" stop-color="#010101"/>
</linearGradient>
</defs>
</svg>
