<svg width="541" height="1024" viewBox="0 0 541 1024" fill="none" xmlns="http://www.w3.org/2000/svg">
<path d="M168.878 186.864C214.572 143.149 387.579 100.111 469.545 199.53C513.26 245.224 517.843 293.793 472.15 337.507C426.456 381.222 276.215 393.811 232.501 348.117C188.786 302.424 123.185 230.578 168.878 186.864Z" fill="#790101"/>
<path fill-rule="evenodd" clip-rule="evenodd" d="M-382.4 795.078C-313.037 860.936 -220.138 878.486 -133.196 905.629C-33.2986 936.817 76.3928 996.595 159.947 964.4C244.68 931.75 257.115 826.531 288.244 743.236C320.57 656.738 396.816 569.842 344.033 471.819C290.049 371.566 143.721 367.758 48.4122 297.85C-31.3451 239.348 -73.1853 127.179 -163.28 99.7063C-254.729 71.8203 -323.008 133.663 -400.776 160.876C-490.071 192.123 -629.222 179.05 -651.035 270.385C-673.144 362.962 -547.385 461.099 -496.303 560.871C-455.572 640.426 -450.067 730.83 -382.4 795.078Z" fill="url(#paint0_linear)" fill-opacity="0.8"/>
<path fill-rule="evenodd" clip-rule="evenodd" d="M-101.966 44.8815C-184.294 29.11 -261.132 60.1119 -338.113 81.2176C-426.566 105.469 -535.769 113.261 -582.179 176.541C-629.243 240.714 -588.641 324.221 -572.2 400.397C-555.128 479.502 -570.268 579.68 -484.955 627.024C-397.701 675.446 -287.948 609.03 -184.563 615.515C-98.0466 620.943 -14.1148 683.9 65.3485 661.545C146.006 638.855 167.122 560.93 211.62 504.063C262.714 438.768 371.555 382.582 344.439 304.881C316.953 226.125 177.749 213.219 92.8641 163.78C25.179 124.358 -21.651 60.2674 -101.966 44.8815Z" stroke="white"/>
<path fill-rule="evenodd" clip-rule="evenodd" d="M-140.527 44.8815C-222.855 29.11 -299.693 60.1119 -376.674 81.2176C-465.127 105.469 -574.33 113.261 -620.74 176.541C-667.805 240.714 -627.202 324.221 -610.762 400.397C-593.689 479.502 -608.829 579.68 -523.516 627.024C-436.262 675.446 -326.51 609.03 -223.124 615.515C-136.608 620.943 -52.6761 683.9 26.7872 661.545C107.445 638.855 128.561 560.93 173.059 504.063C224.153 438.768 332.994 382.582 305.877 304.881C278.392 226.125 139.187 213.219 54.3028 163.78C-13.3823 124.358 -60.2122 60.2674 -140.527 44.8815Z" stroke="white"/>
<path fill-rule="evenodd" clip-rule="evenodd" d="M-172.077 44.8815C-254.405 29.11 -331.243 60.1119 -408.224 81.2176C-496.677 105.469 -605.88 113.261 -652.29 176.541C-699.355 240.714 -658.752 324.221 -642.312 400.397C-625.239 479.502 -640.379 579.68 -555.066 627.024C-467.812 675.446 -358.06 609.03 -254.674 615.515C-168.158 620.943 -84.2261 683.9 -4.76283 661.545C75.8947 638.855 97.0105 560.93 141.509 504.063C192.603 438.768 301.444 382.582 274.327 304.881C246.842 226.125 107.637 213.219 22.7527 163.78C-44.9324 124.358 -91.7623 60.2674 -172.077 44.8815Z" stroke="white"/>
<path fill-rule="evenodd" clip-rule="evenodd" d="M-201.875 44.8815C-284.202 29.11 -361.041 60.1119 -438.021 81.2176C-526.474 105.469 -635.678 113.261 -682.088 176.541C-729.152 240.714 -688.549 324.221 -672.109 400.397C-655.036 479.502 -670.176 579.68 -584.864 627.024C-497.61 675.446 -387.857 609.03 -284.471 615.515C-197.955 620.943 -114.023 683.9 -34.5602 661.545C46.0973 638.855 67.2131 560.93 111.711 504.063C162.805 438.768 271.647 382.582 244.53 304.881C217.045 226.125 77.8398 213.219 -7.04463 163.78C-74.7297 124.358 -121.56 60.2674 -201.875 44.8815Z" stroke="white"/>
<path fill-rule="evenodd" clip-rule="evenodd" d="M-215.021 25.6007C-297.348 9.82919 -374.187 40.8311 -451.167 61.9369C-539.62 86.188 -648.824 93.9805 -695.234 157.26C-742.298 221.433 -701.695 304.94 -685.255 381.116C-668.182 460.221 -683.322 560.399 -598.01 607.743C-510.756 656.165 -401.003 589.749 -297.617 596.235C-211.101 601.662 -127.169 664.619 -47.7062 642.265C32.9513 619.574 54.0671 541.649 98.5652 484.783C149.659 419.487 258.501 363.301 231.384 285.601C203.899 206.844 64.6938 193.938 -20.1906 144.499C-87.8757 105.077 -134.706 40.9866 -215.021 25.6007Z" stroke="white"/>
<path fill-rule="evenodd" clip-rule="evenodd" d="M-239.559 9.82569C-321.887 -5.94584 -398.726 25.0561 -475.706 46.1618C-564.159 70.413 -673.363 78.2055 -719.772 141.485C-766.837 205.658 -726.234 289.165 -709.794 365.341C-692.721 444.446 -707.861 544.624 -622.549 591.968C-535.295 640.39 -425.542 573.974 -322.156 580.46C-235.64 585.887 -151.708 648.844 -72.2451 626.49C8.4124 603.799 29.5282 525.874 74.0262 469.008C125.12 403.712 233.962 347.526 206.845 269.826C179.36 191.069 40.1549 178.163 -44.7296 128.724C-112.415 89.302 -159.245 25.2116 -239.559 9.82569Z" stroke="white"/>
<path fill-rule="evenodd" clip-rule="evenodd" d="M-250.953 -18.2189C-333.28 -33.9904 -410.119 -2.98848 -487.099 18.1173C-575.552 42.3684 -684.756 50.1609 -731.166 113.441C-778.23 177.613 -737.627 261.12 -721.187 337.296C-704.114 416.402 -719.254 516.58 -633.942 563.924C-546.688 612.345 -436.935 545.93 -333.549 552.415C-247.033 557.842 -163.101 620.799 -83.6382 598.445C-2.98067 575.755 18.1351 497.829 62.6332 440.963C113.727 375.667 222.569 319.482 195.452 241.781C167.967 163.024 28.7618 150.119 -56.1226 100.679C-123.808 61.2575 -170.638 -2.83296 -250.953 -18.2189Z" stroke="white"/>
<path fill-rule="evenodd" clip-rule="evenodd" d="M-264.098 -52.3981C-346.426 -68.1696 -423.264 -37.1677 -500.245 -16.0619C-588.698 8.1892 -697.902 15.9817 -744.311 79.2616C-791.376 143.434 -750.773 226.941 -734.333 303.117C-717.26 382.223 -732.4 482.4 -647.088 529.745C-559.834 578.166 -450.081 511.75 -346.695 518.236C-260.179 523.663 -176.247 586.62 -96.7841 564.266C-16.1265 541.576 4.98924 463.65 49.4873 406.784C100.581 341.488 209.423 285.302 182.306 207.602C154.821 128.845 15.6159 115.94 -69.2685 66.5002C-136.954 27.0783 -183.784 -37.0122 -264.098 -52.3981Z" stroke="white"/>
<path fill-rule="evenodd" clip-rule="evenodd" d="M-281.626 -52.3981C-363.954 -68.1696 -440.792 -37.1677 -517.773 -16.0619C-606.226 8.1892 -715.429 15.9817 -761.839 79.2616C-808.904 143.434 -768.301 226.941 -751.861 303.117C-734.788 382.223 -749.928 482.4 -664.615 529.745C-577.361 578.166 -467.609 511.75 -364.223 518.236C-277.707 523.663 -193.775 586.62 -114.312 564.266C-33.6544 541.576 -12.5386 463.65 31.9595 406.784C83.0535 341.488 191.895 285.302 164.778 207.602C137.293 128.845 -1.9119 115.94 -86.7963 66.5002C-154.481 27.0783 -201.311 -37.0122 -281.626 -52.3981Z" stroke="white"/>
<path fill-rule="evenodd" clip-rule="evenodd" d="M-296.525 -52.3981C-378.853 -68.1696 -455.691 -37.1677 -532.672 -16.0619C-621.125 8.1892 -730.328 15.9817 -776.738 79.2616C-823.802 143.434 -783.2 226.941 -766.759 303.117C-749.687 382.223 -764.827 482.4 -679.514 529.745C-592.26 578.166 -482.507 511.75 -379.122 518.236C-292.606 523.663 -208.674 586.62 -129.211 564.266C-48.5531 541.576 -27.4373 463.65 17.0608 406.784C68.1549 341.488 176.996 285.302 149.88 207.602C122.394 128.845 -16.8106 115.94 -101.695 66.5002C-169.38 27.0783 -216.21 -37.0122 -296.525 -52.3981Z" stroke="white"/>
<path fill-rule="evenodd" clip-rule="evenodd" d="M-306.165 -52.3981C-388.493 -68.1696 -465.331 -37.1677 -542.312 -16.0619C-630.765 8.1892 -739.968 15.9817 -786.378 79.2616C-833.443 143.434 -792.84 226.941 -776.4 303.117C-759.327 382.223 -774.467 482.4 -689.154 529.745C-601.9 578.166 -492.148 511.75 -388.762 518.236C-302.246 523.663 -218.314 586.62 -138.851 564.266C-58.1934 541.576 -37.0777 463.65 7.42039 406.784C58.5145 341.488 167.356 285.302 140.239 207.602C112.754 128.845 -26.451 115.94 -111.335 66.5002C-179.021 27.0783 -225.85 -37.0122 -306.165 -52.3981Z" stroke="white"/>
<path fill-rule="evenodd" clip-rule="evenodd" d="M-330.704 -52.3981C-413.032 -68.1696 -489.87 -37.1677 -566.851 -16.0619C-655.304 8.1892 -764.507 15.9817 -810.917 79.2616C-857.982 143.434 -817.379 226.941 -800.939 303.117C-783.866 382.223 -799.006 482.4 -713.693 529.745C-626.439 578.166 -516.687 511.75 -413.301 518.236C-326.785 523.663 -242.853 586.62 -163.39 564.266C-82.7324 541.576 -61.6166 463.65 -17.1185 406.784C33.9755 341.488 142.817 285.302 115.7 207.602C88.2148 128.845 -50.9899 115.94 -135.874 66.5002C-203.559 27.0783 -250.389 -37.0122 -330.704 -52.3981Z" stroke="white"/>
<path fill-rule="evenodd" clip-rule="evenodd" d="M-344.726 -61.1621C-427.054 -76.9336 -503.892 -45.9317 -580.873 -24.826C-669.326 -0.574836 -778.53 7.2177 -824.939 70.4976C-872.004 134.67 -831.401 218.177 -814.961 294.353C-797.888 373.459 -813.028 473.636 -727.716 520.981C-640.462 569.402 -530.709 502.986 -427.323 509.472C-340.807 514.899 -256.875 577.856 -177.412 555.502C-96.7546 532.812 -75.6388 454.886 -31.1408 398.02C19.9533 332.724 128.795 276.538 101.678 198.838C74.1926 120.081 -65.0121 107.176 -149.897 57.7361C-217.582 18.3142 -264.412 -45.7762 -344.726 -61.1621Z" stroke="white"/>
<path fill-rule="evenodd" clip-rule="evenodd" d="M-375.4 -81.3191C-457.728 -97.0906 -534.566 -66.0887 -611.547 -44.9829C-700 -20.7318 -809.203 -12.9393 -855.613 50.3406C-902.678 114.513 -862.075 198.02 -845.635 274.196C-828.562 353.302 -843.702 453.479 -758.389 500.824C-671.135 549.245 -561.383 482.829 -457.997 489.315C-371.481 494.742 -287.549 557.699 -208.086 535.345C-127.428 512.655 -106.313 434.729 -61.8146 377.863C-10.7205 312.567 98.1209 256.381 71.0042 178.681C43.5188 99.924 -95.6859 87.0185 -180.57 37.5792C-248.255 -1.84276 -295.085 -65.9332 -375.4 -81.3191Z" stroke="white"/>
<path fill-rule="evenodd" clip-rule="evenodd" d="M-386.793 -97.0941C-469.121 -112.866 -545.959 -81.8637 -622.94 -60.758C-711.393 -36.5068 -820.597 -28.7143 -867.006 34.5656C-914.071 98.7382 -873.468 182.245 -857.028 258.421C-839.955 337.527 -855.095 437.704 -769.782 485.049C-682.529 533.47 -572.776 467.054 -469.39 473.54C-382.874 478.967 -298.942 541.924 -219.479 519.57C-138.821 496.88 -117.706 418.954 -73.2077 362.088C-22.1136 296.792 86.7279 240.606 59.6111 162.906C32.1257 84.149 -107.079 71.2435 -191.963 21.8041C-259.649 -17.6178 -306.478 -81.7082 -386.793 -97.0941Z" stroke="white"/>
<path fill-rule="evenodd" clip-rule="evenodd" d="M-399.939 -122.51C-482.267 -138.281 -559.105 -107.279 -636.086 -86.1734C-724.539 -61.9222 -833.742 -54.1297 -880.152 9.1502C-927.217 73.3228 -886.614 156.83 -870.174 233.006C-853.101 312.111 -868.241 412.289 -782.928 459.633C-695.674 508.055 -585.922 441.639 -482.536 448.124C-396.02 453.552 -312.088 516.509 -232.625 494.154C-151.967 471.464 -130.852 393.539 -86.3535 336.672C-35.2595 271.377 73.582 215.191 46.4653 137.49C18.9799 58.7336 -120.225 45.8281 -205.109 -3.61127C-272.794 -43.0332 -319.624 -107.124 -399.939 -122.51Z" stroke="white"/>
<path fill-rule="evenodd" clip-rule="evenodd" d="M-430.613 -122.51C-512.941 -138.281 -589.779 -107.279 -666.76 -86.1734C-755.213 -61.9222 -864.416 -54.1297 -910.826 9.1502C-957.89 73.3228 -917.288 156.83 -900.847 233.006C-883.775 312.111 -898.915 412.289 -813.602 459.633C-726.348 508.055 -616.595 441.639 -513.21 448.124C-426.694 453.552 -342.762 516.509 -263.299 494.154C-182.641 471.464 -161.525 393.539 -117.027 336.672C-65.9332 271.377 42.9083 215.191 15.7916 137.49C-11.6939 58.7336 -150.899 45.8281 -235.783 -3.61127C-303.468 -43.0332 -350.298 -107.124 -430.613 -122.51Z" stroke="white"/>
<path fill-rule="evenodd" clip-rule="evenodd" d="M-448.141 -111.993C-530.469 -127.764 -607.307 -96.7624 -684.288 -75.6566C-772.741 -51.4055 -881.944 -43.613 -928.354 19.6669C-975.418 83.8395 -934.816 167.346 -918.375 243.522C-901.303 322.628 -916.443 422.806 -831.13 470.15C-743.876 518.571 -634.123 452.156 -530.738 458.641C-444.222 464.068 -360.29 527.025 -280.827 504.671C-200.169 481.981 -179.053 404.056 -134.555 347.189C-83.4611 281.893 25.3803 225.708 -1.7364 148.007C-29.2218 69.2503 -168.427 56.3448 -253.311 6.90546C-320.996 -32.5165 -367.826 -96.6069 -448.141 -111.993Z" stroke="white"/>
<path fill-rule="evenodd" clip-rule="evenodd" d="M-478.815 -97.0941C-561.142 -112.866 -637.981 -81.8637 -714.961 -60.758C-803.414 -36.5068 -912.618 -28.7143 -959.028 34.5656C-1006.09 98.7382 -965.489 182.245 -949.049 258.421C-931.976 337.527 -947.117 437.704 -861.804 485.049C-774.55 533.47 -664.797 467.054 -561.412 473.54C-474.895 478.967 -390.964 541.924 -311.5 519.57C-230.843 496.88 -209.727 418.954 -165.229 362.088C-114.135 296.792 -5.29338 240.606 -32.4101 162.906C-59.8955 84.149 -199.1 71.2435 -283.985 21.8041C-351.67 -17.6178 -398.5 -81.7082 -478.815 -97.0941Z" stroke="white"/>
<defs>
<linearGradient id="paint0_linear" x1="363.436" y1="490.453" x2="-453.124" y2="1059.11" gradientUnits="userSpaceOnUse">
<stop offset="0.242569" stop-color="#960001"/>
<stop offset="1" stop-color="#010101"/>
</linearGradient>
</defs>
</svg>
