<svg width="21" height="33" viewBox="0 0 21 33" fill="none" xmlns="http://www.w3.org/2000/svg">
<path fill-rule="evenodd" clip-rule="evenodd" d="M10.5 0.500004C10.7984 0.500004 11.0845 0.618528 11.2955 0.829508C11.5065 1.04049 11.625 1.32664 11.625 1.625L11.625 28.1593L18.7035 21.0785C18.8081 20.9739 18.9323 20.8909 19.069 20.8343C19.2056 20.7777 19.3521 20.7486 19.5 20.7486C19.6479 20.7486 19.7944 20.7777 19.9311 20.8343C20.0677 20.8909 20.1919 20.9739 20.2965 21.0785C20.4011 21.1831 20.4841 21.3073 20.5407 21.4439C20.5973 21.5806 20.6264 21.7271 20.6264 21.875C20.6264 22.0229 20.5973 22.1694 20.5407 22.3061C20.4841 22.4427 20.4011 22.5669 20.2965 22.6715L11.2965 31.6715C11.192 31.7763 11.0679 31.8594 10.9312 31.9161C10.7945 31.9728 10.648 32.002 10.5 32.002C10.352 32.002 10.2055 31.9728 10.0688 31.9161C9.93216 31.8594 9.80802 31.7763 9.70351 31.6715L0.703514 22.6715C0.598915 22.5669 0.515944 22.4427 0.459335 22.3061C0.402729 22.1694 0.373592 22.0229 0.373592 21.875C0.373592 21.7271 0.402729 21.5806 0.459335 21.4439C0.515944 21.3073 0.598915 21.1831 0.703514 21.0785C0.808111 20.9739 0.932287 20.8909 1.06895 20.8343C1.20561 20.7777 1.35209 20.7486 1.50001 20.7486C1.64794 20.7486 1.79441 20.7777 1.93108 20.8343C2.06774 20.8909 2.19192 20.9739 2.29651 21.0785L9.37501 28.1593L9.37501 1.625C9.37501 1.32664 9.49354 1.04049 9.70452 0.829508C9.9155 0.618528 10.2016 0.500004 10.5 0.500004Z" fill="#EBEBEB"/>
</svg>
