<svg width="91" height="29" viewBox="0 0 91 29" fill="none" xmlns="http://www.w3.org/2000/svg">
<rect x="1" y="1.49597" width="89" height="26" rx="13" fill="#24B9BA" stroke="#24B9BA" stroke-width="2"/>
<path d="M18.864 20.496L16.4 16.144H15.344V20.496H13.104V9.32797H17.296C18.16 9.32797 18.896 9.48264 19.504 9.79197C20.112 10.0906 20.5653 10.5013 20.864 11.024C21.1733 11.536 21.328 12.112 21.328 12.752C21.328 13.488 21.1147 14.1546 20.688 14.752C20.2613 15.3386 19.6267 15.744 18.784 15.968L21.456 20.496H18.864ZM15.344 14.464H17.216C17.824 14.464 18.2773 14.32 18.576 14.032C18.8747 13.7333 19.024 13.3226 19.024 12.8C19.024 12.288 18.8747 11.8933 18.576 11.616C18.2773 11.328 17.824 11.184 17.216 11.184H15.344V14.464ZM31.594 15.872C31.594 16.192 31.5727 16.48 31.53 16.736H25.05C25.1033 17.376 25.3273 17.8773 25.722 18.24C26.1167 18.6026 26.602 18.784 27.178 18.784C28.01 18.784 28.602 18.4266 28.954 17.712H31.37C31.114 18.5653 30.6233 19.2693 29.898 19.824C29.1727 20.368 28.282 20.64 27.226 20.64C26.3727 20.64 25.6047 20.4533 24.922 20.08C24.25 19.696 23.722 19.1573 23.338 18.464C22.9647 17.7706 22.778 16.9706 22.778 16.064C22.778 15.1466 22.9647 14.3413 23.338 13.648C23.7113 12.9546 24.234 12.4213 24.906 12.048C25.578 11.6746 26.3513 11.488 27.226 11.488C28.0687 11.488 28.8207 11.6693 29.482 12.032C30.154 12.3946 30.6713 12.912 31.034 13.584C31.4073 14.2453 31.594 15.008 31.594 15.872ZM29.274 15.232C29.2633 14.656 29.0553 14.1973 28.65 13.856C28.2447 13.504 27.7487 13.328 27.162 13.328C26.6073 13.328 26.138 13.4986 25.754 13.84C25.3807 14.1706 25.1513 14.6346 25.066 15.232H29.274ZM36.701 11.488C37.3623 11.488 37.9437 11.6213 38.445 11.888C38.9463 12.144 39.341 12.48 39.629 12.896V11.632H41.885V20.56C41.885 21.3813 41.7197 22.112 41.389 22.752C41.0583 23.4026 40.5623 23.9146 39.901 24.288C39.2397 24.672 38.4397 24.864 37.501 24.864C36.2423 24.864 35.2077 24.5706 34.397 23.984C33.597 23.3973 33.1437 22.5973 33.037 21.584H35.261C35.3783 21.9893 35.629 22.3093 36.013 22.544C36.4077 22.7893 36.8823 22.912 37.437 22.912C38.0877 22.912 38.6157 22.7146 39.021 22.32C39.4263 21.936 39.629 21.3493 39.629 20.56V19.184C39.341 19.6 38.941 19.9466 38.429 20.224C37.9277 20.5013 37.3517 20.64 36.701 20.64C35.9543 20.64 35.2717 20.448 34.653 20.064C34.0343 19.68 33.5437 19.1413 33.181 18.448C32.829 17.744 32.653 16.9386 32.653 16.032C32.653 15.136 32.829 14.3413 33.181 13.648C33.5437 12.9546 34.029 12.4213 34.637 12.048C35.2557 11.6746 35.9437 11.488 36.701 11.488ZM39.629 16.064C39.629 15.52 39.5223 15.056 39.309 14.672C39.0957 14.2773 38.8077 13.9786 38.445 13.776C38.0823 13.5626 37.693 13.456 37.277 13.456C36.861 13.456 36.477 13.5573 36.125 13.76C35.773 13.9626 35.485 14.2613 35.261 14.656C35.0477 15.04 34.941 15.4986 34.941 16.032C34.941 16.5653 35.0477 17.0346 35.261 17.44C35.485 17.8346 35.773 18.1386 36.125 18.352C36.4877 18.5653 36.8717 18.672 37.277 18.672C37.693 18.672 38.0823 18.5706 38.445 18.368C38.8077 18.1546 39.0957 17.856 39.309 17.472C39.5223 17.0773 39.629 16.608 39.629 16.064ZM45.2088 10.576C44.8141 10.576 44.4834 10.4533 44.2168 10.208C43.9608 9.95197 43.8328 9.6373 43.8328 9.26397C43.8328 8.89064 43.9608 8.5813 44.2168 8.33597C44.4834 8.07997 44.8141 7.95197 45.2088 7.95197C45.6034 7.95197 45.9288 8.07997 46.1848 8.33597C46.4514 8.5813 46.5848 8.89064 46.5848 9.26397C46.5848 9.6373 46.4514 9.95197 46.1848 10.208C45.9288 10.4533 45.6034 10.576 45.2088 10.576ZM46.3128 11.632V20.496H44.0728V11.632H46.3128ZM51.9179 20.64C51.1925 20.64 50.5419 20.512 49.9659 20.256C49.3899 19.9893 48.9312 19.632 48.5899 19.184C48.2592 18.736 48.0779 18.24 48.0459 17.696H50.3019C50.3445 18.0373 50.5099 18.32 50.7979 18.544C51.0965 18.768 51.4645 18.88 51.9019 18.88C52.3285 18.88 52.6592 18.7946 52.8939 18.624C53.1392 18.4533 53.2619 18.2346 53.2619 17.968C53.2619 17.68 53.1125 17.4666 52.8139 17.328C52.5259 17.1786 52.0619 17.0186 51.4219 16.848C50.7605 16.688 50.2165 16.5226 49.7899 16.352C49.3739 16.1813 49.0112 15.92 48.7019 15.568C48.4032 15.216 48.2539 14.7413 48.2539 14.144C48.2539 13.6533 48.3925 13.2053 48.6699 12.8C48.9579 12.3946 49.3632 12.0746 49.8859 11.84C50.4192 11.6053 51.0432 11.488 51.7579 11.488C52.8139 11.488 53.6565 11.7546 54.2859 12.288C54.9152 12.8106 55.2619 13.52 55.3259 14.416H53.1819C53.1499 14.064 53.0005 13.7866 52.7339 13.584C52.4779 13.3706 52.1312 13.264 51.6939 13.264C51.2885 13.264 50.9739 13.3386 50.7499 13.488C50.5365 13.6373 50.4299 13.8453 50.4299 14.112C50.4299 14.4106 50.5792 14.64 50.8779 14.8C51.1765 14.9493 51.6405 15.104 52.2699 15.264C52.9099 15.424 53.4379 15.5893 53.8539 15.76C54.2699 15.9306 54.6272 16.1973 54.9259 16.56C55.2352 16.912 55.3952 17.3813 55.4059 17.968C55.4059 18.48 55.2619 18.9386 54.9739 19.344C54.6965 19.7493 54.2912 20.0693 53.7579 20.304C53.2352 20.528 52.6219 20.64 51.9179 20.64ZM59.8526 13.472V17.76C59.8526 18.0586 59.922 18.2773 60.0606 18.416C60.21 18.544 60.4553 18.608 60.7966 18.608H61.8366V20.496H60.4286C58.5406 20.496 57.5966 19.5786 57.5966 17.744V13.472H56.5406V11.632H57.5966V9.43997H59.8526V11.632H61.8366V13.472H59.8526ZM71.6878 15.872C71.6878 16.192 71.6664 16.48 71.6238 16.736H65.1438C65.1971 17.376 65.4211 17.8773 65.8158 18.24C66.2104 18.6026 66.6958 18.784 67.2718 18.784C68.1038 18.784 68.6958 18.4266 69.0478 17.712H71.4638C71.2078 18.5653 70.7171 19.2693 69.9918 19.824C69.2664 20.368 68.3758 20.64 67.3198 20.64C66.4664 20.64 65.6984 20.4533 65.0158 20.08C64.3438 19.696 63.8158 19.1573 63.4318 18.464C63.0584 17.7706 62.8717 16.9706 62.8717 16.064C62.8717 15.1466 63.0584 14.3413 63.4318 13.648C63.8051 12.9546 64.3278 12.4213 64.9998 12.048C65.6718 11.6746 66.4451 11.488 67.3198 11.488C68.1624 11.488 68.9144 11.6693 69.5758 12.032C70.2478 12.3946 70.7651 12.912 71.1278 13.584C71.5011 14.2453 71.6878 15.008 71.6878 15.872ZM69.3678 15.232C69.3571 14.656 69.1491 14.1973 68.7438 13.856C68.3384 13.504 67.8424 13.328 67.2558 13.328C66.7011 13.328 66.2318 13.4986 65.8478 13.84C65.4744 14.1706 65.2451 14.6346 65.1598 15.232H69.3678ZM75.5628 13.008C75.8508 12.5386 76.2241 12.1706 76.6828 11.904C77.1521 11.6373 77.6854 11.504 78.2828 11.504V13.856H77.6908C76.9868 13.856 76.4534 14.0213 76.0908 14.352C75.7388 14.6826 75.5628 15.2586 75.5628 16.08V20.496H73.3228V11.632H75.5628V13.008Z" fill="white"/>
</svg>
