<svg width="282" height="145" viewBox="0 0 282 145" fill="none" xmlns="http://www.w3.org/2000/svg">
<path fill-rule="evenodd" clip-rule="evenodd" d="M-42.4025 -111.913C-65.4325 -111.684 -84.0404 -95.6594 -103.311 -83.0471C-125.454 -68.5552 -154.189 -58.3224 -162.616 -33.2363C-171.161 -7.79635 -155.022 18.2781 -145.813 43.4853C-136.249 69.6619 -133.977 105.349 -108.155 115.832C-81.7454 126.553 -56.5639 96.0104 -28.4842 91.1166C-4.98624 87.0214 21.4519 102.999 41.3084 89.7832C61.4632 76.3692 62.1952 47.9646 70.5147 25.2283C80.0674 -0.87827 105.651 -27.8207 93.488 -52.8181C81.1597 -78.1554 43.088 -73.0091 17.2483 -84.2461C-3.35582 -93.2063 -19.9355 -112.137 -42.4025 -111.913Z" fill="url(#paint0_linear)" fill-opacity="0.5"/>
<path fill-rule="evenodd" clip-rule="evenodd" d="M69.2126 -114.23C47.5399 -106.437 35.24 -85.1824 21.1913 -66.9322C5.04905 -45.9622 -18.7201 -26.8452 -18.4241 -0.383381C-18.1239 26.4517 5.69493 45.765 22.6845 66.5391C40.3275 88.1122 54.2141 121.065 82.0476 122.469C110.514 123.905 124.246 86.7777 149.152 72.9182C169.995 61.3202 200.217 67.7099 214.621 48.6975C229.24 29.3993 220.587 2.33517 220.963 -21.8725C221.395 -49.6686 236.69 -83.528 216.98 -103.132C197.002 -123.003 162.743 -105.618 134.645 -107.728C112.24 -109.411 90.3553 -121.833 69.2126 -114.23Z" fill="url(#paint1_linear)" fill-opacity="0.7"/>
<path fill-rule="evenodd" clip-rule="evenodd" d="M86.5013 -129.496C67.0385 -141.81 42.7113 -138.459 19.6805 -138.333C-6.78256 -138.189 -36.4687 -145.201 -57.1671 -128.712C-78.1575 -111.99 -78.7651 -81.3312 -84.7207 -55.1636C-90.9052 -27.9896 -108.377 3.21093 -92.3866 26.036C-76.0324 49.3804 -38.3013 37.4079 -12.0651 48.5471C9.89019 57.8687 23.4142 85.6418 47.2642 85.3277C71.4728 85.0088 87.5123 61.5548 106.845 46.9808C129.043 30.2466 165.157 21.5158 168.518 -6.07964C171.925 -34.0502 137.162 -50.4035 121.566 -73.8713C109.13 -92.5841 105.488 -117.483 86.5013 -129.496Z" fill="url(#paint2_linear)"/>
<defs>
<linearGradient id="paint0_linear" x1="35.5965" y1="136.777" x2="-48.9402" y2="-210.279" gradientUnits="userSpaceOnUse">
<stop stop-color="#008F90"/>
<stop offset="0.4971" stop-color="#010101"/>
</linearGradient>
<linearGradient id="paint1_linear" x1="224.687" y1="94.9539" x2="30.6768" y2="-204.969" gradientUnits="userSpaceOnUse">
<stop stop-color="#008F90"/>
<stop offset="0.4971" stop-color="#010101"/>
</linearGradient>
<linearGradient id="paint2_linear" x1="16.9486" y1="121.686" x2="134.428" y2="-215.645" gradientUnits="userSpaceOnUse">
<stop stop-color="#008F90"/>
<stop offset="0.4971" stop-color="#010101"/>
</linearGradient>
</defs>
</svg>
