<svg width="321" height="384" viewBox="0 0 321 384" fill="none" xmlns="http://www.w3.org/2000/svg">
<path fill-rule="evenodd" clip-rule="evenodd" d="M99.0424 390.647C114.836 412.22 142.541 418.936 167.475 428.586C196.125 439.674 225.216 459.863 254.583 450.844C284.364 441.698 298.047 408.835 315.6 383.096C333.827 356.368 365.959 330.085 358.383 298.633C350.635 266.465 304.786 263.367 281.176 240.185C261.418 220.786 258.609 185.036 232.709 175.241C206.421 165.3 179.128 183.822 152.05 191.352C120.958 199.998 78.2348 194.086 62.8781 222.469C47.3126 251.239 77.9198 283.676 84.7965 315.655C90.2798 341.155 83.6348 369.602 99.0424 390.647Z" fill="url(#paint0_linear)" fill-opacity="0.7"/>
<path fill-rule="evenodd" clip-rule="evenodd" d="M210.895 286.777C226.689 308.35 254.394 315.066 279.328 324.716C307.978 335.804 337.069 355.993 366.436 346.974C396.217 337.829 409.9 304.966 427.453 279.227C445.68 252.498 477.812 226.216 470.236 194.763C462.487 162.595 416.639 159.497 393.029 136.315C373.271 116.916 370.461 81.1663 344.562 71.3718C318.274 61.43 290.981 79.9526 263.903 87.4826C232.811 96.1287 190.088 90.2162 174.731 118.6C159.166 147.369 189.773 179.807 196.649 211.786C202.133 237.285 195.488 265.732 210.895 286.777Z" fill="url(#paint1_linear)" fill-opacity="0.7"/>
<path fill-rule="evenodd" clip-rule="evenodd" d="M114.941 309.59C121.745 335.446 145.07 351.836 164.742 369.941C187.347 390.745 207.031 420.18 237.661 422.534C268.724 424.922 293.485 399.346 319.239 381.817C345.984 363.613 385.505 350.913 389.965 318.87C394.527 286.097 352.993 266.435 339.504 236.221C328.216 210.937 338.685 176.639 318.167 158.046C297.341 139.173 265.162 146.422 237.207 143.52C205.108 140.188 167.512 119.05 142.834 139.844C117.819 160.921 134.432 202.31 129.128 234.587C124.899 260.325 108.305 284.366 114.941 309.59Z" fill="url(#paint2_linear)"/>
<defs>
<linearGradient id="paint0_linear" x1="44.4989" y1="247.154" x2="310.914" y2="448.519" gradientUnits="userSpaceOnUse">
<stop stop-color="#960001"/>
<stop offset="0.648054" stop-color="#010101"/>
</linearGradient>
<linearGradient id="paint1_linear" x1="156.352" y1="143.284" x2="422.767" y2="344.649" gradientUnits="userSpaceOnUse">
<stop stop-color="#960001"/>
<stop offset="0.648054" stop-color="#010101"/>
</linearGradient>
<linearGradient id="paint2_linear" x1="116.696" y1="156.09" x2="290.935" y2="440.986" gradientUnits="userSpaceOnUse">
<stop stop-color="#960001"/>
<stop offset="0.648054" stop-color="#010101"/>
</linearGradient>
</defs>
</svg>
