<svg width="915" height="772" viewBox="0 0 915 772" fill="none" xmlns="http://www.w3.org/2000/svg">
<path fill-rule="evenodd" clip-rule="evenodd" d="M760.042 283.293C852.307 269.554 918.039 194.908 988.33 133.583C1069.1 63.118 1178.68 6.07039 1198.52 -99.2615C1218.64 -206.079 1139.38 -301.702 1088.41 -397.703C1035.47 -497.396 1006.49 -639.303 897.058 -666.985C785.139 -695.296 701.116 -558.746 591.189 -523.483C499.198 -493.973 384.239 -543.355 311.934 -479.284C238.543 -414.25 251.418 -299.887 230.697 -204.042C206.905 -93.9892 119.266 28.3402 181.976 121.856C245.539 216.642 395.412 174.804 505.332 205.502C592.98 229.979 670.032 296.695 760.042 283.293Z" fill="url(#paint0_linear)" fill-opacity="0.5"/>
<path fill-rule="evenodd" clip-rule="evenodd" d="M436.321 318.91C507.991 378.618 607.451 377.982 700.006 389.615C806.353 402.982 921.872 446.786 1013.68 391.477C1106.79 335.388 1125.39 212.587 1163.1 110.641C1202.25 4.77432 1288.86 -111.314 1236.68 -211.403C1183.3 -313.77 1025.47 -285.576 925.983 -344.136C842.727 -393.141 803.054 -511.801 707.11 -523.109C609.725 -534.588 532.951 -448.853 447.633 -400.515C349.669 -345.013 200.042 -328.984 171.999 -219.937C143.575 -109.407 274.562 -25.4137 324.823 77.0488C364.9 158.75 366.404 260.661 436.321 318.91Z" fill="url(#paint1_linear)"/>
<path fill-rule="evenodd" clip-rule="evenodd" d="M1162.25 574.628C1251.05 546.037 1303.74 461.677 1363.09 389.716C1431.3 307.032 1530.12 232.888 1532.53 125.731C1534.97 17.0618 1441.19 -64.366 1375.25 -150.776C1306.77 -240.509 1255.05 -375.796 1142.58 -385.274C1027.54 -394.969 966.893 -246.551 864.182 -193.845C778.23 -149.738 656.76 -179.725 595.864 -104.728C534.052 -28.6029 565.391 82.1324 560.567 180.073C555.028 292.532 488.496 427.509 565.608 509.554C643.768 592.715 784.819 527.012 898.272 539.386C988.737 549.253 1075.63 602.52 1162.25 574.628Z" fill="url(#paint2_linear)" fill-opacity="0.7"/>
<defs>
<linearGradient id="paint0_linear" x1="480" y1="204.5" x2="11.5" y2="-126.5" gradientUnits="userSpaceOnUse">
<stop stop-color="#960001"/>
<stop offset="0.970092" stop-color="#010101"/>
</linearGradient>
<linearGradient id="paint1_linear" x1="512.804" y1="-532.372" x2="429.025" y2="296.377" gradientUnits="userSpaceOnUse">
<stop offset="0.239583" stop-color="#010101"/>
<stop offset="1" stop-color="#960001"/>
</linearGradient>
<linearGradient id="paint2_linear" x1="627.15" y1="597.544" x2="1586.74" y2="-63.359" gradientUnits="userSpaceOnUse">
<stop stop-color="#960001"/>
<stop offset="0.425616" stop-color="#010101"/>
</linearGradient>
</defs>
</svg>
