<svg width="182" height="546" viewBox="0 0 182 546" fill="none" xmlns="http://www.w3.org/2000/svg">
<path fill-rule="evenodd" clip-rule="evenodd" d="M-103.828 48.6342C-129.671 55.4866 -146.016 78.8427 -164.084 98.5498C-184.845 121.194 -214.242 140.934 -216.538 171.569C-218.866 202.636 -193.244 227.348 -175.665 253.069C-157.411 279.779 -144.635 319.276 -112.584 323.675C-79.8026 328.174 -60.2196 286.603 -30.0313 273.057C-4.76886 261.721 29.5492 272.124 48.1033 251.571C66.9364 230.709 59.626 198.544 62.4748 170.584C65.7458 138.478 86.8121 100.842 65.9708 76.203C44.8461 51.2289 3.48916 67.9204 -28.7983 62.6781C-54.5436 58.4981 -78.6165 41.9493 -103.828 48.6342Z" fill="url(#paint0_linear)" fill-opacity="0.7"/>
<path fill-rule="evenodd" clip-rule="evenodd" d="M-47.8278 190.634C-73.6709 197.487 -90.016 220.843 -108.084 240.55C-128.845 263.194 -158.242 282.934 -160.538 313.569C-162.866 344.636 -137.244 369.348 -119.665 395.069C-101.411 421.779 -88.6352 461.276 -56.5835 465.675C-23.8026 470.174 -4.21956 428.603 25.9687 415.057C51.2311 403.721 85.5492 414.124 104.103 393.571C122.936 372.709 115.626 340.544 118.475 312.584C121.746 280.478 142.812 242.842 121.971 218.203C100.846 193.229 59.4892 209.92 27.2017 204.678C1.4564 200.498 -22.6165 183.949 -47.8278 190.634Z" fill="url(#paint1_linear)" fill-opacity="0.7"/>
<path fill-rule="evenodd" clip-rule="evenodd" d="M-34.128 92.9617C-60.6861 89.8809 -84.4449 105.635 -108.472 117.363C-136.079 130.838 -170.661 138.451 -184.009 166.12C-197.546 194.179 -182.744 226.554 -175.798 256.924C-168.585 288.462 -171.151 329.894 -142.933 345.718C-114.072 361.902 -80.6339 330.381 -47.5824 328.822C-19.9239 327.518 8.20597 349.759 32.9948 337.422C58.1562 324.9 63.1243 292.291 76.0081 267.313C90.8018 238.632 124.18 211.316 113.802 180.759C103.282 149.786 58.6859 150.185 30.5569 133.49C8.12734 120.178 -8.21924 95.967 -34.128 92.9617Z" fill="url(#paint2_linear)"/>
<path fill-rule="evenodd" clip-rule="evenodd" d="M-60.6828 274.621C-87.2409 271.541 -111 287.295 -135.026 299.022C-162.634 312.498 -197.216 320.11 -210.564 347.779C-224.1 375.839 -209.299 408.214 -202.353 438.584C-195.14 470.122 -197.706 511.554 -169.487 527.378C-140.627 543.562 -107.189 512.041 -74.1372 510.482C-46.4787 509.178 -18.3488 531.419 6.44001 519.082C31.6014 506.559 36.5695 473.951 49.4533 448.972C64.247 420.291 97.6254 392.976 87.247 362.419C76.7276 331.446 32.1311 331.844 4.00206 315.15C-18.4275 301.837 -34.774 277.627 -60.6828 274.621Z" fill="url(#paint3_linear)"/>
<defs>
<linearGradient id="paint0_linear" x1="49.6748" y1="50.096" x2="-234.888" y2="224.878" gradientUnits="userSpaceOnUse">
<stop stop-color="#960001"/>
<stop offset="0.648054" stop-color="#010101"/>
</linearGradient>
<linearGradient id="paint1_linear" x1="105.675" y1="192.096" x2="-178.888" y2="366.878" gradientUnits="userSpaceOnUse">
<stop stop-color="#960001"/>
<stop offset="0.648054" stop-color="#010101"/>
</linearGradient>
<linearGradient id="paint2_linear" x1="108.191" y1="150.499" x2="-220.596" y2="209.015" gradientUnits="userSpaceOnUse">
<stop stop-color="#960001"/>
<stop offset="0.648054" stop-color="#010101"/>
</linearGradient>
<linearGradient id="paint3_linear" x1="81.6359" y1="332.159" x2="-247.151" y2="390.675" gradientUnits="userSpaceOnUse">
<stop stop-color="#960001"/>
<stop offset="0.648054" stop-color="#010101"/>
</linearGradient>
</defs>
</svg>
