<svg width="993" height="980" viewBox="0 0 993 980" fill="none" xmlns="http://www.w3.org/2000/svg">
<path fill-rule="evenodd" clip-rule="evenodd" d="M-130.804 794.153C-210.952 799.923 -280.226 749.505 -350.833 711.142C-431.963 667.062 -534.803 639.672 -571.256 554.841C-608.223 468.814 -559.537 373.544 -534.7 283.264C-508.908 189.513 -511.181 64.7694 -424.378 20.9549C-335.6 -23.8565 -239.327 75.1719 -140.29 84.1836C-57.4119 91.7248 29.9673 28.6292 102.782 68.9223C176.692 109.821 187.336 208.385 222.747 285.074C263.408 373.132 360.052 459.526 324.884 549.918C289.239 641.539 155.384 634.498 68.7339 680.94C-0.358794 717.971 -52.6149 788.525 -130.804 794.153Z" fill="url(#paint0_linear)" fill-opacity="0.5"/>
<path fill-rule="evenodd" clip-rule="evenodd" d="M299.708 1085.78C222.123 1064.86 173.293 994.459 119.238 935.002C57.127 866.685 -30.9766 806.985 -37.4916 714.884C-44.0984 621.484 33.2212 547.535 86.377 470.452C141.577 390.405 180.47 271.858 276.856 259.041C375.435 245.932 433.768 371.121 524.328 412.214C600.111 446.602 703.384 415.766 758.889 477.772C815.229 540.71 792.853 637.288 801.063 721.359C810.489 817.892 873.33 931.272 810.381 1005.06C746.577 1079.85 622.49 1029.17 525.385 1044.52C447.955 1056.76 375.396 1106.19 299.708 1085.78Z" fill="url(#paint1_linear)" fill-opacity="0.7"/>
<path fill-rule="evenodd" clip-rule="evenodd" d="M194.037 946.726C129.869 995.095 44.3202 990.378 -35.8014 996.507C-127.864 1003.55 -229.093 1036.4 -305.769 984.959C-383.527 932.796 -394.381 826.359 -422.551 737.063C-451.804 644.333 -521.454 540.82 -472.358 456.891C-422.145 371.052 -287.528 401.927 -199.472 355.712C-125.784 317.039 -86.6744 216.606 -3.65022 210.899C80.6217 205.106 143.083 282.09 214.465 327.257C296.427 379.119 424.494 399.183 444.051 494.183C463.873 590.474 347.651 657.251 300.11 743.303C262.202 811.919 256.636 899.541 194.037 946.726Z" fill="url(#paint2_linear)"/>
<defs>
<linearGradient id="paint0_linear" x1="69.5224" y1="-92.8606" x2="-125.493" y2="1138.07" gradientUnits="userSpaceOnUse">
<stop stop-color="#008F90"/>
<stop offset="0.4971" stop-color="#010101"/>
</linearGradient>
<linearGradient id="paint1_linear" x1="780.707" y1="314.053" x2="191.577" y2="1412.3" gradientUnits="userSpaceOnUse">
<stop stop-color="#008F90"/>
<stop offset="0.4971" stop-color="#010101"/>
</linearGradient>
<linearGradient id="paint2_linear" x1="-119.434" y1="93.1106" x2="385.257" y2="1232.63" gradientUnits="userSpaceOnUse">
<stop stop-color="#010101"/>
<stop offset="1" stop-color="#008F90"/>
</linearGradient>
</defs>
</svg>
