<svg width="156" height="420" viewBox="0 0 156 420" fill="none" xmlns="http://www.w3.org/2000/svg">
<path fill-rule="evenodd" clip-rule="evenodd" d="M257.332 98.7249C257.486 75.6942 241.773 56.8225 229.483 37.3447C215.361 14.9642 205.607 -13.9374 180.665 -22.7795C155.37 -31.7463 129.031 -16.0431 103.674 -7.25418C77.3424 1.87274 41.6225 3.55136 30.7118 29.1957C19.5529 55.4235 49.673 81.1092 54.0993 109.266C57.8034 132.829 41.389 158.998 54.2724 179.071C67.3496 199.447 95.7381 200.651 118.333 209.347C144.277 219.332 170.791 245.36 195.987 233.614C221.525 221.709 217.013 183.557 228.678 157.908C237.979 137.455 257.182 121.192 257.332 98.7249Z" fill="url(#paint0_linear)" fill-opacity="0.5"/>
<path fill-rule="evenodd" clip-rule="evenodd" d="M257.794 210.363C250.362 188.564 229.315 175.912 211.301 161.562C190.602 145.074 171.883 120.99 145.42 120.846C118.583 120.7 98.8768 144.195 77.8231 160.837C55.9597 178.119 22.7806 191.455 20.9142 219.262C19.0053 247.701 55.8992 262.047 69.3427 287.181C80.5927 308.213 73.7015 338.326 92.4718 353.043C111.524 367.981 138.729 359.779 162.927 360.557C190.712 361.451 224.312 377.307 244.241 357.926C264.442 338.281 247.628 303.738 250.205 275.678C252.26 253.304 265.044 231.629 257.794 210.363Z" fill="url(#paint1_linear)" fill-opacity="0.7"/>
<path fill-rule="evenodd" clip-rule="evenodd" d="M272.771 227.903C285.406 208.648 282.46 184.268 282.717 161.239C283.013 134.777 290.517 105.211 274.374 84.2416C258.004 62.9762 227.359 61.859 201.294 55.4693C174.227 48.8339 143.321 30.846 120.233 46.4547C96.6203 62.4186 107.964 100.344 96.3902 126.391C86.705 148.188 58.7108 161.249 58.6285 185.101C58.5449 209.311 81.7291 225.738 95.9797 245.311C112.343 267.784 120.472 304.038 148.008 307.857C175.918 311.729 192.847 277.242 216.57 262.039C235.487 249.916 260.444 246.688 272.771 227.903Z" fill="url(#paint2_linear)"/>
<defs>
<linearGradient id="paint0_linear" x1="7.38053" y1="172.579" x2="355.793" y2="93.8232" gradientUnits="userSpaceOnUse">
<stop stop-color="#008F90"/>
<stop offset="0.4971" stop-color="#010101"/>
</linearGradient>
<linearGradient id="paint1_linear" x1="46.0544" y1="362.339" x2="349.161" y2="173.341" gradientUnits="userSpaceOnUse">
<stop stop-color="#008F90"/>
<stop offset="0.4971" stop-color="#010101"/>
</linearGradient>
<linearGradient id="paint2_linear" x1="22.7787" y1="154.185" x2="358.111" y2="277.256" gradientUnits="userSpaceOnUse">
<stop stop-color="#008F90"/>
<stop offset="0.4971" stop-color="#010101"/>
</linearGradient>
</defs>
</svg>
