<svg width="44" height="44" viewBox="0 0 44 44" fill="none" xmlns="http://www.w3.org/2000/svg">
<path d="M32.8333 11.1667H43.6666V32.8333H32.8333V37.1667C32.8333 37.7413 33.0615 38.2924 33.4679 38.6987C33.8742 39.1051 34.4253 39.3333 34.9999 39.3333H39.3333V43.6667H33.9166C32.7249 43.6667 30.6666 42.6917 30.6666 41.5C30.6666 42.6917 28.6083 43.6667 27.4166 43.6667H21.9999V39.3333H26.3333C26.9079 39.3333 27.459 39.1051 27.8653 38.6987C28.2716 38.2924 28.4999 37.7413 28.4999 37.1667V6.83334C28.4999 6.25871 28.2716 5.70761 27.8653 5.30128C27.459 4.89495 26.9079 4.66668 26.3333 4.66668H21.9999V0.333344H27.4166C28.6083 0.333344 30.6666 1.30834 30.6666 2.50001C30.6666 1.30834 32.7249 0.333344 33.9166 0.333344H39.3333V4.66668H34.9999C34.4253 4.66668 33.8742 4.89495 33.4679 5.30128C33.0615 5.70761 32.8333 6.25871 32.8333 6.83334V11.1667ZM0.333252 11.1667H24.1666V15.5H4.66659V28.5H24.1666V32.8333H0.333252V11.1667ZM39.3333 28.5V15.5H32.8333V28.5H39.3333Z" fill="#E34444"/>
</svg>
