<svg width="260" height="260" viewBox="0 0 260 260" fill="none" xmlns="http://www.w3.org/2000/svg">
<path fill-rule="evenodd" clip-rule="evenodd" d="M137.53 214.306C120.544 215.529 105.863 204.844 90.8989 196.713C73.705 187.371 51.91 181.566 44.1845 163.588C36.3499 145.356 46.6681 125.166 51.9318 106.033C57.3979 86.1637 56.9161 59.7266 75.3124 50.441C94.1274 40.944 114.53 61.9312 135.52 63.8411C153.084 65.4393 171.602 52.0674 187.034 60.6068C202.698 69.2745 204.954 90.1632 212.459 106.416C221.076 125.078 241.558 143.388 234.105 162.545C226.55 181.962 198.182 180.47 179.818 190.312C165.175 198.161 154.101 213.113 137.53 214.306Z" fill="url(#paint0_linear)" fill-opacity="0.5"/>
<path d="M202.764 32.4741H152.069C150.337 32.4741 148.933 33.8779 148.933 35.6097V91.4941C148.933 93.2258 150.337 94.6297 152.069 94.6297H202.764C204.495 94.6297 205.899 93.2258 205.899 91.4941V35.6097C205.899 33.8779 204.495 32.4741 202.764 32.4741Z" fill="white" stroke="#263238" stroke-linecap="round" stroke-linejoin="round"/>
<path d="M152.069 32.474H202.758C203.586 32.474 204.379 32.8027 204.965 33.3878C205.55 33.9729 205.878 34.7665 205.878 35.594V38.8492H148.933V35.6096C148.931 35.1973 149.011 34.7886 149.168 34.4072C149.325 34.0259 149.555 33.6794 149.847 33.3878C150.139 33.0962 150.485 32.8653 150.866 32.7085C151.248 32.5516 151.656 32.4719 152.069 32.474Z" fill="#263238" stroke="#263238" stroke-linecap="round" stroke-linejoin="round"/>
<path d="M152.038 65.6604H174.959" stroke="#263238" stroke-linecap="round" stroke-linejoin="round"/>
<path d="M152.038 68.6192H174.959" stroke="#263238" stroke-linecap="round" stroke-linejoin="round"/>
<path d="M152.038 71.578H174.959" stroke="#263238" stroke-linecap="round" stroke-linejoin="round"/>
<path d="M152.038 74.5368H174.959" stroke="#263238" stroke-linecap="round" stroke-linejoin="round"/>
<path d="M152.038 77.4956H174.959" stroke="#263238" stroke-linecap="round" stroke-linejoin="round"/>
<path d="M152.038 80.4596H174.959" stroke="#263238" stroke-linecap="round" stroke-linejoin="round"/>
<path d="M152.038 83.4184H174.959" stroke="#263238" stroke-linecap="round" stroke-linejoin="round"/>
<path d="M152.038 86.3772H174.959" stroke="#263238" stroke-linecap="round" stroke-linejoin="round"/>
<path d="M152.038 89.336H174.959" stroke="#263238" stroke-linecap="round" stroke-linejoin="round"/>
<path d="M178.989 65.6604H201.911" stroke="#263238" stroke-linecap="round" stroke-linejoin="round"/>
<path d="M178.989 68.6192H201.911" stroke="#263238" stroke-linecap="round" stroke-linejoin="round"/>
<path d="M178.989 71.578H201.911" stroke="#263238" stroke-linecap="round" stroke-linejoin="round"/>
<path d="M178.989 74.5368H201.911" stroke="#263238" stroke-linecap="round" stroke-linejoin="round"/>
<path d="M178.989 77.4956H201.911" stroke="#263238" stroke-linecap="round" stroke-linejoin="round"/>
<path d="M178.989 80.4596H201.911" stroke="#263238" stroke-linecap="round" stroke-linejoin="round"/>
<path d="M178.989 83.4184H201.911" stroke="#263238" stroke-linecap="round" stroke-linejoin="round"/>
<path d="M178.989 86.3772H201.911" stroke="#263238" stroke-linecap="round" stroke-linejoin="round"/>
<path d="M178.989 89.336H201.911" stroke="#263238" stroke-linecap="round" stroke-linejoin="round"/>
<path d="M167.367 46.9248C167.48 46.5735 167.54 46.2071 167.544 45.838C167.544 44.4912 166.176 44.4132 164.835 44.4132H164.497V44.096H170.352V44.4132C168.828 44.4132 168.272 45.3856 167.799 46.826L164.679 56.1392C164.445 56.8308 164.247 57.3456 163.514 57.3456H163.452L160.706 48.4484L158.153 56.16C157.914 56.8516 157.716 57.3664 156.983 57.3664H156.926L152.932 44.4132H151.528V44.096H156.666V44.4132H155.204L158.168 54.6156H158.288L160.524 47.84L159.484 44.4392H158.08V44.096H163.223V44.4132H161.762L164.726 54.6156H164.84L167.367 46.9248Z" fill="#E34444"/>
<path d="M202.072 41.1476H178.485V62.4676H202.072V41.1476Z" fill="#E34444" stroke="#263238" stroke-width="2" stroke-linecap="round" stroke-linejoin="round"/>
<path d="M202.072 50.0604C201.281 50.1055 200.495 50.2151 199.722 50.388C196.139 51.168 195.203 56.3108 191.152 56.3108C187.564 56.3108 187.257 51.48 182.114 50.856C180.863 50.6589 179.582 50.8859 178.474 51.5008V62.4676H202.072V50.0604Z" fill="#263238" stroke="#263238" stroke-linecap="round" stroke-linejoin="round"/>
<path d="M186.321 46.0252C186.322 46.5502 186.167 47.0636 185.876 47.5006C185.585 47.9375 185.171 48.2782 184.686 48.4795C184.202 48.6809 183.668 48.7339 183.153 48.6317C182.638 48.5296 182.165 48.2769 181.794 47.9057C181.423 47.5345 181.17 47.0614 181.068 46.5465C180.966 46.0316 181.019 45.4979 181.22 45.0131C181.421 44.5283 181.762 44.1142 182.199 43.8232C182.636 43.5322 183.149 43.3774 183.674 43.3784C184.376 43.3784 185.05 43.6573 185.546 44.1537C186.042 44.65 186.321 45.3232 186.321 46.0252Z" fill="white" stroke="#263238" stroke-linecap="round" stroke-linejoin="round"/>
<path d="M203.148 34.3408H150.644V36.3636H203.148V34.3408Z" fill="white" stroke="#263238" stroke-linecap="round" stroke-linejoin="round"/>
<path d="M199.872 107.032H177.143C176.25 107.032 175.392 107.387 174.761 108.019C174.129 108.65 173.774 109.508 173.774 110.401V122.559C173.774 123.452 174.129 124.31 174.761 124.941C175.392 125.573 176.25 125.928 177.143 125.928H177.84C177.133 127.488 175.76 129.88 173.592 131.3C173.592 131.3 178.204 130.978 183.009 125.928H199.862C200.756 125.928 201.613 125.573 202.245 124.941C202.877 124.31 203.232 123.452 203.232 122.559V110.401C203.232 109.509 202.878 108.654 202.248 108.022C201.619 107.391 200.764 107.034 199.872 107.032Z" fill="#263238" stroke="#263238" stroke-linecap="round" stroke-linejoin="round"/>
<path d="M184.6 116.048C184.601 115.704 184.5 115.368 184.309 115.082C184.119 114.795 183.848 114.572 183.53 114.44C183.213 114.308 182.863 114.273 182.526 114.34C182.188 114.406 181.878 114.572 181.635 114.815C181.392 115.058 181.226 115.368 181.16 115.706C181.093 116.043 181.128 116.393 181.26 116.71C181.392 117.028 181.615 117.299 181.902 117.489C182.188 117.68 182.524 117.781 182.868 117.78C183.327 117.779 183.767 117.596 184.091 117.271C184.416 116.947 184.599 116.507 184.6 116.048Z" fill="#24B9BA" stroke="#263238" stroke-linecap="round" stroke-linejoin="round"/>
<path d="M190.492 116.048C190.492 115.706 190.39 115.371 190.2 115.086C190.009 114.802 189.739 114.58 189.423 114.449C189.106 114.318 188.758 114.283 188.422 114.35C188.086 114.417 187.778 114.582 187.536 114.824C187.293 115.066 187.128 115.375 187.062 115.711C186.995 116.046 187.029 116.395 187.16 116.711C187.291 117.027 187.513 117.298 187.798 117.488C188.083 117.678 188.418 117.78 188.76 117.78C189.219 117.779 189.658 117.596 189.983 117.271C190.307 116.947 190.49 116.507 190.492 116.048Z" fill="#24B9BA" stroke="#263238" stroke-linecap="round" stroke-linejoin="round"/>
<path d="M196.388 116.048C196.389 115.705 196.288 115.368 196.098 115.082C195.908 114.796 195.637 114.572 195.32 114.44C195.003 114.308 194.653 114.273 194.316 114.339C193.979 114.406 193.669 114.571 193.425 114.813C193.182 115.056 193.016 115.365 192.949 115.702C192.881 116.04 192.915 116.389 193.046 116.707C193.178 117.024 193.4 117.296 193.686 117.487C193.972 117.678 194.308 117.78 194.652 117.78C195.111 117.779 195.551 117.596 195.876 117.272C196.202 116.947 196.386 116.508 196.388 116.048Z" fill="#24B9BA" stroke="#263238" stroke-linecap="round" stroke-linejoin="round"/>
<path d="M74.88 39.8476H112.32C113.211 39.8476 114.065 40.2015 114.695 40.8315C115.325 41.4615 115.679 42.3159 115.679 43.2068V69.16H71.5364V43.2068C71.5364 42.3186 71.8882 41.4665 72.5148 40.837C73.1414 40.2075 73.9918 39.8517 74.88 39.8476Z" fill="#E34444" stroke="#263238" stroke-linecap="round" stroke-linejoin="round"/>
<path d="M115.658 64.974H71.5364V69.1444H115.658V64.974Z" fill="#263238" stroke="#263238" stroke-linecap="round" stroke-linejoin="round"/>
<path d="M113.641 66.3988H73.5592V67.7196H113.641V66.3988Z" fill="white" stroke="#263238" stroke-linecap="round" stroke-linejoin="round"/>
<path d="M93.6 59.2436C96.9659 59.2436 99.6944 56.5151 99.6944 53.1492C99.6944 49.7834 96.9659 47.0548 93.6 47.0548C90.2342 47.0548 87.5056 49.7834 87.5056 53.1492C87.5056 56.5151 90.2342 59.2436 93.6 59.2436Z" fill="#263238" stroke="#263238" stroke-linecap="round" stroke-linejoin="round"/>
<path d="M90.8492 49.3584L97.4272 53.1544L90.8492 56.9504V49.3584Z" fill="white" stroke="#263238" stroke-linecap="round" stroke-linejoin="round"/>
<path d="M96.5744 79.82H54.6988C53.889 79.82 53.2324 80.4765 53.2324 81.2864V97.2452C53.2324 98.0551 53.889 98.7116 54.6988 98.7116H96.5744C97.3843 98.7116 98.0408 98.0551 98.0408 97.2452V81.2864C98.0408 80.4765 97.3843 79.82 96.5744 79.82Z" fill="#263238" stroke="#263238" stroke-linecap="round" stroke-linejoin="round"/>
<path d="M58.5676 82.394L58.786 82.758C57.798 83.3092 56.8776 84.2764 56.8776 85.41C56.8649 85.6047 56.8913 85.8 56.9551 85.9844C57.0189 86.1688 57.1189 86.3387 57.2491 86.484C57.3794 86.6292 57.5374 86.7471 57.7138 86.8305C57.8902 86.914 58.0814 86.9614 58.2764 86.97C58.422 86.97 58.5208 86.8972 58.5208 86.7516C58.5208 86.606 58.448 86.5592 58.3024 86.5332C58.106 86.48 57.935 86.3587 57.8197 86.1911C57.7045 86.0235 57.6526 85.8204 57.6732 85.618C57.677 85.4565 57.7136 85.2975 57.7807 85.1506C57.8479 85.0038 57.9442 84.8721 58.0639 84.7636C58.1836 84.6551 58.324 84.5721 58.4768 84.5197C58.6295 84.4672 58.7913 84.4463 58.9524 84.4584C59.1276 84.459 59.3009 84.4947 59.4621 84.5635C59.6232 84.6322 59.7689 84.7326 59.8906 84.8586C60.0123 84.9847 60.1075 85.1339 60.1705 85.2973C60.2336 85.4608 60.2632 85.6353 60.2576 85.8104C60.2551 86.0305 60.2082 86.2478 60.1198 86.4493C60.0314 86.6509 59.9033 86.8325 59.7431 86.9835C59.583 87.1344 59.394 87.2516 59.1876 87.3279C58.9811 87.4042 58.7614 87.4381 58.5416 87.4276C58.2683 87.4453 57.9943 87.4053 57.7374 87.3104C57.4805 87.2154 57.2465 87.0676 57.0504 86.8764C56.8543 86.6852 56.7005 86.4549 56.5991 86.2005C56.4977 85.9461 56.4508 85.6732 56.4616 85.3996C56.446 84.084 57.46 83.0232 58.5676 82.394ZM63.0344 82.394L63.2528 82.758C62.2596 83.3092 61.3444 84.2764 61.3444 85.41C61.331 85.6049 61.3569 85.8005 61.4204 85.9852C61.4839 86.1699 61.5839 86.34 61.7143 86.4855C61.8447 86.6309 62.0029 86.7487 62.1797 86.8319C62.3564 86.9152 62.548 86.9621 62.7432 86.97C62.8888 86.97 62.9876 86.8972 62.9876 86.7516C62.9876 86.606 62.9148 86.5592 62.7692 86.5332C62.5729 86.48 62.4018 86.3587 62.2865 86.1911C62.1713 86.0235 62.1194 85.8204 62.14 85.618C62.143 85.4563 62.1791 85.2969 62.246 85.1497C62.313 85.0025 62.4093 84.8705 62.5291 84.7619C62.6489 84.6532 62.7897 84.5703 62.9428 84.5181C63.0959 84.4659 63.258 84.4456 63.4192 84.4584C63.5944 84.459 63.7677 84.4947 63.9289 84.5635C64.09 84.6322 64.2357 84.7326 64.3574 84.8586C64.4791 84.9847 64.5743 85.1339 64.6373 85.2973C64.7004 85.4608 64.73 85.6353 64.7244 85.8104C64.7211 86.0302 64.6738 86.2472 64.5851 86.4484C64.4965 86.6496 64.3684 86.831 64.2084 86.9818C64.0483 87.1326 63.8597 87.2498 63.6536 87.3264C63.4475 87.4029 63.2281 87.4373 63.0084 87.4276C62.7353 87.4445 62.4617 87.404 62.2051 87.3087C61.9486 87.2135 61.7149 87.0656 61.5189 86.8746C61.323 86.6835 61.1693 86.4536 61.0676 86.1996C60.9658 85.9455 60.9184 85.673 60.9284 85.3996C60.9076 84.084 61.9216 83.0232 63.0344 82.394Z" fill="#E34444"/>
<path d="M67.3088 86.242H92.8096" stroke="white" stroke-linecap="round" stroke-linejoin="round"/>
<path d="M67.3088 88.4312H92.8096" stroke="white" stroke-linecap="round" stroke-linejoin="round"/>
<path d="M67.3088 90.6204H92.8096" stroke="white" stroke-linecap="round" stroke-linejoin="round"/>
<path d="M67.3088 92.8148H92.8096" stroke="white" stroke-linecap="round" stroke-linejoin="round"/>
<path d="M88.2977 128.003C93.5611 127.144 97.1316 122.181 96.2725 116.917C95.4134 111.654 90.4501 108.083 85.1867 108.942C79.9232 109.801 76.3528 114.765 77.2119 120.028C78.071 125.292 83.0343 128.862 88.2977 128.003Z" fill="#263238" stroke="#263238" stroke-linecap="round" stroke-linejoin="round"/>
<path d="M92.8671 123.861C95.8367 120.479 95.5028 115.331 92.1214 112.361C88.7401 109.392 83.5916 109.725 80.622 113.107C77.6524 116.488 77.9863 121.637 81.3677 124.606C84.749 127.576 89.8975 127.242 92.8671 123.861Z" fill="white" stroke="#263238" stroke-linecap="round" stroke-linejoin="round"/>
<path d="M86.7464 112.58V118.472H90.7296" stroke="#263238" stroke-width="2" stroke-linecap="round" stroke-linejoin="round"/>
<path d="M147.16 118.492C147.16 118.492 152.698 130.312 152.698 130.936C152.698 131.56 147.784 134.233 146.848 134.794C146.122 135.208 145.374 135.581 144.607 135.912L145.168 141.388C145.168 141.388 153.629 139.459 157.175 137.53C160.722 135.6 160.597 133.422 159.775 130.187C158.954 126.953 153.488 114.452 153.488 114.452L147.16 118.492Z" fill="white"/>
<g style="mix-blend-mode:multiply" opacity="0.5">
<path d="M157.16 137.53C160.706 135.6 160.581 133.422 159.76 130.187C158.938 126.953 153.473 114.452 153.473 114.452L152.589 115.014L152.308 115.534C152.308 115.534 157.409 128.055 157.716 132.226C157.924 135.028 152.282 138.523 148.554 140.52C151.32 139.786 155.085 138.658 157.16 137.53Z" fill="#24B9BA"/>
</g>
<path d="M147.16 118.492C147.16 118.492 152.698 130.312 152.698 130.936C152.698 131.56 147.784 134.233 146.848 134.794C146.122 135.208 145.374 135.581 144.607 135.912L145.168 141.388C145.168 141.388 153.629 139.459 157.175 137.53C160.722 135.6 160.597 133.422 159.775 130.187C158.954 126.953 153.488 114.452 153.488 114.452L147.16 118.492Z" stroke="#263238" stroke-linecap="round" stroke-linejoin="round"/>
<path d="M107.203 115.882C107.203 115.882 103.163 130.686 103.043 133.302C102.924 135.918 111.067 141.076 111.363 141.388C111.66 141.7 110.9 132.392 110.9 132.392L113.662 118.872L107.203 115.882Z" fill="white"/>
<g style="mix-blend-mode:multiply" opacity="0.5">
<path d="M109.054 117.094L108.966 116.693L107.203 115.882C107.203 115.882 103.163 130.686 103.043 133.302C102.924 135.918 111.067 141.076 111.363 141.388C111.483 141.513 111.436 140.119 111.337 138.398C108.914 136.344 105.435 133.453 105.03 132.236" fill="#24B9BA"/>
</g>
<path d="M107.203 115.882C107.203 115.882 103.163 130.686 103.043 133.302C102.924 135.918 111.067 141.076 111.363 141.388C111.66 141.7 110.9 132.392 110.9 132.392L113.662 118.872L107.203 115.882Z" stroke="#263238" stroke-linecap="round" stroke-linejoin="round"/>
<path d="M126.178 101.01C126.178 101.01 124.618 102.133 121.576 102.258C118.534 102.383 118.388 100.178 114.608 100.178C110.027 100.178 104.281 114.67 104.281 114.67C104.281 114.67 107.141 117.473 109.944 118.654C111.494 119.333 113.124 119.813 114.795 120.084L115.232 129.605H146.089L146.458 120.084L156.104 113.828C156.104 113.828 151.372 105.368 149.074 102.196C146.775 99.0236 142.912 100.204 141.731 101.01C140.551 101.816 137.051 102.008 135.762 101.821C134.079 101.449 132.417 100.992 130.78 100.454C130.78 100.454 128.794 98.8 126.178 101.01Z" fill="#E34444" stroke="#263238" stroke-linecap="round" stroke-linejoin="round"/>
<path d="M115.107 104.369L114.982 120.172" stroke="#263238" stroke-width="0.5" stroke-linecap="round" stroke-linejoin="round"/>
<path d="M116.225 105.804C116.225 105.804 116.662 113.516 118.305 117.811" stroke="#263238" stroke-width="0.5" stroke-linecap="round" stroke-linejoin="round"/>
<path d="M118.591 118.43C118.946 119.478 119.382 120.497 119.896 121.477" stroke="#263238" stroke-width="0.5" stroke-linecap="round" stroke-linejoin="round"/>
<path d="M117.218 104.931C117.809 107.735 118.642 110.482 119.709 113.142" stroke="#263238" stroke-width="0.5" stroke-linecap="round" stroke-linejoin="round"/>
<path d="M144.04 106.298C144.04 106.298 142.548 112.398 141.237 115.138" stroke="#263238" stroke-width="0.5" stroke-linecap="round" stroke-linejoin="round"/>
<path d="M146.458 120.11L146.396 107.791" stroke="#263238" stroke-width="0.5" stroke-linecap="round" stroke-linejoin="round"/>
<path d="M145.777 108.04C145.777 108.04 144.654 115.84 141.918 119.922" stroke="#263238" stroke-width="0.5" stroke-linecap="round" stroke-linejoin="round"/>
<path d="M144.409 118.368C144.409 118.368 143.161 120.734 142.293 121.976" stroke="#263238" stroke-width="0.5" stroke-linecap="round" stroke-linejoin="round"/>
<path d="M124.436 101.946C124.436 101.946 125.31 107.297 126.552 110.032C127.795 112.767 129.974 113.329 131.841 112.523C133.708 111.717 135.075 107.728 134.961 102.643" stroke="#263238" stroke-width="0.5" stroke-linecap="round" stroke-linejoin="round"/>
<path d="M120.021 90.7452C120.021 90.7452 118.836 88.6964 117.905 89.752C116.974 90.8076 118.654 93.236 119.584 94.042C120.515 94.848 121.202 94.354 121.144 93.4856C121.087 92.6172 120.021 90.7452 120.021 90.7452Z" fill="#24B9BA" stroke="#263238" stroke-linecap="round" stroke-linejoin="round"/>
<path opacity="0.5" d="M120.021 90.7452C120.021 90.7452 118.836 88.6964 117.905 89.752C116.974 90.8076 118.654 93.236 119.584 94.042C120.515 94.848 121.202 94.354 121.144 93.4856C121.087 92.6172 120.021 90.7452 120.021 90.7452Z" fill="white"/>
<path d="M120.021 90.7452C120.021 90.7452 118.836 88.6964 117.905 89.752C116.974 90.8076 118.654 93.236 119.584 94.042C120.515 94.848 121.202 94.354 121.144 93.4856C121.087 92.6172 120.021 90.7452 120.021 90.7452Z" stroke="#263238" stroke-linecap="round" stroke-linejoin="round"/>
<path d="M138.84 90.7452C138.84 90.7452 140.02 88.6964 140.956 89.752C141.892 90.8076 140.208 93.236 139.277 94.042C138.346 94.848 137.654 94.354 137.717 93.4856C137.779 92.6172 138.84 90.7452 138.84 90.7452Z" fill="#24B9BA" stroke="#263238" stroke-linecap="round" stroke-linejoin="round"/>
<path opacity="0.5" d="M138.84 90.7452C138.84 90.7452 140.02 88.6964 140.956 89.752C141.892 90.8076 140.208 93.236 139.277 94.042C138.346 94.848 137.654 94.354 137.717 93.4856C137.779 92.6172 138.84 90.7452 138.84 90.7452Z" fill="white"/>
<path d="M138.84 90.7452C138.84 90.7452 140.02 88.6964 140.956 89.752C141.892 90.8076 140.208 93.236 139.277 94.042C138.346 94.848 137.654 94.354 137.717 93.4856C137.779 92.6172 138.84 90.7452 138.84 90.7452Z" stroke="#263238" stroke-linecap="round" stroke-linejoin="round"/>
<path d="M125.616 100.578C126.204 103.234 126.952 105.851 127.858 108.415C128.981 111.212 131.092 111.212 131.966 109.408C132.839 107.604 133.396 100.88 133.396 100.88C133.396 100.88 127.546 101.696 125.616 100.578Z" fill="white" stroke="#263238" stroke-linecap="round" stroke-linejoin="round"/>
<path d="M120.146 91.4316C120.146 91.4316 121.763 97.1516 124.826 100.516C127.889 103.88 128.986 104.676 130.614 104.432C132.241 104.187 133.973 102.071 136.396 97.6716C138.819 93.2724 138.996 89.8976 139.199 89.5856C139.402 89.2736 138.679 83.0544 135.216 80.3764C131.752 77.6984 127.873 76.5232 124.514 79.4456C121.155 82.368 119.023 87.1364 120.146 91.4316Z" fill="white"/>
<g style="mix-blend-mode:multiply" opacity="0.5">
<path d="M135.2 80.3556C131.716 77.6828 127.858 76.5024 124.498 79.4248C121.139 82.3472 119.023 87.1364 120.146 91.4316C120.146 91.4316 120.453 92.534 121.061 94.0316C121.059 93.8399 121.086 93.6489 121.139 93.4648C121.883 91.1092 124.077 86.5488 131.461 88.6392C137.327 90.2928 136.609 95.4512 136.063 98.202L136.38 97.63C138.809 93.2152 138.98 89.856 139.183 89.544C139.386 89.232 138.684 83.0336 135.2 80.3556Z" fill="#24B9BA"/>
</g>
<path d="M120.146 91.4316C120.146 91.4316 121.763 97.1516 124.826 100.516C127.889 103.88 128.986 104.676 130.614 104.432C132.241 104.187 133.973 102.071 136.396 97.6716C138.819 93.2724 138.996 89.8976 139.199 89.5856C139.402 89.2736 138.679 83.0544 135.216 80.3764C131.752 77.6984 127.873 76.5232 124.514 79.4456C121.155 82.368 119.023 87.1364 120.146 91.4316Z" stroke="#263238" stroke-linecap="round" stroke-linejoin="round"/>
<path d="M130.598 94.4164C130.405 95.631 130.301 96.8579 130.286 98.0876C130.348 99.3304 130.723 99.7048 130.161 99.8296C129.6 99.9544 128.981 99.0808 128.981 99.0808" stroke="#263238" stroke-linecap="round" stroke-linejoin="round"/>
<path d="M124.374 95.4148C124.734 95.6752 125.165 95.8205 125.609 95.8316C126.054 95.8427 126.491 95.7192 126.864 95.4772" stroke="#263238" stroke-linecap="round" stroke-linejoin="round"/>
<path d="M132.278 95.4148C132.637 95.6747 133.067 95.8198 133.511 95.8309C133.954 95.842 134.391 95.7188 134.763 95.4772" stroke="#263238" stroke-linecap="round" stroke-linejoin="round"/>
<path d="M128.346 93.3192C128.346 93.3192 127.161 90.3916 123.245 91.7592" stroke="#263238" stroke-linecap="round" stroke-linejoin="round"/>
<path d="M131.607 92.9604C131.607 92.9604 132.6 90.0952 136.146 91.7748" stroke="#263238" stroke-linecap="round" stroke-linejoin="round"/>
<path d="M129.1 95.628C129.1 97.2296 127.265 98.5244 124.998 98.5244C122.73 98.5244 120.89 97.2296 120.89 95.628C120.89 94.0264 122.606 93.3608 124.873 93.3608C127.14 93.3608 129.1 94.0316 129.1 95.628Z" stroke="#263238" stroke-linecap="round" stroke-linejoin="round"/>
<path d="M138.559 95.628C138.559 97.2296 136.718 98.5244 134.451 98.5244C132.184 98.5244 130.348 97.2296 130.348 95.628C130.348 94.0264 132.059 93.3608 134.326 93.3608C136.594 93.3608 138.559 94.0316 138.559 95.628Z" stroke="#263238" stroke-linecap="round" stroke-linejoin="round"/>
<path d="M86.1276 145.512L85.8728 208.551C85.8728 208.75 85.9517 208.94 86.0921 209.081C86.2325 209.221 86.423 209.3 86.6216 209.3C86.8153 209.3 87.0013 209.225 87.1402 209.09C87.2791 208.955 87.3598 208.771 87.3652 208.577L89.1644 145.6L86.1276 145.512Z" fill="white" stroke="#263238" stroke-linecap="round" stroke-linejoin="round"/>
<path d="M81.8844 160.248L81.64 225.42C81.6393 225.519 81.6582 225.616 81.6956 225.707C81.733 225.799 81.7881 225.881 81.8578 225.951C81.9275 226.021 82.0103 226.076 82.1015 226.113C82.1926 226.151 82.2903 226.17 82.3888 226.169C82.5821 226.169 82.768 226.094 82.9076 225.961C83.0471 225.827 83.1296 225.644 83.1376 225.451L84.9316 160.332L81.8844 160.248Z" fill="white" stroke="#263238" stroke-linecap="round" stroke-linejoin="round"/>
<path d="M173.28 145.512L173.534 208.551C173.535 208.649 173.516 208.747 173.479 208.837C173.442 208.928 173.388 209.011 173.318 209.08C173.249 209.15 173.167 209.205 173.077 209.243C172.986 209.281 172.889 209.3 172.791 209.3C172.597 209.3 172.41 209.225 172.27 209.09C172.131 208.955 172.049 208.771 172.042 208.577L170.248 145.6L173.28 145.512Z" fill="white" stroke="#263238" stroke-linecap="round" stroke-linejoin="round"/>
<path d="M177.528 160.248L177.783 225.42C177.784 225.519 177.765 225.616 177.727 225.707C177.69 225.799 177.635 225.881 177.565 225.951C177.495 226.021 177.413 226.076 177.321 226.113C177.23 226.151 177.133 226.17 177.034 226.169C176.841 226.169 176.656 226.094 176.517 225.96C176.378 225.826 176.297 225.644 176.29 225.451L174.491 160.332L177.528 160.248Z" fill="white" stroke="#263238" stroke-linecap="round" stroke-linejoin="round"/>
<path d="M111.431 162.958L111.28 220.802C111.264 220.947 111.304 221.092 111.392 221.207C111.48 221.323 111.61 221.399 111.753 221.421C111.893 221.402 112.021 221.33 112.11 221.22C112.199 221.109 112.242 220.97 112.232 220.828L113.36 163.025L111.431 162.958Z" fill="white" stroke="#263238" stroke-linecap="round" stroke-linejoin="round"/>
<path d="M148.044 161.096L148.184 211.578C148.196 211.7 148.161 211.822 148.085 211.919C148.01 212.015 147.9 212.08 147.779 212.098C147.658 212.08 147.548 212.015 147.474 211.918C147.399 211.821 147.365 211.699 147.378 211.578L146.416 161.138L148.044 161.096Z" fill="white" stroke="#263238" stroke-linecap="round" stroke-linejoin="round"/>
<path d="M110.864 161.096L111.004 211.578C111.016 211.7 110.981 211.822 110.905 211.919C110.83 212.015 110.72 212.08 110.599 212.098C110.478 212.08 110.368 212.015 110.294 211.918C110.219 211.821 110.185 211.699 110.198 211.578L109.236 161.138L110.864 161.096Z" fill="white" stroke="#263238" stroke-linecap="round" stroke-linejoin="round"/>
<path d="M146.999 162.958L147.16 220.802C147.176 220.947 147.136 221.092 147.048 221.207C146.96 221.323 146.83 221.399 146.687 221.421C146.547 221.401 146.42 221.328 146.332 221.218C146.243 221.108 146.199 220.969 146.208 220.828L145.08 163.025L146.999 162.958Z" fill="white" stroke="#263238" stroke-linecap="round" stroke-linejoin="round"/>
<path d="M128.96 167.008C141.74 167.008 152.1 164.641 152.1 161.72C152.1 158.799 141.74 156.432 128.96 156.432C116.18 156.432 105.82 158.799 105.82 161.72C105.82 164.641 116.18 167.008 128.96 167.008Z" fill="white" stroke="#263238" stroke-linecap="round" stroke-linejoin="round"/>
<path d="M117.692 206.612C117.692 206.612 116.48 208.348 117.348 209.212C118.217 210.075 119.08 209.732 118.992 210.6C118.903 211.468 117.52 214.412 116.308 217.532C115.097 220.652 117.608 223.772 119.948 222.908C122.288 222.045 122.028 213.372 122.372 211.812C122.715 210.252 122.98 209.992 122.892 208.52C122.803 207.048 122.72 205.488 121.592 205.312C120.463 205.135 118.212 206.008 117.692 206.612Z" fill="white" stroke="#263238" stroke-linecap="round" stroke-linejoin="round"/>
<path d="M121.41 220.516C119.85 219.924 117.458 220.043 116.111 220.178C116.563 222.139 118.295 223.517 119.948 222.908C120.64 222.654 121.092 221.728 121.41 220.516Z" fill="#24B9BA" stroke="#263238" stroke-linecap="round" stroke-linejoin="round"/>
<path d="M115.008 202.8C115.008 202.8 117.52 207.048 118.212 208.172C118.903 209.295 121.248 208.952 121.508 207.392C121.768 205.832 120.552 201.5 120.552 201.5L115.352 202.8H115.008Z" fill="white" stroke="#263238" stroke-linecap="round" stroke-linejoin="round"/>
<path d="M109.028 196.04C109.028 196.04 108.332 197.168 108.68 197.948C109.028 198.728 109.98 200.98 110.588 202.108C111.197 203.237 113.968 203.928 117.172 203.408C120.375 202.888 122.2 201.412 122.288 200.112C122.377 198.812 121.768 197.08 121.332 195C120.895 192.92 119.772 193.008 118.212 193.008C116.652 193.008 110.328 194.828 109.028 196.04Z" fill="#24B9BA" stroke="#263238" stroke-linecap="round" stroke-linejoin="round"/>
<path d="M118.388 170.56C118.435 168.428 119.668 167.378 119.761 165.916C119.908 163.985 119.748 162.042 119.288 160.16L116.917 156.92C110.094 157.009 105.206 157.123 105.128 157.149C104.868 157.232 104.692 158.709 104.52 159.921C104.52 159.921 101.624 160.29 102.144 168.35C102.216 169.473 105.139 182.468 105.352 183.95C106.652 193.003 109.548 197.538 109.548 197.538C109.548 197.538 109.808 198.666 113.188 198.406C116.568 198.146 119.948 195.894 119.948 195.894C119.948 195.894 118.212 178.272 118.388 170.56Z" fill="#263238" stroke="#263238" stroke-linecap="round" stroke-linejoin="round"/>
<path d="M104.052 158.6C104.052 158.6 100.469 159.12 98.2748 161.626C96.0804 164.133 97.942 165.786 102.206 165.339C106.47 164.892 111.389 160.529 111.597 160.295C111.805 160.061 107.151 157.097 104.052 158.6Z" fill="white" stroke="#263238" stroke-linecap="round" stroke-linejoin="round"/>
<path d="M110.412 160.16C112.694 160.277 114.959 160.626 117.172 161.2C120.12 162.068 125.32 163.8 126.532 163.8C127.743 163.8 127.4 159.292 127.4 158.428C127.4 157.565 111.8 157.04 109.892 157.04C107.983 157.04 110.412 160.16 110.412 160.16Z" fill="white" stroke="#263238" stroke-linecap="round" stroke-linejoin="round"/>
<path d="M127.4 158.428C127.4 158.428 126.012 159.12 125.492 161.72C124.972 164.32 124.28 165.708 125.32 166.4C126.36 167.092 130.868 167.612 131.56 166.92C132.252 166.228 134.16 162.76 134.508 160.508C134.857 158.257 127.4 158.428 127.4 158.428Z" fill="#24B9BA" stroke="#263238" stroke-linecap="round" stroke-linejoin="round"/>
<path d="M133.292 159.292C132.486 160.217 131.842 161.272 131.388 162.412C131.021 163.605 130.731 164.821 130.52 166.052C132.179 166.506 133.801 167.087 135.372 167.788C138.148 169 142.828 169.868 147.332 170.908C151.835 171.948 153.052 172.988 154.612 172.988C156.172 172.988 158.08 171.772 160.508 168.828C162.937 165.885 160.852 159.64 158.428 157.732C156.005 155.823 143 154.268 141.268 154.788C139.537 155.308 133.292 159.292 133.292 159.292Z" fill="#263238" stroke="#263238" stroke-linecap="round" stroke-linejoin="round"/>
<path d="M100.771 165.386C100.428 163.83 99.7346 162.374 98.7428 161.127C98.5816 161.278 98.4256 161.434 98.2748 161.606C96.3456 163.8 97.552 165.36 100.771 165.386Z" fill="#24B9BA" stroke="#263238" stroke-linecap="round" stroke-linejoin="round"/>
<path d="M118.123 166.759C118.123 166.759 116.334 185.9 112.684 188.88" stroke="white" stroke-width="0.5" stroke-linecap="round" stroke-linejoin="round"/>
<path d="M116.86 184.928C116.86 184.928 115.44 191.168 111.717 193.648" stroke="white" stroke-width="0.5" stroke-linecap="round" stroke-linejoin="round"/>
<path d="M139.88 163.28C139.88 163.28 134.332 163.628 137.972 166.052C141.612 168.475 148.2 170.04 148.2 170.04" stroke="white" stroke-width="0.5" stroke-linecap="round" stroke-linejoin="round"/>
<path d="M180.159 156.723L178.287 155.038L173.961 145.678C173.756 145.252 173.433 144.894 173.032 144.644C172.63 144.395 172.166 144.264 171.694 144.269H87.6616C87.188 144.263 86.7228 144.393 86.3203 144.643C85.9178 144.892 85.5948 145.251 85.3892 145.678L79.9968 157.336L79.1076 157.009V159.676L79.1492 159.645C79.2022 160.001 79.3828 160.326 79.6574 160.558C79.932 160.791 80.2818 160.915 80.6416 160.909H178.708C179.087 160.918 179.455 160.779 179.733 160.522C180.012 160.264 180.179 159.909 180.201 159.531L180.159 156.723Z" fill="#263238" stroke="#263238" stroke-linecap="round" stroke-linejoin="round"/>
<path d="M178.708 158.47H80.6416C80.3988 158.48 80.1574 158.427 79.9403 158.318C79.7231 158.209 79.5372 158.047 79.4 157.846C79.2628 157.646 79.1788 157.413 79.1558 157.171C79.1329 156.929 79.1718 156.686 79.2688 156.463L85.3892 143.239C85.5938 142.812 85.9166 142.452 86.3193 142.202C86.722 141.952 87.1878 141.823 87.6616 141.83H171.694C172.167 141.824 172.631 141.954 173.033 142.204C173.435 142.453 173.757 142.813 173.961 143.239L180.081 156.463C180.178 156.686 180.217 156.929 180.194 157.171C180.171 157.413 180.087 157.646 179.95 157.846C179.813 158.047 179.627 158.209 179.41 158.318C179.193 158.427 178.951 158.48 178.708 158.47Z" fill="white" stroke="#263238" stroke-linecap="round" stroke-linejoin="round"/>
<g style="mix-blend-mode:multiply" opacity="0.5">
<path d="M85.6076 149.588C85.6076 149.588 83.3872 151.112 84.7756 151.668C86.164 152.225 102.123 151.809 104.068 151.252C106.012 150.696 108.228 145.564 108.228 144.732C108.228 143.9 105.43 143.302 104.4 143.255C103.371 143.208 89.7676 144.035 89.7676 144.035L85.6076 149.588Z" fill="#24B9BA"/>
</g>
<g style="mix-blend-mode:multiply" opacity="0.5">
<path d="M164.991 152.225C168.133 152.225 170.68 151.168 170.68 149.864C170.68 148.56 168.133 147.503 164.991 147.503C161.849 147.503 159.302 148.56 159.302 149.864C159.302 151.168 161.849 152.225 164.991 152.225Z" fill="#24B9BA"/>
</g>
<g style="mix-blend-mode:multiply" opacity="0.5">
<path d="M128.773 155.142C140.039 155.142 149.172 153.433 149.172 151.325C149.172 149.217 140.039 147.508 128.773 147.508C117.506 147.508 108.373 149.217 108.373 151.325C108.373 153.433 117.506 155.142 128.773 155.142Z" fill="#24B9BA"/>
</g>
<path d="M160.831 140.577C160.831 140.577 160.456 139.084 159.214 139.584C157.971 140.083 158.096 143.38 158.34 145.246C158.584 147.113 160.269 146.24 160.269 146.24V145.122C160.269 145.122 159.65 145.616 159.338 144.934C159.026 144.253 159.089 140.826 159.401 140.889C159.713 140.951 160.332 142.007 160.332 142.007C160.332 142.007 160.519 141.887 160.831 140.577Z" fill="#24B9BA" stroke="#263238" stroke-linecap="round" stroke-linejoin="round"/>
<path d="M159.936 140.826V149.001C159.936 149.963 162.146 150.743 164.876 150.743C167.606 150.743 169.811 149.963 169.811 149.001V140.826H159.936Z" fill="#24B9BA" stroke="#263238" stroke-linecap="round" stroke-linejoin="round"/>
<path d="M169.811 140.826C169.811 141.658 167.601 142.329 164.876 142.329C162.152 142.329 159.936 141.658 159.936 140.826C159.936 139.994 162.146 139.324 164.876 139.324C167.606 139.324 169.811 140 169.811 140.826Z" fill="white" stroke="#263238" stroke-linecap="round" stroke-linejoin="round"/>
<path d="M169.166 140.826C169.166 141.549 167.242 142.132 164.876 142.132C162.51 142.132 160.581 141.549 160.581 140.826C160.581 140.104 162.505 139.521 164.876 139.521C167.248 139.521 169.166 140.104 169.166 140.826Z" fill="white" stroke="#263238" stroke-linecap="round" stroke-linejoin="round"/>
<path d="M161.564 141.658C163.725 142.289 166.022 142.289 168.184 141.658C166.022 141.028 163.725 141.028 161.564 141.658Z" fill="#263238" stroke="#263238" stroke-linecap="round" stroke-linejoin="round"/>
<path d="M84.994 144.56L85.0564 147.358L103.906 147.545V144.31L84.994 144.56Z" fill="white" stroke="#263238" stroke-linecap="round" stroke-linejoin="round"/>
<path d="M103.906 147.545L106.647 141.638V139.896L103.782 144.872L103.906 147.545Z" fill="white" stroke="#263238" stroke-linecap="round" stroke-linejoin="round"/>
<path d="M84.994 147.108L85.0564 149.911L103.906 150.098V146.864L84.994 147.108Z" fill="white" stroke="#263238" stroke-linecap="round" stroke-linejoin="round"/>
<path d="M103.906 150.098L106.647 144.186V142.444L103.782 147.42L103.906 150.098Z" fill="white" stroke="#263238" stroke-linecap="round" stroke-linejoin="round"/>
<path d="M92.274 137.467C92.274 137.467 92.7108 136.599 92.0868 136.224C91.4628 135.85 90.7816 136.744 90.4072 137.03C90.0328 137.316 82.1964 142.506 81.9468 143.317C81.6972 144.128 81.9468 145.917 83.6264 146.115C85.306 146.312 86.7984 145.184 87.5472 144.997C88.296 144.81 88.5872 144.747 88.5872 144.747L93.7508 137.779L92.274 137.467Z" fill="white" stroke="#263238" stroke-linecap="round" stroke-linejoin="round"/>
<path d="M83.6264 146.12C85.306 146.307 86.7984 145.189 87.5472 145.002C88.296 144.815 88.5872 144.752 88.5872 144.752L88.7744 144.498L83.9228 143.51C83.659 143.261 83.3199 143.108 82.9591 143.074C82.5984 143.04 82.2366 143.127 81.9312 143.322C81.6972 144.123 81.9468 145.928 83.6264 146.12Z" fill="white" stroke="#263238" stroke-linecap="round" stroke-linejoin="round"/>
<path d="M83.9384 143.52H98.4984C103.043 143.52 104.411 143.27 104.411 143.27L107.208 137.483C107.208 137.483 98.3684 138.044 95.6384 137.857C94.5103 137.825 93.3868 137.699 92.2792 137.483L83.9384 143.52Z" fill="white" stroke="#263238" stroke-linecap="round" stroke-linejoin="round"/>
<path d="M83.9384 143.52L84.188 144.638C84.188 144.638 96.0076 144.7 99.1172 144.7C102.227 144.7 104.593 144.825 104.593 144.825L104.406 143.265L83.9384 143.52Z" fill="white" stroke="#263238" stroke-linecap="round" stroke-linejoin="round"/>
<path d="M104.593 144.81L107.203 138.835V137.467L104.406 143.255L104.593 144.81Z" fill="white" stroke="#263238" stroke-linecap="round" stroke-linejoin="round"/>
<path d="M146.588 151.798H110.942C110.863 151.799 110.785 151.784 110.712 151.754C110.638 151.725 110.572 151.681 110.516 151.625C110.46 151.57 110.415 151.503 110.385 151.43C110.354 151.358 110.339 151.279 110.339 151.2C110.339 151.121 110.354 151.043 110.385 150.97C110.415 150.897 110.46 150.831 110.516 150.776C110.572 150.72 110.638 150.676 110.712 150.646C110.785 150.617 110.863 150.602 110.942 150.602H146.588C146.667 150.602 146.745 150.617 146.818 150.647C146.891 150.676 146.957 150.72 147.012 150.776C147.068 150.832 147.112 150.898 147.142 150.971C147.172 151.044 147.187 151.122 147.186 151.2C147.187 151.279 147.172 151.357 147.142 151.43C147.112 151.503 147.068 151.569 147.012 151.625C146.957 151.68 146.891 151.724 146.818 151.754C146.745 151.784 146.667 151.799 146.588 151.798Z" fill="white" stroke="#263238" stroke-linecap="round" stroke-linejoin="round"/>
<path d="M146.89 150.592H110.635C110.503 150.592 110.375 150.542 110.278 150.451C110.181 150.36 110.123 150.236 110.115 150.103L108.144 126.417C108.136 126.344 108.142 126.269 108.165 126.199C108.187 126.129 108.224 126.064 108.273 126.008C108.322 125.953 108.382 125.909 108.45 125.879C108.517 125.849 108.591 125.834 108.664 125.835H148.866C148.939 125.834 149.013 125.849 149.08 125.879C149.148 125.909 149.208 125.953 149.257 126.008C149.306 126.064 149.343 126.129 149.365 126.199C149.388 126.269 149.394 126.344 149.386 126.417L147.415 150.103C147.407 150.237 147.348 150.362 147.25 150.453C147.152 150.544 147.023 150.594 146.89 150.592Z" fill="white" stroke="#263238" stroke-linecap="round" stroke-linejoin="round"/>
<path d="M132.184 138.622C132.184 140.036 130.65 141.18 128.762 141.18C126.875 141.18 125.336 140.036 125.336 138.622C125.336 137.207 126.87 136.068 128.762 136.068C130.655 136.068 132.184 137.212 132.184 138.622Z" fill="white" stroke="#263238" stroke-linecap="round" stroke-linejoin="round"/>
<path d="M167.612 120.12C168.168 119.686 168.558 119.075 168.719 118.388C168.836 117.873 168.824 117.337 168.683 116.828" stroke="#263238" stroke-linecap="round" stroke-linejoin="round"/>
<path d="M163.462 138.663C163.462 138.663 166.92 136.583 165.792 134.207C164.663 131.83 160.846 130.255 160.846 126.552C160.846 123.36 164.242 122.179 166.457 120.9" stroke="#263238" stroke-linecap="round" stroke-linejoin="round"/>
<path d="M166.655 138.596C166.655 138.596 168.584 137.311 168.584 135.273C168.584 133.905 167.123 133.011 165.194 130.811" stroke="#263238" stroke-linecap="round" stroke-linejoin="round"/>
<path d="M164.128 129.48C164.128 129.48 162.864 128.487 163.795 126.62" stroke="#263238" stroke-linecap="round" stroke-linejoin="round"/>
<path d="M134.852 75.01C135.47 74.88 136.796 74.3704 137.691 72.2956C137.705 72.2642 137.712 72.2304 137.713 72.1961C137.713 72.1618 137.707 72.1278 137.695 72.0959C137.682 72.064 137.663 72.0349 137.639 72.0103C137.616 71.9856 137.587 71.966 137.556 71.9524C137.492 71.926 137.421 71.9253 137.357 71.9506C137.293 71.9758 137.241 72.0249 137.212 72.0876C136.391 73.9908 135.216 74.412 134.727 74.5056C135.602 73.447 136.085 72.1192 136.094 70.746C136.094 67.1372 132.751 64.2148 128.627 64.2148C124.504 64.2148 121.16 67.1372 121.16 70.746C121.163 72.0638 121.602 73.3437 122.408 74.386C121.623 74.3444 120.297 74.6772 118.617 76.6376C118.569 76.6871 118.542 76.7533 118.542 76.8222C118.542 76.8911 118.569 76.9573 118.617 77.0068C118.665 77.0469 118.726 77.0689 118.789 77.0692C118.827 77.0693 118.864 77.0609 118.898 77.0447C118.932 77.0285 118.962 77.0049 118.986 76.9756C121.134 74.4744 122.554 74.8956 122.84 75.01C122.354 75.2771 121.899 75.5962 121.482 75.9616C119.085 78.1196 117.624 82.2016 117.811 85.6024C118.022 87.858 118.839 90.0144 120.177 91.8424C121.918 90.5963 123.362 88.9804 124.405 87.1104C125.182 85.7368 125.876 84.3182 126.485 82.862C126.485 84.3856 126.682 86.2264 127.483 87.542C128.061 88.5812 128.907 89.446 129.934 90.0461C130.96 90.6462 132.129 90.9595 133.318 90.9532C133.728 90.9591 134.138 90.919 134.54 90.8336C134.575 90.8248 134.608 90.8086 134.637 90.7863C134.665 90.7639 134.689 90.7357 134.706 90.7036C136.713 91.13 138.71 91.0936 139.017 90.6672C139.511 89.986 140.213 87.8592 140.447 85.2592C140.873 80.8496 138.096 77.0224 134.852 75.01ZM127.967 87.2248C126.958 85.5764 126.989 82.888 127.109 81.3436L127.176 81.1668C127.224 82.7552 127.629 84.3124 128.361 85.723C129.093 87.1336 130.133 88.3614 131.404 89.3152C132.106 89.8005 132.885 90.1644 133.708 90.3916C132.434 90.48 129.813 90.2356 127.967 87.2248Z" fill="#263238"/>
<path d="M128.055 79.04C128.055 79.04 127.629 82.1912 131.633 85.28C135.637 88.3688 139.433 87.152 139.433 87.152" stroke="white" stroke-width="0.5" stroke-linecap="round" stroke-linejoin="round"/>
<path d="M128.643 78C128.643 78 132.86 84.1412 138.684 82.5396" stroke="white" stroke-width="0.5" stroke-linecap="round" stroke-linejoin="round"/>
<path d="M126.558 75.9564C125.893 75.6187 125.148 75.4702 124.404 75.5271C123.66 75.5839 122.946 75.844 122.34 76.2788C120.099 77.7712 118.976 81.2968 118.976 81.2968" stroke="white" stroke-width="0.5" stroke-linecap="round" stroke-linejoin="round"/>
<path d="M126.667 77.6672C126.667 77.6672 124.852 77.1836 123.729 78.3068C123.181 78.8029 122.713 79.3798 122.34 80.0176" stroke="white" stroke-width="0.5" stroke-linecap="round" stroke-linejoin="round"/>
<defs>
<linearGradient id="paint0_linear" x1="116.5" y1="170.5" x2="149" y2="64" gradientUnits="userSpaceOnUse">
<stop stop-color="#181818"/>
<stop offset="1" stop-color="#24B9BA"/>
</linearGradient>
</defs>
</svg>
